{
.appVersion = "3150";
.formatVersion = 3;
DisplayStrings = (
E,
l,
"รฐ",
"/j.alt"
);
axes = (
{
name = Weight;
tag = wght;
}
);
classes = (
{
automatic = 1;

glyphs = (
{
glyphname = A;
kernLeft = A;
kernRight = A;
layers = (
{
anchors = (
{
name = bottom;
pos = (270,0);
},
{
name = ogonek;
pos = (588,0);
},
{
name = top;
pos = (301,587);
}
);
background = {
anchors = (
{
name = bottom;
pos = (271,0);
},
{
name = ogonek;
pos = (589,0);
},
{
name = top;
pos = (302,587);
}
);
shapes = (
{
closed = 1;
nodes = (
(210,0,l),
(214,57,l),
(148,76,l),
(190,203,l),
(201,233,l),
(272,420,l),
(237,442,l),
(332,228,l),
(343,191,l),
(392,76,l),
(326,57,l),
(330,0,l),
(640,0,l),
(643,57,l),
(590,76,l),
(352,605,l),
(253,550,l),
(51,76,l),
(-2,57,l),
(2,0,l)
);
},
{
closed = 1;
nodes = (
(182,161,o),
(206,163,o),
(265,163,cs),
(322,163,o),
(348,161,o),
(358,161,c),
(358,238,l),
(334,237,o),
(309,233,o),
(265,233,cs),
(219,233,o),
(198,237,o),
(173,238,c),
(173,160,l)
);
}
);
};
layerId = "722FC537-28B1-4F35-B842-D78FAAB5B143";
shapes = (
{
closed = 1;
nodes = (
(210,0,l),
(213,57,l),
(147,76,l),
(191,203,l),
(200,233,l),
(270,420,l),
(236,442,l),
(331,228,l),
(342,191,l),
(391,76,l),
(325,57,l),
(330,0,l),
(639,0,l),
(642,57,l),
(589,76,l),
(351,605,l),
(252,550,l),
(50,76,l),
(-3,57,l),
(0,0,l)
);
},
{
closed = 1;
nodes = (
(172,161,o),
(199,163,o),
(264,163,cs),
(327,163,o),
(356,161,o),
(367,161,c),
(367,238,l),
(340,237,o),
(313,233,o),
(264,233,cs),
(213,233,o),
(190,237,o),
(162,238,c),
(162,160,l)
);
}
);
width = 633;
},
{
anchors = (
{
name = bottom;
pos = (274,0);
},
{
name = ogonek;
pos = (543,0);
},
{
name = top;
pos = (285,587);
}
);
layerId = "A0F5A844-D88E-40D3-8473-9812906C4A28";
shapes = (
{
closed = 1;
nodes = (
(171,0,l),
(173,38,l),
(112,52,l),
(165,201,l),
(176,231,l),
(280,516,l),
(257,503,l),
(366,231,l),
(377,200,l),
(436,52,l),
(375,38,l),
(377,0,l),
(579,0,l),
(582,38,l),
(532,52,l),
(314,605,l),
(256,570,l),
(50,52,l),
(1,38,l),
(3,0,l)
);
},
{
closed = 1;
nodes = (
(193,186,o),
(236,187,o),
(276,187,cs),
(317,187,o),
(362,186,o),
(408,185,c),
(408,238,l),
(384,237,o),
(339,235,o),
(276,235,cs),
(212,235,o),
(168,237,o),
(143,238,c),
(143,185,l)
);
}
);
width = 582;
}
);
note = A;
unicode = 65;
},
{
glyphname = Aogonek;
kernLeft = A;
kernRight = A;
layers = (
{
anchors = (
{
name = bottom;
pos = (270,0);
},
{
name = top;
pos = (301,587);
}
);
background = {
anchors = (
{
name = bottom;
pos = (271,0);
},
{
name = top;
pos = (302,587);
}
);
shapes = (
{
closed = 1;
nodes = (
(579,-223,o),
(623,-206,o),
(652,-173,c),
(620,-127,l),
(595,-151,o),
(573,-161,o),
(553,-161,cs),
(523,-161,o),
(504,-139,o),
(504,-108,cs),
(504,-60,o),
(558,-16,o),
(640,0,c),
(643,57,l),
(590,76,l),
(352,605,l),
(253,550,l),
(51,76,l),
(-2,57,l),
(2,0,l),
(207,0,l),
(211,57,l),
(148,76,l),
(190,203,l),
(201,233,l),
(275,433,l),
(237,439,l),
(332,228,l),
(343,191,l),
(392,76,l),
(330,57,l),
(333,0,l),
(549,0,l),
(537,9,l),
(462,-4,o),
(392,-61,o),
(392,-116,cs),
(392,-177,o),
(455,-223,o),
(531,-223,cs)
);
},
{
closed = 1;
nodes = (
(182,161,o),
(206,163,o),
(265,163,cs),
(322,163,o),
(348,161,o),
(358,161,c),
(358,238,l),
(334,237,o),
(309,233,o),
(265,233,cs),
(219,233,o),
(198,237,o),
(173,238,c),
(173,160,l)
);
}
);
};
layerId = "722FC537-28B1-4F35-B842-D78FAAB5B143";
shapes = (
{
closed = 1;
nodes = (
(578,-223,o),
(622,-206,o),
(651,-173,c),
(619,-127,l),
(594,-151,o),
(572,-161,o),
(552,-161,cs),
(522,-161,o),
(503,-139,o),
(503,-108,cs),
(503,-60,o),
(557,-16,o),
(639,0,c),
(642,57,l),
(589,76,l),
(351,605,l),
(252,550,l),
(50,76,l),
(-3,57,l),
(0,0,l),
(210,0,l),
(213,57,l),
(147,76,l),
(191,203,l),
(200,233,l),
(274,433,l),
(236,439,l),
(331,228,l),
(342,191,l),
(391,76,l),
(325,57,l),
(330,0,l),
(548,0,l),
(536,9,l),
(461,-4,o),
(391,-61,o),
(391,-116,cs),
(391,-177,o),
(454,-223,o),
(530,-223,cs)
);
},
{
closed = 1;
nodes = (
(172,161,o),
(199,163,o),
(264,163,cs),
(327,163,o),
(356,161,o),
(367,161,c),
(367,238,l),
(340,237,o),
(313,233,o),
(264,233,cs),
(213,233,o),
(190,237,o),
(162,238,c),
(162,160,l)
);
}
);
width = 633;
},
{
anchors = (
{
name = bottom;
pos = (274,0);
},
{
name = top;
pos = (285,587);
}
);
layerId = "A0F5A844-D88E-40D3-8473-9812906C4A28";
shapes = (
{
closed = 1;
nodes = (
(533,-223,o),
(569,-204,o),
(595,-173,c),
(573,-146,l),
(552,-167,o),
(530,-181,o),
(504,-181,cs),
(469,-181,o),
(446,-158,o),
(446,-122,cs),
(446,-69,o),
(500,-21,o),
(579,0,c),
(582,38,l),
(532,52,l),
(314,605,l),
(256,570,l),
(50,52,l),
(1,38,l),
(3,0,l),
(171,0,l),
(173,38,l),
(112,52,l),
(165,201,l),
(176,231,l),
(280,516,l),
(257,502,l),
(366,231,l),
(377,200,l),
(436,52,l),
(375,38,l),
(377,0,l),
(539,0,l),
(532,15,l),
(435,-18,o),
(376,-72,o),
(376,-132,cs),
(376,-183,o),
(420,-223,o),
(490,-223,cs)
);
},
{
closed = 1;
nodes = (
(193,186,o),
(236,187,o),
(276,187,cs),
(317,187,o),
(362,186,o),
(408,185,c),
(408,238,l),
(384,237,o),
(339,235,o),
(276,235,cs),
(212,235,o),
(168,237,o),
(143,238,c),
(143,185,l)
);
}
);
width = 582;
}
);
metricLeft = A;
metricWidth = A;
note = Aogonek;
unicode = 260;
},
{
glyphname = AE;
kernLeft = AE;
kernRight = E;
layers = (
{
anchors = (
{
name = bottom;
pos = (450,0);
},
{
name = top;
pos = (450,587);
}
);
background = {
anchors = (
{
name = bottom;
pos = (451,0);
},
{
name = top;
pos = (451,587);
}
);
shapes = (
{
closed = 1;
nodes = (
(848,166,l),
(784,178,l),
(726,75,l),
(708,71,o),
(712,71,o),
(658,71,cs),
(637,71,ls),
(605,71,o),
(571,73,o),
(535,75,c),
(533,86,o),
(533,84,o),
(533,217,cs),
(533,390,ls),
(533,517,o),
(533,505,o),
(535,518,c),
(546,521,o),
(576,522,o),
(604,522,cs),
(645,522,ls),
(662,522,o),
(673,521,o),
(696,517,c),
(737,425,l),
(802,434,l),
(771,593,l),
(735,593,o),
(632,587,o),
(586,587,cs),
(277,587,l),
(274,529,l),
(371,511,l),
(362,553,l),
(31,76,l),
(-26,58,l),
(-23,0,l),
(179,0,l),
(183,58,l),
(120,76,l),
(406,498,l),
(368,492,l),
(368,208,ls),
(368,160,o),
(368,110,o),
(366,76,c),
(303,57,l),
(307,0,l),
(633,0,ls),
(685,0,o),
(770,-6,o),
(799,-7,c)
);
},
{
closed = 1;
nodes = (
(171,152,o),
(204,154,o),
(257,154,cs),
(271,154,o),
(308,152,o),
(375,152,c),
(375,228,l),
(335,224,o),
(301,223,o),
(257,223,cs),
(199,223,o),
(203,226,o),
(175,228,c),
(150,150,l)
);
},
{
closed = 1;
nodes = (
(726,196,l),
(726,404,l),
(661,404,l),
(653,339,l),
(644,341,o),
(618,338,o),
(590,338,cs),
(562,338,ls),
(535,338,o),
(511,341,o),
(507,342,c),
(507,261,l),
(511,262,o),
(535,264,o),
(562,264,cs),
(590,264,ls),
(618,264,o),
(644,262,o),
(653,263,c),
(661,196,l)
);
}
);
};
layerId = "722FC537-28B1-4F35-B842-D78FAAB5B143";
shapes = (
{
closed = 1;
nodes = (
(847,166,l),
(783,178,l),
(725,75,l),
(707,71,o),
(711,71,o),
(657,71,cs),
(636,71,ls),
(604,71,o),
(570,73,o),
(534,75,c),
(532,96,o),
(532,84,o),
(532,217,cs),
(532,390,ls),
(532,487,o),
(533,505,o),
(534,518,c),
(545,521,o),
(575,522,o),
(603,522,cs),
(644,522,ls),
(661,522,o),
(672,521,o),
(695,517,c),
(736,425,l),
(801,434,l),
(770,593,l),
(734,593,o),
(631,587,o),
(585,587,cs),
(276,587,l),
(273,529,l),
(370,511,l),
(361,553,l),
(30,76,l),
(-27,58,l),
(-24,0,l),
(180,0,l),
(183,58,l),
(119,76,l),
(405,498,l),
(367,492,l),
(367,208,ls),
(367,160,o),
(367,110,o),
(365,76,c),
(301,57,l),
(304,0,l),
(632,0,ls),
(684,0,o),
(769,-6,o),
(798,-7,c)
);
},
{
closed = 1;
nodes = (
(172,152,o),
(208,154,o),
(266,154,cs),
(281,154,o),
(331,154,o),
(394,152,c),
(394,228,l),
(350,224,o),
(313,223,o),
(266,223,cs),
(202,223,o),
(207,226,o),
(176,228,c),
(149,150,l)
);
},
{
closed = 1;
nodes = (
(725,196,l),
(725,404,l),
(660,404,l),
(652,340,l),
(643,339,o),
(617,338,o),
(589,338,cs),
(561,338,ls),
(534,338,o),
(510,341,o),
(506,342,c),
(506,261,l),
(510,262,o),
(534,264,o),
(561,264,cs),
(589,264,ls),
(617,264,o),
(643,263,o),
(652,263,c),
(660,196,l)
);
}
);
width = 857;
},
{
anchors = (
{
name = bottom;
pos = (414,0);
},
{
name = top;
pos = (414,587);
}
);
layerId = "A0F5A844-D88E-40D3-8473-9812906C4A28";
shapes = (
{
closed = 1;
nodes = (
(774,141,l),
(729,150,l),
(678,55,l),
(666,52,o),
(649,51,o),
(606,51,cs),
(521,51,ls),
(483,51,o),
(474,51,o),
(457,53,c),
(456,66,o),
(455,114,o),
(455,153,cs),
(455,423,ls),
(455,470,o),
(456,527,o),
(457,537,c),
(479,538,o),
(498,539,o),
(518,539,cs),
(622,539,ls),
(637,539,o),
(650,538,o),
(659,536,c),
(693,452,l),
(738,459,l),
(718,591,l),
(685,588,o),
(654,587,o),
(618,587,cs),
(290,587,l),
(288,549,l),
(378,535,l),
(367,570,l),
(36,52,l),
(-15,38,l),
(-12,0,l),
(162,0,l),
(164,38,l),
(103,52,l),
(400,539,l),
(371,520,l),
(371,158,ls),
(371,96,o),
(370,69,o),
(369,52,c),
(308,38,l),
(310,0,l),
(640,0,ls),
(666,0,o),
(690,-1,o),
(735,-5,c)
);
},
{
closed = 1;
nodes = (
(196,182,o),
(233,182,o),
(286,182,cs),
(357,182,o),
(380,182,o),
(398,180,c),
(398,234,l),
(376,232,o),
(339,231,o),
(286,231,cs),
(234,231,o),
(199,232,o),
(178,234,c),
(166,180,l)
);
},
{
closed = 1;
nodes = (
(665,205,l),
(665,399,l),
(624,399,l),
(611,330,l),
(603,328,o),
(587,327,o),
(565,327,cs),
(498,327,ls),
(480,327,o),
(463,328,o),
(440,329,c),
(440,275,l),
(463,276,o),
(480,277,o),
(498,277,cs),
(565,277,ls),
(587,277,o),
(603,276,o),
(611,274,c),
(624,205,l)
);
}
);
width = 804;
}
);
metricRight = "=E+1";
note = AE;
unicode = 198;
},
{
glyphname = B;
kernLeft = H;
kernRight = B;
layers = (
{
anchors = (
{
name = bottom;
pos = (325,0);
},
{
name = top;
pos = (325,587);
}
);
background = {
anchors = (
{
name = bottom;
pos = (326,0);
},
{
name = top;
pos = (326,587);
}
);
shapes = (
{
closed = 1;
nodes = (
(32,57,l),
(35,0,l),
(326,0,ls),
(498,0,o),
(594,62,o),
(594,174,cs),
(594,260,o),
(522,315,o),
(400,322,c),
(383,313,l),
(490,319,o),
(564,373,o),
(564,446,cs),
(564,542,o),
(495,587,o),
(349,587,cs),
(35,587,l),
(32,531,l),
(97,510,l),
(101,503,o),
(104,433,o),
(104,354,cs),
(104,234,ls),
(104,152,o),
(101,82,o),
(97,76,c)
);
},
{
closed = 1;
nodes = (
(270,407,ls),
(270,466,o),
(271,511,o),
(272,524,c),
(290,524,ls),
(358,524,o),
(385,486,o),
(385,430,cs),
(385,368,o),
(357,334,o),
(300,334,cs),
(283,334,o),
(274,334,o),
(264,335,c),
(264,260,l),
(287,262,o),
(306,262,o),
(308,262,cs),
(382,262,o),
(415,230,o),
(415,157,cs),
(415,102,o),
(381,66,o),
(333,66,cs),
(307,66,o),
(285,69,o),
(273,75,c),
(271,92,o),
(270,127,o),
(270,177,cs)
);
}
);
};
layerId = "722FC537-28B1-4F35-B842-D78FAAB5B143";
shapes = (
{
closed = 1;
nodes = (
(31,57,l),
(34,0,l),
(325,0,ls),
(497,0,o),
(593,62,o),
(593,174,cs),
(593,260,o),
(521,315,o),
(394,322,c),
(377,313,l),
(489,319,o),
(563,373,o),
(563,446,cs),
(563,542,o),
(494,587,o),
(348,587,cs),
(34,587,l),
(31,531,l),
(96,510,l),
(100,503,o),
(103,433,o),
(103,354,cs),
(103,234,ls),
(103,152,o),
(100,82,o),
(96,76,c)
);
},
{
closed = 1;
nodes = (
(269,407,ls),
(269,466,o),
(270,511,o),
(271,524,c),
(289,524,ls),
(357,524,o),
(384,486,o),
(384,430,cs),
(384,368,o),
(356,334,o),
(292,334,cs),
(282,334,o),
(273,334,o),
(253,336,c),
(253,259,l),
(271,261,o),
(286,262,o),
(297,262,cs),
(381,262,o),
(414,230,o),
(414,157,cs),
(414,102,o),
(379,66,o),
(325,66,cs),
(305,66,o),
(284,69,o),
(272,75,c),
(270,92,o),
(269,127,o),
(269,177,cs)
);
}
);
width = 636;
},
{
anchors = (
{
name = bottom;
pos = (278,0);
},
{
name = top;
pos = (278,587);
}
);
layerId = "A0F5A844-D88E-40D3-8473-9812906C4A28";
shapes = (
{
closed = 1;
nodes = (
(45,38,l),
(47,0,l),
(265,0,ls),
(418,0,o),
(514,65,o),
(514,169,cs),
(514,260,o),
(444,313,o),
(317,317,c),
(329,310,l),
(421,317,o),
(484,373,o),
(484,446,cs),
(484,537,o),
(415,587,o),
(285,587,cs),
(47,587,l),
(45,548,l),
(106,538,l),
(109,530,o),
(112,474,o),
(112,387,cs),
(112,199,ls),
(112,119,o),
(109,62,o),
(106,52,c)
);
},
{
closed = 1;
nodes = (
(196,413,ls),
(196,475,o),
(197,533,o),
(198,543,c),
(265,543,ls),
(348,543,o),
(393,505,o),
(393,436,cs),
(393,365,o),
(344,325,o),
(256,325,cs),
(229,325,o),
(208,326,o),
(183,327,c),
(183,275,l),
(198,277,o),
(210,277,o),
(261,277,cs),
(369,277,o),
(423,238,o),
(423,159,cs),
(423,83,o),
(372,46,o),
(269,46,cs),
(251,46,o),
(216,50,o),
(199,53,c),
(197,65,o),
(196,118,o),
(196,177,cs)
);
}
);
width = 560;
}
);
note = B;
unicode = 66;
},
{
glyphname = C;
kernLeft = O;
kernRight = C;
layers = (
{
anchors = (
{
name = bottom;
pos = (356,0);
},
{
name = top;
pos = (356,587);
}
);
background = {
anchors = (
{
name = bottom;
pos = (357,0);
},
{
name = top;
pos = (357,587);
}
);
shapes = (
{
closed = 1;
nodes = (
(464,-9,o),
(551,19,o),
(588,46,c),
(617,185,l),
(537,193,l),
(507,107,l),
(493,83,o),
(439,71,o),
(414,71,cs),
(318,71,o),
(242,164,o),
(242,309,cs),
(242,449,o),
(306,520,o),
(399,520,cs),
(429,520,o),
(448,514,o),
(474,505,c),
(514,393,l),
(586,397,l),
(579,560,l),
(540,580,o),
(475,596,o),
(408,596,cs),
(209,596,o),
(44,491,o),
(44,280,cs),
(44,101,o),
(172,-9,o),
(381,-9,cs)
);
}
);
};
layerId = "722FC537-28B1-4F35-B842-D78FAAB5B143";
shapes = (
{
closed = 1;
nodes = (
(463,-9,o),
(545,15,o),
(587,46,c),
(616,185,l),
(536,193,l),
(503,99,l),
(480,80,o),
(448,71,o),
(411,71,cs),
(317,71,o),
(241,164,o),
(241,309,cs),
(241,449,o),
(305,520,o),
(398,520,cs),
(424,520,o),
(447,516,o),
(473,505,c),
(513,393,l),
(585,397,l),
(578,560,l),
(539,580,o),
(472,596,o),
(407,596,cs),
(208,596,o),
(43,491,o),
(43,280,cs),
(43,101,o),
(171,-9,o),
(380,-9,cs)
);
}
);
width = 638;
},
{
anchors = (
{
name = bottom;
pos = (349,0);
},
{
name = top;
pos = (349,587);
}
);
layerId = "A0F5A844-D88E-40D3-8473-9812906C4A28";
shapes = (
{
closed = 1;
nodes = (
(437,-9,o),
(502,11,o),
(548,35,c),
(576,161,l),
(530,166,l),
(486,72,l),
(454,53,o),
(420,44,o),
(378,44,cs),
(255,44,o),
(157,136,o),
(157,307,cs),
(157,436,o),
(222,545,o),
(372,545,cs),
(410,545,o),
(456,536,o),
(482,519,c),
(512,424,l),
(557,428,l),
(550,565,l),
(502,585,o),
(435,596,o),
(381,596,cs),
(173,596,o),
(52,457,o),
(52,289,cs),
(52,92,o),
(194,-9,o),
(368,-9,cs)
);
}
);
width = 604;
}
);
note = C;
unicode = 67;
},
{
glyphname = D;
kernLeft = H;
kernRight = O;
layers = (
{
anchors = (
{
name = bottom;
pos = (350,0);
},
{
name = center;
pos = (370,294);
},
{
name = stroke;
pos = (225,294);
},
{
name = top;
pos = (360,587);
}
);
background = {
anchors = (
{
name = bottom;
pos = (351,0);
},
{
name = center;
pos = (371,294);
},
{
name = stroke;
pos = (226,294);
},
{
name = top;
pos = (361,587);
}
);
shapes = (
{
closed = 1;
nodes = (
(32,530,l),
(98,513,l),
(102,507,o),
(105,438,o),
(105,354,cs),
(105,234,ls),
(105,147,o),
(102,81,o),
(98,76,c),
(32,57,l),
(36,0,l),
(341,0,ls),
(538,0,o),
(680,127,o),
(680,302,cs),
(680,481,o),
(551,587,o),
(333,587,cs),
(36,587,l)
);
},
{
closed = 1;
nodes = (
(292,516,o),
(310,516,o),
(327,516,cs),
(400,516,o),
(498,465,o),
(498,269,cs),
(498,130,o),
(450,76,o),
(354,76,cs),
(330,76,o),
(298,79,o),
(277,85,c),
(274,113,o),
(272,186,o),
(272,234,cs),
(272,354,ls),
(272,438,o),
(274,503,o),
(274,514,c)
);
}
);
};
layerId = "722FC537-28B1-4F35-B842-D78FAAB5B143";
shapes = (
{
closed = 1;
nodes = (
(32,530,l),
(97,513,l),
(101,507,o),
(104,438,o),
(104,354,cs),
(104,234,ls),
(104,147,o),
(101,81,o),
(97,76,c),
(32,57,l),
(35,0,l),
(340,0,ls),
(537,0,o),
(679,127,o),
(679,302,cs),
(679,481,o),
(550,587,o),
(332,587,cs),
(35,587,l)
);
},
{
closed = 1;
nodes = (
(289,515,o),
(309,516,o),
(325,516,cs),
(399,516,o),
(497,465,o),
(497,269,cs),
(497,130,o),
(449,76,o),
(353,76,cs),
(329,76,o),
(297,79,o),
(276,85,c),
(273,113,o),
(271,186,o),
(271,234,cs),
(271,354,ls),
(271,438,o),
(272,501,o),
(273,512,c)
);
}
);
width = 727;
},
{
anchors = (
{
name = bottom;
pos = (324,0);
},
{
name = center;
pos = (344,294);
},
{
name = stroke;
pos = (200,294);
},
{
name = top;
pos = (334,587);
}
);
layerId = "A0F5A844-D88E-40D3-8473-9812906C4A28";
shapes = (
{
closed = 1;
nodes = (
(47,549,l),
(108,535,l),
(110,526,o),
(113,466,o),
(113,387,cs),
(113,199,ls),
(113,127,o),
(110,64,o),
(108,52,c),
(47,38,l),
(49,0,l),
(303,0,ls),
(493,0,o),
(626,124,o),
(626,300,cs),
(626,481,o),
(502,587,o),
(291,587,cs),
(49,587,l)
);
},
{
closed = 1;
nodes = (
(229,538,o),
(256,540,o),
(280,540,cs),
(439,540,o),
(526,445,o),
(526,271,cs),
(526,128,o),
(451,51,o),
(310,51,cs),
(278,51,o),
(246,54,o),
(203,60,c),
(200,88,o),
(198,138,o),
(198,199,cs),
(198,387,ls),
(198,484,o),
(200,514,o),
(200,533,c)
);
}
);
width = 682;
}
);
note = D;
unicode = 68;
},
{
glyphname = E;
kernLeft = H;
kernRight = E;
layers = (
{
anchors = (
{
name = bottom;
pos = (304,0);
},
{
name = ogonek;
pos = (546,0);
},
{
name = top;
pos = (304,587);
},
{
name = topleft;
pos = (33,587);
}
);
background = {
anchors = (
{
name = bottom;
pos = (305,0);
},
{
name = ogonek;
pos = (547,0);
},
{
name = top;
pos = (305,587);
},
{
name = topleft;
pos = (34,587);
}
);
shapes = (
{
closed = 1;
nodes = (
(593,166,l),
(529,178,l),
(472,75,l),
(453,71,o),
(457,71,o),
(401,71,cs),
(375,71,ls),
(325,71,o),
(300,72,o),
(273,76,c),
(271,97,o),
(270,137,o),
(270,217,cs),
(270,390,ls),
(270,468,o),
(271,499,o),
(273,519,c),
(285,521,o),
(314,522,o),
(340,522,cs),
(392,522,ls),
(408,522,o),
(420,521,o),
(442,517,c),
(482,425,l),
(548,434,l),
(517,593,l),
(485,593,o),
(382,587,o),
(332,587,cs),
(34,587,l),
(31,530,l),
(96,511,l),
(100,505,o),
(104,432,o),
(104,354,cs),
(104,234,ls),
(104,157,o),
(100,83,o),
(96,76,c),
(31,57,l),
(34,0,l),
(379,0,l),
(430,0,o),
(513,-6,o),
(545,-7,c)
);
},
{
closed = 1;
nodes = (
(472,196,l),
(472,404,l),
(408,404,l),
(399,339,l),
(389,341,o),
(364,338,o),
(336,338,cs),
(297,338,ls),
(270,338,o),
(248,341,o),
(244,342,c),
(244,261,l),
(248,262,o),
(270,264,o),
(297,264,cs),
(336,264,ls),
(364,264,o),
(389,262,o),
(399,263,c),
(408,196,l)
);
}
);
};
layerId = "722FC537-28B1-4F35-B842-D78FAAB5B143";
shapes = (
{
closed = 1;
nodes = (
(592,166,l),
(528,178,l),
(471,75,l),
(452,71,o),
(456,71,o),
(400,71,cs),
(374,71,ls),
(324,71,o),
(299,72,o),
(272,76,c),
(270,97,o),
(269,137,o),
(269,217,cs),
(269,390,ls),
(269,468,o),
(270,499,o),
(272,519,c),
(284,521,o),
(313,522,o),
(339,522,cs),
(391,522,ls),
(407,522,o),
(419,521,o),
(441,517,c),
(481,425,l),
(547,434,l),
(516,593,l),
(474,589,o),
(381,587,o),
(331,587,cs),
(33,587,l),
(30,530,l),
(95,511,l),
(99,505,o),
(103,432,o),
(103,354,cs),
(103,234,ls),
(103,157,o),
(99,83,o),
(95,76,c),
(30,57,l),
(33,0,l),
(378,0,l),
(429,0,o),
(502,-4,o),
(544,-7,c)
);
},
{
closed = 1;
nodes = (
(471,196,l),
(471,404,l),
(407,404,l),
(398,339,l),
(388,339,o),
(363,338,o),
(335,338,cs),
(296,338,ls),
(269,338,o),
(247,341,o),
(243,342,c),
(243,261,l),
(247,262,o),
(269,264,o),
(296,264,cs),
(335,264,ls),
(363,264,o),
(388,263,o),
(398,263,c),
(407,196,l)
);
}
);
width = 601;
},
{
anchors = (
{
name = bottom;
pos = (280,0);
},
{
name = ogonek;
pos = (488,0);
},
{
name = top;
pos = (280,587);
},
{
name = topleft;
pos = (25,587);
}
);
layerId = "A0F5A844-D88E-40D3-8473-9812906C4A28";
shapes = (
{
closed = 1;
nodes = (
(527,141,l),
(482,150,l),
(430,55,l),
(420,52,o),
(403,51,o),
(359,51,cs),
(262,51,ls),
(236,51,o),
(217,52,o),
(198,54,c),
(197,66,o),
(196,113,o),
(196,153,cs),
(196,423,ls),
(196,470,o),
(197,527,o),
(198,536,c),
(216,538,o),
(234,539,o),
(260,539,cs),
(373,539,ls),
(388,539,o),
(401,538,o),
(412,536,c),
(445,452,l),
(490,459,l),
(470,591,l),
(431,588,o),
(398,587,o),
(370,587,cs),
(49,587,l),
(46,549,l),
(108,535,l),
(111,527,o),
(112,476,o),
(112,387,cs),
(112,199,ls),
(112,111,o),
(111,61,o),
(108,52,c),
(46,38,l),
(49,0,l),
(392,0,l),
(418,0,o),
(447,-1,o),
(486,-5,c)
);
},
{
closed = 1;
nodes = (
(418,205,l),
(418,399,l),
(375,399,l),
(363,330,l),
(356,328,o),
(339,327,o),
(317,327,cs),
(241,327,ls),
(223,327,o),
(203,328,o),
(181,329,c),
(181,274,l),
(203,275,o),
(223,277,o),
(241,277,cs),
(317,277,ls),
(339,277,o),
(356,275,o),
(363,273,c),
(375,205,l)
);
}
);
width = 556;
}
);
note = E;
unicode = 69;
},
{
glyphname = Eogonek;
kernLeft = H;
kernRight = E;
layers = (
{
anchors = (
{
name = bottom;
pos = (304,0);
},
{
name = top;
pos = (304,587);
},
{
name = topleft;
pos = (33,587);
}
);
background = {
anchors = (
{
name = bottom;
pos = (305,0);
},
{
name = top;
pos = (305,587);
},
{
name = topleft;
pos = (34,587);
}
);
shapes = (
{
closed = 1;
nodes = (
(541,-223,o),
(581,-207,o),
(612,-173,c),
(581,-127,l),
(557,-150,o),
(535,-161,o),
(514,-161,cs),
(483,-161,o),
(465,-139,o),
(465,-108,cs),
(465,-73,o),
(492,-36,o),
(547,0,c),
(593,166,l),
(529,178,l),
(472,75,l),
(453,71,o),
(457,71,o),
(401,71,cs),
(375,71,ls),
(325,71,o),
(300,72,o),
(273,76,c),
(271,97,o),
(270,137,o),
(270,217,cs),
(270,390,ls),
(270,468,o),
(271,499,o),
(273,519,c),
(285,521,o),
(314,522,o),
(340,522,cs),
(392,522,ls),
(408,522,o),
(420,521,o),
(442,517,c),
(482,425,l),
(548,434,l),
(517,593,l),
(485,593,o),
(382,587,o),
(332,587,cs),
(34,587,l),
(31,530,l),
(96,511,l),
(100,505,o),
(104,432,o),
(104,354,cs),
(104,234,ls),
(104,157,o),
(100,83,o),
(96,76,c),
(31,57,l),
(34,0,l),
(464,0,l),
(390,-32,o),
(353,-74,o),
(353,-116,cs),
(353,-176,o),
(414,-223,o),
(492,-223,cs)
);
},
{
closed = 1;
nodes = (
(472,196,l),
(472,404,l),
(408,404,l),
(399,339,l),
(389,341,o),
(364,338,o),
(336,338,cs),
(297,338,ls),
(270,338,o),
(248,341,o),
(244,342,c),
(244,261,l),
(248,262,o),
(270,264,o),
(297,264,cs),
(336,264,ls),
(364,264,o),
(389,262,o),
(399,263,c),
(408,196,l)
);
}
);
};
layerId = "722FC537-28B1-4F35-B842-D78FAAB5B143";
shapes = (
{
closed = 1;
nodes = (
(540,-223,o),
(580,-207,o),
(611,-173,c),
(580,-127,l),
(556,-150,o),
(534,-161,o),
(513,-161,cs),
(482,-161,o),
(464,-139,o),
(464,-108,cs),
(464,-73,o),
(491,-36,o),
(546,0,c),
(592,166,l),
(528,178,l),
(471,75,l),
(452,71,o),
(456,71,o),
(400,71,cs),
(374,71,ls),
(324,71,o),
(299,72,o),
(272,76,c),
(270,97,o),
(269,137,o),
(269,217,cs),
(269,390,ls),
(269,468,o),
(270,499,o),
(272,519,c),
(284,521,o),
(313,522,o),
(339,522,cs),
(391,522,ls),
(407,522,o),
(419,521,o),
(441,517,c),
(481,425,l),
(547,434,l),
(516,593,l),
(484,591,o),
(381,587,o),
(331,587,cs),
(33,587,l),
(30,530,l),
(95,511,l),
(99,505,o),
(103,432,o),
(103,354,cs),
(103,234,ls),
(103,157,o),
(99,83,o),
(95,76,c),
(30,57,l),
(33,0,l),
(463,0,l),
(389,-32,o),
(352,-74,o),
(352,-116,cs),
(352,-176,o),
(413,-223,o),
(491,-223,cs)
);
},
{
closed = 1;
nodes = (
(471,196,l),
(471,404,l),
(407,404,l),
(398,339,l),
(388,339,o),
(363,338,o),
(335,338,cs),
(296,338,ls),
(269,338,o),
(247,341,o),
(243,342,c),
(243,261,l),
(247,262,o),
(269,264,o),
(296,264,cs),
(335,264,ls),
(363,264,o),
(388,263,o),
(398,263,c),
(407,196,l)
);
}
);
width = 601;
},
{
anchors = (
{
name = bottom;
pos = (280,0);
},
{
name = top;
pos = (280,587);
},
{
name = topleft;
pos = (25,587);
}
);
layerId = "A0F5A844-D88E-40D3-8473-9812906C4A28";
shapes = (
{
closed = 1;
nodes = (
(477,-223,o),
(515,-205,o),
(543,-173,c),
(520,-146,l),
(496,-170,o),
(474,-181,o),
(451,-181,cs),
(417,-181,o),
(394,-158,o),
(394,-122,cs),
(394,-79,o),
(426,-38,o),
(488,0,c),
(527,141,l),
(482,150,l),
(430,55,l),
(420,52,o),
(403,51,o),
(359,51,cs),
(262,51,ls),
(236,51,o),
(217,52,o),
(198,54,c),
(197,66,o),
(196,113,o),
(196,153,cs),
(196,423,ls),
(196,470,o),
(197,527,o),
(198,536,c),
(216,538,o),
(234,539,o),
(260,539,cs),
(373,539,ls),
(388,539,o),
(401,538,o),
(412,536,c),
(445,452,l),
(490,459,l),
(470,591,l),
(431,588,o),
(398,587,o),
(370,587,cs),
(49,587,l),
(46,549,l),
(108,535,l),
(111,527,o),
(112,476,o),
(112,387,cs),
(112,199,ls),
(112,111,o),
(111,61,o),
(108,52,c),
(46,38,l),
(49,0,l),
(428,0,l),
(363,-37,o),
(323,-83,o),
(323,-132,cs),
(323,-185,o),
(370,-223,o),
(438,-223,cs)
);
},
{
closed = 1;
nodes = (
(418,205,l),
(418,399,l),
(375,399,l),
(363,330,l),
(356,328,o),
(339,327,o),
(317,327,cs),
(241,327,ls),
(223,327,o),
(203,328,o),
(181,329,c),
(181,274,l),
(203,275,o),
(223,277,o),
(241,277,cs),
(317,277,ls),
(339,277,o),
(356,275,o),
(363,273,c),
(375,205,l)
);
}
);
width = 556;
}
);
metricLeft = E;
metricWidth = E;
note = Eogonek;
unicode = 280;
},
{
glyphname = Schwa;
kernLeft = O;
kernRight = O;
layers = (
{
anchors = (
{
name = bottom;
pos = (336,0);
},
{
name = top;
pos = (336,587);
}
);
background = {
anchors = (
{
name = bottom;
pos = (337,0);
},
{
name = top;
pos = (337,587);
}
);
shapes = (
{
closed = 1;
nodes = (
(199,596,o),
(94,529,o),
(46,417,c),
(76,385,l),
(126,434,o),
(185,460,o),
(266,460,cs),
(375,460,o),
(441,388,o),
(441,280,cs),
(441,238,ls),
(441,134,o),
(411,75,o),
(342,75,cs),
(283,75,o),
(237,126,o),
(237,204,cs),
(237,255,l),
(215,210,l),
(549,210,l),
(549,288,l),
(42,288,l),
(42,247,ls),
(42,92,o),
(166,-10,o),
(346,-9,cs),
(502,-7,o),
(631,136,o),
(631,300,cs),
(631,466,o),
(498,596,o),
(326,596,cs)
);
}
);
};
layerId = "722FC537-28B1-4F35-B842-D78FAAB5B143";
shapes = (
{
closed = 1;
nodes = (
(198,596,o),
(93,529,o),
(45,417,c),
(75,385,l),
(125,434,o),
(184,460,o),
(265,460,cs),
(374,460,o),
(440,388,o),
(440,280,cs),
(440,238,ls),
(440,134,o),
(410,75,o),
(338,75,cs),
(276,75,o),
(236,126,o),
(236,204,cs),
(236,255,l),
(214,210,l),
(548,210,l),
(548,288,l),
(41,288,l),
(41,247,ls),
(41,92,o),
(165,-10,o),
(339,-8,cs),
(501,-7,o),
(630,136,o),
(630,300,cs),
(630,466,o),
(497,596,o),
(325,596,cs)
);
}
);
width = 672;
},
{
anchors = (
{
name = bottom;
pos = (326,0);
},
{
name = top;
pos = (326,587);
}
);
layerId = "A0F5A844-D88E-40D3-8473-9812906C4A28";
shapes = (
{
closed = 1;
nodes = (
(205,596,o),
(104,534,o),
(58,444,c),
(90,418,l),
(138,475,o),
(202,508,o),
(283,508,cs),
(413,508,o),
(496,416,o),
(496,267,cs),
(496,246,ls),
(496,121,o),
(434,44,o),
(328,44,cs),
(227,44,o),
(166,110,o),
(166,212,cs),
(166,244,l),
(147,227,l),
(530,227,l),
(530,283,l),
(54,283,l),
(54,258,ls),
(54,95,o),
(158,-8,o),
(324,-9,cs),
(483,-9,o),
(598,122,o),
(598,306,cs),
(598,477,o),
(482,596,o),
(315,596,cs)
);
}
);
width = 649;
}
);
unicode = 399;
},
{
glyphname = F;
kernLeft = H;
kernRight = F;
layers = (
{
anchors = (
{
name = bottom;
pos = (185,0);
},
{
name = top;
pos = (268,587);
}
);
background = {
anchors = (
{
name = bottom;
pos = (186,0);
},
{
name = top;
pos = (269,587);
}
);
shapes = (
{
closed = 1;
nodes = (
(355,0,l),
(359,59,l),
(278,76,l),
(276,84,o),
(271,154,o),
(271,156,c),
(270,400,l),
(270,517,o),
(269,501,o),
(270,516,c),
(284,520,o),
(306,522,o),
(331,522,cs),
(384,522,ls),
(400,522,o),
(412,521,o),
(434,517,c),
(475,425,l),
(540,434,l),
(509,593,l),
(477,593,o),
(374,587,o),
(323,587,cs),
(36,587,l),
(32,530,l),
(98,512,l),
(101,505,o),
(105,427,o),
(105,344,c),
(104,236,l),
(104,161,o),
(100,84,o),
(97,76,c),
(35,57,l),
(39,0,l)
);
},
{
closed = 1;
nodes = (
(464,184,l),
(464,397,l),
(398,397,l),
(389,333,l),
(379,335,o),
(354,331,o),
(327,331,cs),
(286,331,ls),
(259,331,o),
(236,334,o),
(223,335,c),
(223,253,l),
(233,254,o),
(257,257,o),
(286,257,cs),
(327,257,ls),
(342,257,o),
(367,256,o),
(389,254,c),
(398,184,l)
);
}
);
};
layerId = "722FC537-28B1-4F35-B842-D78FAAB5B143";
shapes = (
{
closed = 1;
nodes = (
(355,0,l),
(358,59,l),
(277,76,l),
(275,84,o),
(270,154,o),
(270,156,c),
(269,400,l),
(269,517,o),
(268,501,o),
(269,516,c),
(283,520,o),
(305,522,o),
(330,522,cs),
(383,522,ls),
(399,522,o),
(411,521,o),
(433,517,c),
(474,425,l),
(539,434,l),
(508,593,l),
(476,591,o),
(373,587,o),
(322,587,cs),
(35,587,l),
(32,530,l),
(97,512,l),
(100,505,o),
(104,427,o),
(104,344,c),
(103,236,l),
(103,161,o),
(99,84,o),
(96,76,c),
(34,57,l),
(37,0,l)
);
},
{
closed = 1;
nodes = (
(463,184,l),
(463,397,l),
(397,397,l),
(388,333,l),
(378,333,o),
(353,331,o),
(326,331,cs),
(285,331,ls),
(258,331,o),
(235,334,o),
(222,335,c),
(222,253,l),
(232,254,o),
(256,257,o),
(285,257,cs),
(326,257,ls),
(341,257,o),
(366,256,o),
(388,254,c),
(397,184,l)
);
}
);
width = 566;
},
{
anchors = (
{
name = bottom;
pos = (156,0);
},
{
name = top;
pos = (260,587);
}
);
layerId = "A0F5A844-D88E-40D3-8473-9812906C4A28";
shapes = (
{
closed = 1;
nodes = (
(280,0,l),
(282,40,l),
(201,52,l),
(199,60,o),
(197,98,o),
(197,193,c),
(196,411,l),
(196,474,o),
(196,525,o),
(197,536,c),
(211,538,o),
(240,539,o),
(260,539,cs),
(371,539,ls),
(385,539,o),
(399,538,o),
(408,536,c),
(442,452,l),
(488,459,l),
(467,591,l),
(428,588,o),
(396,587,o),
(367,587,cs),
(51,587,l),
(48,549,l),
(110,535,l),
(112,528,o),
(113,485,o),
(113,405,c),
(112,194,l),
(112,103,o),
(111,60,o),
(109,52,c),
(52,38,l),
(54,0,l)
);
},
{
closed = 1;
nodes = (
(415,197,l),
(415,395,l),
(372,395,l),
(359,327,l),
(352,325,o),
(338,323,o),
(311,323,cs),
(227,323,ls),
(210,323,o),
(191,325,o),
(175,326,c),
(175,271,l),
(197,272,o),
(213,273,o),
(227,273,cs),
(311,273,ls),
(334,273,o),
(351,272,o),
(359,269,c),
(372,197,l)
);
}
);
width = 506;
}
);
note = F;
unicode = 70;
},
{
glyphname = G;
kernLeft = O;
kernRight = G;
layers = (
{
anchors = (
{
name = bottom;
pos = (353,0);
},
{
name = top;
pos = (353,587);
}
);
background = {
anchors = (
{
name = bottom;
pos = (354,0);
},
{
name = top;
pos = (354,587);
}
);
shapes = (
{
closed = 1;
nodes = (
(449,-9,o),
(526,7,o),
(587,44,c),
(585,100,o),
(584,125,o),
(584,124,cs),
(584,150,o),
(582,191,o),
(587,201,c),
(640,221,l),
(636,278,l),
(348,278,l),
(344,219,l),
(417,200,l),
(419,182,o),
(422,146,o),
(422,128,cs),
(422,21,l),
(435,74,l),
(423,73,o),
(412,70,o),
(407,70,cs),
(313,70,o),
(236,164,o),
(236,309,cs),
(236,449,o),
(303,520,o),
(397,520,cs),
(412,520,o),
(437,518,o),
(470,505,c),
(503,410,l),
(577,412,l),
(573,560,l),
(536,580,o),
(471,596,o),
(409,596,cs),
(206,596,o),
(42,491,o),
(42,275,cs),
(42,101,o),
(173,-9,o),
(372,-9,cs)
);
}
);
};
layerId = "722FC537-28B1-4F35-B842-D78FAAB5B143";
shapes = (
{
closed = 1;
nodes = (
(448,-9,o),
(525,7,o),
(586,44,c),
(584,80,o),
(583,111,o),
(583,124,cs),
(583,149,o),
(582,181,o),
(584,201,c),
(637,221,l),
(634,278,l),
(346,278,l),
(343,219,l),
(416,200,l),
(418,182,o),
(421,146,o),
(421,128,cs),
(421,21,l),
(444,74,l),
(432,72,o),
(414,70,o),
(406,70,cs),
(312,70,o),
(235,164,o),
(235,309,cs),
(235,449,o),
(302,520,o),
(396,520,cs),
(419,520,o),
(444,517,o),
(469,505,c),
(502,410,l),
(576,412,l),
(572,560,l),
(535,580,o),
(470,596,o),
(406,596,cs),
(205,596,o),
(41,491,o),
(41,275,cs),
(41,101,o),
(172,-9,o),
(371,-9,cs)
);
}
);
width = 672;
},
{
anchors = (
{
name = bottom;
pos = (352,0);
},
{
name = top;
pos = (352,587);
}
);
layerId = "A0F5A844-D88E-40D3-8473-9812906C4A28";
shapes = (
{
closed = 1;
nodes = (
(439,-9,o),
(519,12,o),
(571,46,c),
(569,80,o),
(568,109,o),
(568,155,cs),
(568,191,o),
(568,218,o),
(568,225,c),
(612,237,l),
(610,275,l),
(415,275,l),
(413,235,l),
(481,224,l),
(483,207,o),
(485,171,o),
(485,128,cs),
(485,23,l),
(509,79,l),
(473,53,o),
(423,43,o),
(385,43,cs),
(255,43,o),
(155,136,o),
(155,307,cs),
(155,436,o),
(220,545,o),
(375,545,cs),
(412,545,o),
(459,537,o),
(485,519,c),
(514,430,l),
(558,434,l),
(552,565,l),
(506,585,o),
(438,596,o),
(383,596,cs),
(173,596,o),
(51,456,o),
(51,288,cs),
(51,92,o),
(192,-9,o),
(374,-9,cs)
);
}
);
width = 648;
}
);
note = G;
unicode = 71;
},
{
glyphname = H;
kernLeft = H;
kernRight = H;
layers = (
{
anchors = (
{
name = bottom;
pos = (363,0);
},
{
name = center;
pos = (363,434);
},
{
name = top;
pos = (363,587);
},
{
name = topleft;
pos = (33,587);
}
);
background = {
anchors = (
{
name = bottom;
pos = (364,0);
},
{
name = center;
pos = (364,434);
},
{
name = top;
pos = (364,587);
},
{
name = topleft;
pos = (34,587);
}
);
shapes = (
{
closed = 1;
nodes = (
(695,0,l),
(699,57,l),
(633,76,l),
(630,87,o),
(625,182,o),
(625,234,cs),
(625,354,ls),
(625,408,o),
(630,503,o),
(633,513,c),
(699,530,l),
(695,587,l),
(392,587,l),
(388,530,l),
(451,513,l),
(454,503,o),
(458,422,o),
(458,354,cs),
(458,234,ls),
(458,167,o),
(454,87,o),
(451,76,c),
(388,57,l),
(392,0,l)
);
},
{
closed = 1;
nodes = (
(337,0,l),
(340,57,l),
(278,76,l),
(274,87,o),
(271,167,o),
(271,234,cs),
(271,354,ls),
(271,422,o),
(274,503,o),
(278,513,c),
(340,530,l),
(337,587,l),
(34,587,l),
(31,530,l),
(96,513,l),
(100,507,o),
(104,431,o),
(104,354,cs),
(104,234,ls),
(104,158,o),
(100,83,o),
(96,76,c),
(31,57,l),
(34,0,l)
);
},
{
closed = 1;
nodes = (
(268,255,o),
(304,259,o),
(364,259,cs),
(424,259,o),
(462,255,o),
(488,255,c),
(488,342,l),
(451,338,o),
(420,337,o),
(364,337,cs),
(308,337,o),
(277,338,o),
(240,342,c),
(240,255,l)
);
}
);
};
layerId = "722FC537-28B1-4F35-B842-D78FAAB5B143";
shapes = (
{
closed = 1;
nodes = (
(694,0,l),
(697,57,l),
(632,76,l),
(629,87,o),
(624,182,o),
(624,234,cs),
(624,354,ls),
(624,408,o),
(629,503,o),
(632,513,c),
(697,530,l),
(694,587,l),
(391,587,l),
(388,530,l),
(450,513,l),
(453,503,o),
(457,422,o),
(457,354,cs),
(457,234,ls),
(457,167,o),
(453,87,o),
(450,76,c),
(388,57,l),
(391,0,l)
);
},
{
closed = 1;
nodes = (
(336,0,l),
(339,57,l),
(277,76,l),
(273,87,o),
(270,167,o),
(270,234,cs),
(270,354,ls),
(270,422,o),
(273,503,o),
(277,513,c),
(339,530,l),
(336,587,l),
(33,587,l),
(30,530,l),
(95,513,l),
(99,507,o),
(103,431,o),
(103,354,cs),
(103,234,ls),
(103,158,o),
(99,83,o),
(95,76,c),
(30,57,l),
(33,0,l)
);
},
{
closed = 1;
nodes = (
(267,255,o),
(303,259,o),
(363,259,cs),
(423,259,o),
(461,255,o),
(487,255,c),
(487,342,l),
(450,338,o),
(419,337,o),
(363,337,cs),
(307,337,o),
(276,338,o),
(239,342,c),
(239,255,l)
);
}
);
width = 728;
},
{
anchors = (
{
name = bottom;
pos = (336,0);
},
{
name = center;
pos = (336,434);
},
{
name = top;
pos = (336,587);
},
{
name = topleft;
pos = (25,587);
}
);
layerId = "A0F5A844-D88E-40D3-8473-9812906C4A28";
shapes = (
{
closed = 1;
nodes = (
(624,0,l),
(627,38,l),
(565,52,l),
(561,60,o),
(559,103,o),
(559,199,cs),
(559,387,ls),
(559,485,o),
(561,528,o),
(565,535,c),
(627,549,l),
(624,587,l),
(409,587,l),
(407,549,l),
(468,535,l),
(472,528,o),
(474,485,o),
(474,387,cs),
(474,199,ls),
(474,103,o),
(472,60,o),
(468,52,c),
(407,38,l),
(409,0,l)
);
},
{
closed = 1;
nodes = (
(262,0,l),
(264,38,l),
(203,52,l),
(199,60,o),
(197,103,o),
(197,199,cs),
(197,387,ls),
(197,485,o),
(199,528,o),
(203,535,c),
(264,549,l),
(262,587,l),
(49,587,l),
(46,549,l),
(108,535,l),
(111,527,o),
(112,477,o),
(112,387,cs),
(112,199,ls),
(112,111,o),
(111,61,o),
(108,52,c),
(46,38,l),
(49,0,l)
);
},
{
closed = 1;
nodes = (
(214,275,o),
(260,276,o),
(337,276,cs),
(412,276,o),
(455,275,o),
(485,272,c),
(485,331,l),
(461,329,o),
(409,328,o),
(337,328,cs),
(263,328,o),
(211,329,o),
(185,331,c),
(185,272,l)
);
}
);
width = 672;
}
);
note = H;
unicode = 72;
},
{
glyphname = I;
kernLeft = H;
kernRight = H;
layers = (
{
anchors = (
{
name = bottom;
pos = (187,0);
},
{
name = ogonek;
pos = (270,0);
},
{
name = top;
pos = (187,587);
},
{
name = topleft;
pos = (33,587);
}
);
background = {
anchors = (
{
name = bottom;
pos = (188,0);
},
{
name = ogonek;
pos = (271,0);
},
{
name = top;
pos = (188,587);
},
{
name = topleft;
pos = (34,587);
}
);
shapes = (
{
closed = 1;
nodes = (
(340,0,l),
(343,57,l),
(278,76,l),
(274,87,o),
(271,167,o),
(271,234,cs),
(271,354,ls),
(271,422,o),
(274,503,o),
(278,513,c),
(343,530,l),
(340,587,l),
(34,587,l),
(31,530,l),
(96,513,l),
(100,507,o),
(104,431,o),
(104,354,cs),
(104,234,ls),
(104,158,o),
(100,83,o),
(96,76,c),
(31,57,l),
(34,0,l)
);
}
);
};
layerId = "722FC537-28B1-4F35-B842-D78FAAB5B143";
shapes = (
{
closed = 1;
nodes = (
(339,0,l),
(342,57,l),
(277,76,l),
(273,87,o),
(270,167,o),
(270,234,cs),
(270,354,ls),
(270,422,o),
(273,503,o),
(277,513,c),
(342,530,l),
(339,587,l),
(33,587,l),
(30,530,l),
(95,513,l),
(99,507,o),
(103,431,o),
(103,354,cs),
(103,234,ls),
(103,158,o),
(99,83,o),
(95,76,c),
(30,57,l),
(33,0,l)
);
}
);
width = 374;
},
{
anchors = (
{
name = bottom;
pos = (155,0);
},
{
name = ogonek;
pos = (212,0);
},
{
name = top;
pos = (155,587);
},
{
name = topleft;
pos = (25,587);
}
);
layerId = "A0F5A844-D88E-40D3-8473-9812906C4A28";
shapes = (
{
closed = 1;
nodes = (
(262,0,l),
(264,38,l),
(203,52,l),
(199,60,o),
(197,103,o),
(197,199,cs),
(197,387,ls),
(197,485,o),
(199,528,o),
(203,535,c),
(264,549,l),
(262,587,l),
(49,587,l),
(47,549,l),
(108,535,l),
(111,527,o),
(112,477,o),
(112,387,cs),
(112,199,ls),
(112,111,o),
(111,61,o),
(108,52,c),
(47,38,l),
(49,0,l)
);
}
);
width = 310;
}
);
note = I;
unicode = 73;
},
{
glyphname = Iogonek;
kernLeft = H;
kernRight = H;
layers = (
{
anchors = (
{
name = top;
pos = (187,587);
},
{
name = topleft;
pos = (34,587);
}
);
background = {
anchors = (
{
name = top;
pos = (788,587);
},
{
name = topleft;
pos = (635,587);
}
);
shapes = (
{
closed = 1;
nodes = (
(871,354,ls),
(871,419,o),
(875,502,o),
(878,512,c),
(944,530,l),
(940,587,l),
(635,587,l),
(631,530,l),
(697,512,l),
(701,506,o),
(704,432,o),
(704,354,cs),
(704,234,ls),
(704,157,o),
(701,83,o),
(697,76,c),
(631,57,l),
(635,0,l),
(826,0,l),
(838,16,l),
(718,-11,o),
(651,-59,o),
(651,-120,cs),
(651,-181,o),
(710,-223,o),
(790,-223,cs),
(840,-223,o),
(881,-207,o),
(913,-173,c),
(883,-127,l),
(863,-148,o),
(838,-161,o),
(816,-161,cs),
(785,-161,o),
(764,-138,o),
(764,-106,cs),
(764,-51,o),
(848,0,o),
(940,0,c),
(944,57,l),
(878,76,l),
(875,87,o),
(871,171,o),
(871,234,cs)
);
},
{
closed = 1;
nodes = (
(340,0,l),
(343,57,l),
(278,76,l),
(274,87,o),
(271,167,o),
(271,234,cs),
(271,354,ls),
(271,422,o),
(274,503,o),
(278,513,c),
(343,530,l),
(340,587,l),
(34,587,l),
(31,530,l),
(96,513,l),
(100,507,o),
(104,431,o),
(104,354,cs),
(104,234,ls),
(104,158,o),
(100,83,o),
(96,76,c),
(31,57,l),
(34,0,l)
);
}
);
};
layerId = "722FC537-28B1-4F35-B842-D78FAAB5B143";
shapes = (
{
closed = 1;
nodes = (
(270,354,ls),
(270,419,o),
(274,503,o),
(277,513,c),
(342,530,l),
(339,587,l),
(33,587,l),
(30,530,l),
(95,513,l),
(99,507,o),
(103,432,o),
(103,354,cs),
(103,234,ls),
(103,157,o),
(99,83,o),
(95,76,c),
(30,57,l),
(33,0,l),
(225,0,l),
(237,16,l),
(117,-11,o),
(50,-59,o),
(50,-120,cs),
(50,-181,o),
(109,-223,o),
(189,-223,cs),
(239,-223,o),
(280,-207,o),
(312,-173,c),
(282,-127,l),
(262,-148,o),
(237,-161,o),
(215,-161,cs),
(184,-161,o),
(163,-138,o),
(163,-106,cs),
(163,-51,o),
(247,0,o),
(339,0,c),
(342,57,l),
(277,76,l),
(274,87,o),
(270,171,o),
(270,234,cs)
);
}
);
width = 374;
},
{
anchors = (
{
name = top;
pos = (156,587);
},
{
name = topleft;
pos = (26,587);
}
);
layerId = "A0F5A844-D88E-40D3-8473-9812906C4A28";
shapes = (
{
closed = 1;
nodes = (
(197,387,ls),
(197,483,o),
(199,528,o),
(203,535,c),
(264,549,l),
(262,587,l),
(49,587,l),
(47,549,l),
(108,535,l),
(111,527,o),
(112,476,o),
(112,387,cs),
(112,199,ls),
(112,111,o),
(111,61,o),
(108,52,c),
(47,38,l),
(49,0,l),
(194,0,l),
(190,11,l),
(100,-6,o),
(43,-59,o),
(43,-125,cs),
(43,-181,o),
(92,-223,o),
(158,-223,cs),
(196,-223,o),
(233,-205,o),
(258,-173,c),
(235,-147,l),
(213,-170,o),
(192,-181,o),
(170,-181,cs),
(134,-181,o),
(114,-157,o),
(114,-115,cs),
(114,-51,o),
(180,0,o),
(262,0,c),
(264,38,l),
(204,52,l),
(199,60,o),
(197,105,o),
(197,199,cs)
);
}
);
width = 310;
}
);
metricWidth = I;
note = Iogonek;
unicode = 302;
},
{
glyphname = J;
kernLeft = J;
kernRight = J;
layers = (
{
anchors = (
{
name = top;
pos = (187,587);
}
);
background = {
anchors = (
{
name = top;
pos = (188,587);
}
);
shapes = (
{
closed = 1;
nodes = (
(343,530,l),
(340,587,l),
(27,587,l),
(24,530,l),
(96,515,l),
(100,504,o),
(104,425,o),
(104,360,c),
(106,-18,l),
(106,-134,o),
(104,-146,o),
(61,-139,c),
(130,-164,l),
(47,-88,ls),
(18,-61,o),
(-5,-49,o),
(-34,-49,cs),
(-67,-49,o),
(-90,-74,o),
(-90,-112,cs),
(-90,-167,o),
(-27,-203,o),
(69,-203,cs),
(191,-203,o),
(273,-124,o),
(273,-4,c),
(271,357,l),
(271,430,o),
(274,504,o),
(278,513,c)
);
}
);
};
layerId = "722FC537-28B1-4F35-B842-D78FAAB5B143";
shapes = (
{
closed = 1;
nodes = (
(342,530,l),
(339,587,l),
(26,587,l),
(23,530,l),
(95,515,l),
(99,504,o),
(103,425,o),
(103,360,c),
(105,-18,l),
(105,-134,o),
(103,-146,o),
(60,-139,c),
(129,-164,l),
(46,-88,ls),
(17,-61,o),
(-6,-49,o),
(-35,-49,cs),
(-66,-49,o),
(-93,-74,o),
(-93,-111,cs),
(-93,-167,o),
(-28,-203,o),
(68,-203,cs),
(190,-203,o),
(272,-124,o),
(272,-4,c),
(270,357,l),
(270,430,o),
(273,504,o),
(277,513,c)
);
}
);
width = 374;
},
{
anchors = (
{
name = top;
pos = (155,587);
}
);
layerId = "A0F5A844-D88E-40D3-8473-9812906C4A28";
shapes = (
{
closed = 1;
nodes = (
(264,549,l),
(262,587,l),
(42,587,l),
(40,549,l),
(108,535,l),
(111,524,o),
(112,474,o),
(112,387,c),
(112,-27,l),
(112,-131,o),
(88,-171,o),
(31,-161,c),
(66,-173,l),
(14,-121,ls),
(-4,-103,o),
(-20,-95,o),
(-38,-95,cs),
(-62,-95,o),
(-77,-110,o),
(-77,-132,cs),
(-77,-170,o),
(-25,-203,o),
(37,-203,cs),
(137,-203,o),
(198,-125,o),
(198,16,c),
(197,387,l),
(197,483,o),
(199,528,o),
(203,535,c)
);
}
);
width = 310;
}
);
note = J;
unicode = 74;
},
{
glyphname = K;
kernLeft = H;
kernRight = K;
layers = (
{
anchors = (
{
name = bottom;
pos = (345,0);
},
{
name = top;
pos = (345,587);
}
);
background = {
anchors = (
{
name = bottom;
pos = (346,0);
},
{
name = top;
pos = (346,587);
}
);
shapes = (
{
closed = 1;
nodes = (
(718,0,l),
(718,58,l),
(665,64,l),
(658,72,o),
(645,83,o),
(590,151,cs),
(396,392,l),
(404,340,l),
(609,517,l),
(682,528,l),
(679,587,l),
(429,587,l),
(426,530,l),
(491,519,l),
(285,309,l),
(251,303,l),
(251,250,l),
(287,250,l),
(392,115,ls),
(412,88,o),
(415,82,o),
(422,67,c),
(375,57,l),
(379,0,l)
);
},
{
closed = 1;
nodes = (
(320,0,l),
(323,57,l),
(277,76,l),
(274,83,o),
(272,152,o),
(272,234,cs),
(272,354,ls),
(272,423,o),
(275,501,o),
(279,511,c),
(344,530,l),
(341,587,l),
(35,587,l),
(32,530,l),
(97,511,l),
(101,505,o),
(105,431,o),
(105,354,cs),
(105,234,ls),
(105,152,o),
(103,83,o),
(100,76,c),
(35,57,l),
(38,0,l)
);
}
);
};
layerId = "722FC537-28B1-4F35-B842-D78FAAB5B143";
shapes = (
{
closed = 1;
nodes = (
(717,0,l),
(717,58,l),
(664,64,l),
(657,72,o),
(644,83,o),
(589,151,cs),
(395,392,l),
(403,340,l),
(608,517,l),
(681,528,l),
(678,587,l),
(428,587,l),
(425,530,l),
(490,519,l),
(284,309,l),
(250,303,l),
(250,250,l),
(286,250,l),
(391,115,ls),
(411,88,o),
(414,82,o),
(421,67,c),
(374,57,l),
(379,0,l)
);
},
{
closed = 1;
nodes = (
(319,0,l),
(322,57,l),
(276,76,l),
(273,83,o),
(271,152,o),
(271,234,cs),
(271,354,ls),
(271,423,o),
(274,501,o),
(278,511,c),
(343,530,l),
(340,587,l),
(34,587,l),
(31,530,l),
(96,511,l),
(100,505,o),
(104,431,o),
(104,354,cs),
(104,234,ls),
(104,152,o),
(102,83,o),
(99,76,c),
(34,57,l),
(37,0,l)
);
}
);
width = 704;
},
{
anchors = (
{
name = bottom;
pos = (316,0);
},
{
name = top;
pos = (316,587);
}
);
layerId = "A0F5A844-D88E-40D3-8473-9812906C4A28";
shapes = (
{
closed = 1;
nodes = (
(596,0,l),
(596,39,l),
(546,51,l),
(531,65,o),
(510,89,o),
(477,126,cs),
(286,339,l),
(283,309,l),
(524,537,l),
(582,547,l),
(580,587,l),
(387,587,l),
(385,549,l),
(446,536,l),
(240,323,l),
(187,309,l),
(187,272,l),
(229,272,l),
(382,98,ls),
(399,79,o),
(411,62,o),
(421,48,c),
(361,38,l),
(363,0,l)
);
},
{
closed = 1;
nodes = (
(260,0,l),
(263,38,l),
(202,52,l),
(200,61,o),
(198,111,o),
(198,199,cs),
(198,387,ls),
(198,483,o),
(200,528,o),
(204,535,c),
(265,549,l),
(263,587,l),
(50,587,l),
(47,549,l),
(109,535,l),
(112,527,o),
(113,477,o),
(113,387,cs),
(113,199,ls),
(113,111,o),
(111,61,o),
(109,52,c),
(48,38,l),
(51,0,l)
);
}
);
width = 588;
}
);
note = K;
unicode = 75;
},
{
glyphname = L;
kernLeft = H;
kernRight = L;
layers = (
{
anchors = (
{
name = bottom;
pos = (312,0);
},
{
name = center;
pos = (211,303);
},
{
name = dotacc;
pos = (415,320);
},
{
name = top;
pos = (186,587);
},
{
name = topright;
pos = (395,587);
}
);
background = {
anchors = (
{
name = bottom;
pos = (313,0);
},
{
name = center;
pos = (212,303);
},
{
name = dotacc;
pos = (416,320);
},
{
name = top;
pos = (187,587);
},
{
name = topright;
pos = (396,587);
}
);
shapes = (
{
closed = 1;
nodes = (
(575,189,l),
(503,207,l),
(445,91,l),
(435,88,o),
(432,84,o),
(374,84,cs),
(374,84,ls),
(326,84,o),
(302,85,o),
(277,89,c),
(273,109,o),
(272,149,o),
(272,234,cs),
(272,354,ls),
(272,428,o),
(276,503,o),
(279,510,c),
(362,528,l),
(358,587,l),
(35,587,l),
(31,530,l),
(97,512,l),
(101,502,o),
(104,423,o),
(104,354,cs),
(104,234,ls),
(104,168,o),
(101,86,o),
(97,76,c),
(31,57,l),
(35,0,l),
(327,0,l),
(363,0,o),
(469,-4,o),
(521,-8,c)
);
}
);
};
layerId = "722FC537-28B1-4F35-B842-D78FAAB5B143";
shapes = (
{
closed = 1;
nodes = (
(574,189,l),
(502,207,l),
(444,91,l),
(434,88,o),
(406,84,o),
(383,84,cs),
(363,84,ls),
(325,84,o),
(301,85,o),
(276,89,c),
(272,109,o),
(271,149,o),
(271,234,cs),
(271,354,ls),
(271,428,o),
(275,503,o),
(278,510,c),
(361,528,l),
(358,587,l),
(34,587,l),
(31,530,l),
(96,512,l),
(100,502,o),
(103,423,o),
(103,354,cs),
(103,234,ls),
(103,168,o),
(100,86,o),
(96,76,c),
(31,57,l),
(34,0,l),
(326,0,l),
(362,0,o),
(458,-2,o),
(520,-8,c)
);
}
);
width = 581;
},
{
anchors = (
{
name = bottom;
pos = (279,0);
},
{
name = center;
pos = (192,303);
},
{
name = dotacc;
pos = (345.99,320);
},
{
name = top;
pos = (156,587);
},
{
name = topright;
pos = (365,587);
}
);
layerId = "A0F5A844-D88E-40D3-8473-9812906C4A28";
shapes = (
{
closed = 1;
nodes = (
(508,148,l),
(463,158,l),
(411,60,l),
(390,57,o),
(370,56,o),
(340,56,cs),
(265,56,ls),
(239,56,o),
(220,57,o),
(202,59,c),
(200,73,o),
(199,130,o),
(199,199,cs),
(199,387,ls),
(199,483,o),
(201,527,o),
(205,534,c),
(288,547,l),
(285,587,l),
(50,587,l),
(48,549,l),
(109,534,l),
(113,526,o),
(113,476,o),
(113,387,cs),
(113,199,ls),
(113,111,o),
(111,61,o),
(109,52,c),
(48,38,l),
(50,0,l),
(370,0,l),
(397,0,o),
(439,-2,o),
(467,-5,c)
);
}
);
width = 511;
}
);
note = L;
unicode = 76;
},
{
glyphname = M;
kernLeft = H;
kernRight = H;
layers = (
{
anchors = (
{
name = bottom;
pos = (424,0);
},
{
name = top;
pos = (424,587);
}
);
background = {
anchors = (
{
name = bottom;
pos = (425,0);
},
{
name = top;
pos = (425,587);
}
);
shapes = (
{
closed = 1;
nodes = (
(42,530,l),
(108,511,l),
(107,516,o),
(108,503,o),
(107,390,cs),
(106,203,ls),
(105,160,o),
(101,85,o),
(99,76,c),
(28,57,l),
(32,0,l),
(265,0,l),
(269,57,l),
(198,76,l),
(196,80,o),
(195,114,o),
(195,210,cs),
(194,558,l),
(107,558,l),
(387,-3,l),
(468,-3,l),
(704,558,l),
(645,558,l),
(649,231,ls),
(650,155,o),
(649,82,o),
(645,76,c),
(579,57,l),
(583,0,l),
(894,0,l),
(898,57,l),
(832,76,l),
(831,77,o),
(824,149,o),
(819,223,cs),
(812,393,ls),
(808,489,o),
(808,505,o),
(810,512,c),
(876,530,l),
(874,587,l),
(630,587,l),
(452,166,l),
(488,166,l),
(279,587,l),
(46,587,l)
);
}
);
};
layerId = "722FC537-28B1-4F35-B842-D78FAAB5B143";
shapes = (
{
closed = 1;
nodes = (
(42,530,l),
(107,511,l),
(107,496,o),
(107,453,o),
(106,390,cs),
(104,213,ls),
(103,160,o),
(102,85,o),
(100,76,c),
(29,57,l),
(32,0,l),
(265,0,l),
(268,57,l),
(197,76,l),
(195,80,o),
(194,114,o),
(194,210,cs),
(193,558,l),
(106,558,l),
(386,-3,l),
(467,-3,l),
(703,558,l),
(644,558,l),
(648,231,ls),
(649,155,o),
(648,82,o),
(645,76,c),
(580,57,l),
(583,0,l),
(892,0,l),
(895,57,l),
(830,76,l),
(828,80,o),
(821,149,o),
(818,223,cs),
(811,393,ls),
(809,449,o),
(808,485,o),
(809,512,c),
(874,530,l),
(871,587,l),
(629,587,l),
(451,166,l),
(487,166,l),
(278,587,l),
(45,587,l)
);
}
);
width = 922;
},
{
anchors = (
{
name = bottom;
pos = (413,0);
},
{
name = top;
pos = (413,587);
}
);
layerId = "A0F5A844-D88E-40D3-8473-9812906C4A28";
shapes = (
{
closed = 1;
nodes = (
(54,549,l),
(115,535,l),
(115,512,o),
(116,460,o),
(115,401,cs),
(112,203,ls),
(111,116,o),
(110,66,o),
(108,52,c),
(40,38,l),
(43,0,l),
(239,0,l),
(242,38,l),
(174,52,l),
(173,64,o),
(172,108,o),
(172,219,cs),
(171,559,l),
(145,559,l),
(393,-3,l),
(428,-3,l),
(670,558,l),
(644,558,l),
(646,203,ls),
(647,103,o),
(647,74,o),
(646,51,c),
(585,38,l),
(588,0,l),
(800,0,l),
(802,38,l),
(741,51,l),
(739,71,o),
(737,118,o),
(735,218,c),
(731,401,ls),
(730,460,o),
(729,517,o),
(730,536,c),
(792,549,l),
(789,587,l),
(627,587,l),
(421,108,l),
(439,108,l),
(229,587,l),
(56,587,l)
);
}
);
width = 850;
}
);
note = M;
unicode = 77;
},
{
glyphname = N;
kernLeft = H;
kernRight = N;
layers = (
{
anchors = (
{
name = bottom;
pos = (358,0);
},
{
name = top;
pos = (358,587);
}
);
background = {
anchors = (
{
name = bottom;
pos = (359,0);
},
{
name = top;
pos = (359,587);
}
);
shapes = (
{
closed = 1;
nodes = (
(586,210,l),
(208,587,l),
(36,587,l),
(32,530,l),
(98,511,l),
(100,514,o),
(105,417,o),
(105,394,cs),
(105,286,ls),
(105,196,o),
(102,89,o),
(98,76,c),
(32,57,l),
(36,0,l),
(269,0,l),
(272,57,l),
(201,76,l),
(194,90,o),
(193,185,o),
(193,286,cs),
(193,442,l),
(119,442,l),
(543,-6,l),
(614,-6,l),
(614,41,o),
(615,85,o),
(615,159,cs),
(615,320,ls),
(615,405,o),
(617,501,o),
(622,511,c),
(687,530,l),
(684,587,l),
(457,587,l),
(453,530,l),
(524,511,l),
(529,501,o),
(531,404,o),
(531,320,cs),
(531,210,l)
);
}
);
};
layerId = "722FC537-28B1-4F35-B842-D78FAAB5B143";
shapes = (
{
closed = 1;
nodes = (
(585,210,l),
(207,587,l),
(35,587,l),
(32,530,l),
(97,511,l),
(99,494,o),
(104,417,o),
(104,394,cs),
(104,286,ls),
(104,196,o),
(101,89,o),
(97,76,c),
(32,57,l),
(35,0,l),
(268,0,l),
(271,57,l),
(200,76,l),
(193,90,o),
(192,185,o),
(192,286,cs),
(192,442,l),
(118,442,l),
(542,-6,l),
(613,-6,l),
(613,41,o),
(614,85,o),
(614,159,cs),
(614,320,ls),
(614,405,o),
(616,501,o),
(621,511,c),
(686,530,l),
(683,587,l),
(455,587,l),
(452,530,l),
(523,511,l),
(528,501,o),
(530,404,o),
(530,320,cs),
(530,210,l)
);
}
);
width = 719;
},
{
anchors = (
{
name = bottom;
pos = (338,0);
},
{
name = top;
pos = (338,587);
}
);
color = 3;
layerId = "A0F5A844-D88E-40D3-8473-9812906C4A28";
shapes = (
{
closed = 1;
nodes = (
(523,143,l),
(187,587,l),
(50,587,l),
(47,549,l),
(108,535,l),
(111,523,o),
(114,484,o),
(114,394,cs),
(114,223,ls),
(114,103,o),
(110,59,o),
(108,52,c),
(47,38,l),
(50,0,l),
(242,0,l),
(245,38,l),
(177,52,l),
(175,59,o),
(171,103,o),
(171,223,cs),
(171,491,l),
(149,491,l),
(517,-4,l),
(562,-4,l),
(561,43,o),
(561,87,o),
(561,129,cs),
(561,367,ls),
(561,484,o),
(565,529,o),
(566,535,c),
(628,549,l),
(625,587,l),
(435,587,l),
(432,549,l),
(500,535,l),
(502,529,o),
(505,484,o),
(505,367,cs),
(505,143,l)
);
}
);
width = 674;
}
);
note = N;
unicode = 78;
},
{
glyphname = Eng;
kernLeft = H;
kernRight = J;
layers = (
{
background = {
shapes = (
{
closed = 1;
nodes = (
(586,210,l),
(208,587,l),
(36,587,l),
(33,530,l),
(98,511,l),
(100,494,o),
(105,417,o),
(105,394,cs),
(105,286,ls),
(105,196,o),
(102,89,o),
(98,76,c),
(33,57,l),
(36,0,l),
(269,0,l),
(272,57,l),
(201,76,l),
(194,90,o),
(193,185,o),
(193,286,cs),
(193,442,l),
(119,442,l),
(543,-6,l),
(614,-6,l),
(614,41,o),
(615,85,o),
(615,159,cs),
(615,320,ls),
(615,405,o),
(617,501,o),
(622,511,c),
(687,530,l),
(684,587,l),
(456,587,l),
(453,530,l),
(524,511,l),
(529,501,o),
(531,404,o),
(531,320,cs),
(531,210,l)
);
}
);
};
layerId = "722FC537-28B1-4F35-B842-D78FAAB5B143";
shapes = (
{
closed = 1;
nodes = (
(557,-203,o),
(614,-121,o),
(614,65,cs),
(614,320,ls),
(614,431,o),
(617,502,o),
(621,511,c),
(686,530,l),
(683,587,l),
(456,587,l),
(452,530,l),
(523,511,l),
(527,502,o),
(530,420,o),
(530,320,cs),
(530,210,l),
(585,210,l),
(207,587,l),
(35,587,l),
(32,530,l),
(97,511,l),
(99,495,o),
(104,436,o),
(104,394,cs),
(104,286,ls),
(104,174,o),
(101,87,o),
(97,76,c),
(32,57,l),
(35,0,l),
(268,0,l),
(271,57,l),
(200,76,l),
(193,90,o),
(192,178,o),
(192,286,cs),
(192,442,l),
(118,442,l),
(542,-6,l),
(530,89,l),
(530,-10,ls),
(530,-96,o),
(492,-144,o),
(431,-134,c),
(495,-162,l),
(409,-85,ls),
(377,-56,o),
(355,-45,o),
(326,-45,cs),
(291,-45,o),
(267,-69,o),
(267,-104,cs),
(267,-162,o),
(335,-203,o),
(416,-203,cs)
);
}
);
width = 719;
},
{
color = 3;
layerId = "A0F5A844-D88E-40D3-8473-9812906C4A28";
shapes = (
{
closed = 1;
nodes = (
(501,-203,o),
(561,-119,o),
(561,16,cs),
(561,367,ls),
(561,485,o),
(565,529,o),
(566,535,c),
(627,549,l),
(625,587,l),
(435,587,l),
(432,549,l),
(500,535,l),
(502,529,o),
(505,485,o),
(505,367,cs),
(505,143,l),
(523,143,l),
(187,587,l),
(50,587,l),
(47,549,l),
(108,535,l),
(111,523,o),
(114,485,o),
(114,394,cs),
(114,223,ls),
(114,108,o),
(110,59,o),
(108,52,c),
(47,38,l),
(50,0,l),
(242,0,l),
(245,38,l),
(177,52,l),
(175,60,o),
(171,108,o),
(171,223,cs),
(171,491,l),
(149,491,l),
(517,-4,l),
(504,80,l),
(504,-3,ls),
(504,-102,o),
(458,-169,o),
(394,-158,c),
(438,-171,l),
(383,-118,ls),
(363,-99,o),
(346,-91,o),
(328,-91,cs),
(303,-91,o),
(287,-105,o),
(287,-128,cs),
(287,-167,o),
(339,-203,o),
(400,-203,cs)
);
}
);
width = 674;
}
);
metricLeft = N;
metricWidth = N;
note = Eng;
unicode = 330;
},
{
glyphname = O;
kernLeft = O;
kernRight = O;
layers = (
{
anchors = (
{
name = bottom;
pos = (363,0);
},
{
name = center;
pos = (363,294);
},
{
name = ogonek;
pos = (438,0);
},
{
name = top;
pos = (363,587);
},
{
name = topleft;
pos = (17,587);
},
{
name = topright;
pos = (708,587);
}
);
background = {
anchors = (
{
name = bottom;
pos = (364,0);
},
{
name = center;
pos = (364,294);
},
{
name = ogonek;
pos = (439,0);
},
{
name = top;
pos = (364,587);
},
{
name = topleft;
pos = (18,587);
},
{
name = topright;
pos = (709,587);
}
);
shapes = (
{
closed = 1;
nodes = (
(491,-9,o),
(685,80,o),
(685,304,cs),
(685,476,o),
(555,596,o),
(370,596,cs),
(179,596,o),
(42,464,o),
(42,283,cs),
(42,114,o),
(181,-9,o),
(371,-9,cs)
);
},
{
closed = 1;
nodes = (
(292,78,o),
(235,177,o),
(235,319,cs),
(235,445,o),
(282,519,o),
(358,519,cs),
(441,519,o),
(493,426,o),
(493,277,cs),
(493,147,o),
(458,78,o),
(377,78,cs)
);
}
);
};
layerId = "722FC537-28B1-4F35-B842-D78FAAB5B143";
shapes = (
{
closed = 1;
nodes = (
(490,-9,o),
(684,80,o),
(684,304,cs),
(684,476,o),
(554,596,o),
(369,596,cs),
(178,596,o),
(41,464,o),
(41,283,cs),
(41,114,o),
(180,-9,o),
(370,-9,cs)
);
},
{
closed = 1;
nodes = (
(291,78,o),
(234,177,o),
(234,319,cs),
(234,445,o),
(281,519,o),
(357,519,cs),
(440,519,o),
(492,426,o),
(492,277,cs),
(492,147,o),
(457,78,o),
(376,78,cs)
);
}
);
width = 726;
},
{
anchors = (
{
name = bottom;
pos = (343,0);
},
{
name = center;
pos = (343,294);
},
{
name = ogonek;
pos = (417,0);
},
{
name = top;
pos = (343,587);
},
{
name = topleft;
pos = (17,587);
},
{
name = topright;
pos = (669,587);
}
);
layerId = "A0F5A844-D88E-40D3-8473-9812906C4A28";
shapes = (
{
closed = 1;
nodes = (
(503,-9,o),
(636,119,o),
(636,298,cs),
(636,474,o),
(519,596,o),
(351,596,cs),
(178,596,o),
(51,466,o),
(51,291,cs),
(51,114,o),
(174,-9,o),
(349,-9,cs)
);
},
{
closed = 1;
nodes = (
(240,45,o),
(155,155,o),
(155,310,cs),
(155,456,o),
(225,546,o),
(339,546,cs),
(456,546,o),
(535,435,o),
(535,274,cs),
(535,134,o),
(466,45,o),
(358,45,cs)
);
}
);
width = 686;
}
);
note = O;
unicode = 79;
},
{
glyphname = Ohorn;
kernLeft = O;
kernRight = O;
layers = (
{
anchors = (
{
name = bottom;
pos = (363,0);
},
{
name = center;
pos = (363,294);
},
{
name = top;
pos = (363,587);
},
{
name = topleft;
pos = (17,587);
}
);
background = {
anchors = (
{
name = bottom;
pos = (364,0);
},
{
name = center;
pos = (364,294);
},
{
name = top;
pos = (364,587);
},
{
name = topleft;
pos = (18,587);
}
);
shapes = (
{
closed = 1;
nodes = (
(723,725,o),
(662,730,o),
(594,723,c),
(592,657,ls),
(590,619,o),
(561,581,o),
(515,581,cs),
(487,581,o),
(438,596,o),
(380,596,cs),
(179,596,o),
(42,464,o),
(42,283,cs),
(42,114,o),
(181,-9,o),
(371,-9,cs),
(491,-9,o),
(685,80,o),
(685,304,cs),
(685,409,o),
(635,493,o),
(559,542,c),
(470,529,l),
(614,489,o),
(723,566,o),
(723,656,cs)
);
},
{
closed = 1;
nodes = (
(292,78,o),
(235,177,o),
(235,319,cs),
(235,445,o),
(282,519,o),
(358,519,cs),
(441,519,o),
(493,426,o),
(493,277,cs),
(493,143,o),
(457,78,o),
(377,78,cs)
);
}
);
};
layerId = "722FC537-28B1-4F35-B842-D78FAAB5B143";
shapes = (
{
closed = 1;
nodes = (
(722,725,o),
(661,730,o),
(593,723,c),
(591,657,ls),
(590,619,o),
(560,581,o),
(514,581,cs),
(486,581,o),
(437,596,o),
(379,596,cs),
(178,596,o),
(41,464,o),
(41,283,cs),
(41,114,o),
(180,-9,o),
(370,-9,cs),
(490,-9,o),
(684,80,o),
(684,304,cs),
(684,409,o),
(634,493,o),
(558,542,c),
(469,529,l),
(613,489,o),
(722,566,o),
(722,656,cs)
);
},
{
closed = 1;
nodes = (
(291,78,o),
(234,177,o),
(234,319,cs),
(234,445,o),
(281,519,o),
(357,519,cs),
(440,519,o),
(492,426,o),
(492,277,cs),
(492,143,o),
(456,78,o),
(376,78,cs)
);
}
);
width = 726;
},
{
anchors = (
{
name = bottom;
pos = (343,0);
},
{
name = center;
pos = (343,294);
},
{
name = top;
pos = (343,587);
},
{
name = topleft;
pos = (17,587);
}
);
layerId = "A0F5A844-D88E-40D3-8473-9812906C4A28";
shapes = (
{
closed = 1;
nodes = (
(666,703,o),
(626,719,o),
(575,710,c),
(573,659,ls),
(571,600,o),
(545,579,o),
(501,579,cs),
(462,579,o),
(416,596,o),
(354,596,cs),
(178,596,o),
(51,466,o),
(51,291,cs),
(51,114,o),
(174,-9,o),
(349,-9,cs),
(503,-9,o),
(636,119,o),
(636,298,cs),
(636,412,o),
(586,504,o),
(505,555,c),
(474,534,l),
(601,513,o),
(666,593,o),
(666,651,cs)
);
},
{
closed = 1;
nodes = (
(240,45,o),
(155,155,o),
(155,310,cs),
(155,456,o),
(225,546,o),
(339,546,cs),
(456,546,o),
(535,435,o),
(535,274,cs),
(535,134,o),
(466,45,o),
(358,45,cs)
);
}
);
width = 686;
}
);
metricLeft = O;
metricWidth = O;
note = Ohorn;
unicode = 416;
},
{
glyphname = Oogonek;
kernLeft = O;
kernRight = O;
layers = (
{
anchors = (
{
name = center;
pos = (363,294);
},
{
name = top;
pos = (363,587);
},
{
name = topleft;
pos = (17,587);
},
{
name = topright;
pos = (708,587);
}
);
background = {
anchors = (
{
name = center;
pos = (364,294);
},
{
name = top;
pos = (364,587);
},
{
name = topleft;
pos = (18,587);
},
{
name = topright;
pos = (709,587);
}
);
shapes = (
{
closed = 1;
nodes = (
(440,-223,o),
(484,-209,o),
(514,-173,c),
(483,-127,l),
(457,-151,o),
(435,-161,o),
(415,-161,cs),
(388,-161,o),
(367,-142,o),
(367,-108,cs),
(367,-69,o),
(393,-21,o),
(487,16,cs),
(584,54,o),
(685,141,o),
(685,304,cs),
(685,476,o),
(555,596,o),
(370,596,cs),
(179,596,o),
(42,464,o),
(42,283,cs),
(42,114,o),
(181,-9,o),
(371,-9,cs),
(389,-9,l),
(420,27,l),
(314,-9,o),
(254,-62,o),
(254,-116,cs),
(254,-180,o),
(320,-223,o),
(394,-223,cs)
);
},
{
closed = 1;
nodes = (
(292,78,o),
(235,177,o),
(235,319,cs),
(235,445,o),
(282,519,o),
(358,519,cs),
(441,519,o),
(493,426,o),
(493,277,cs),
(493,143,o),
(457,78,o),
(377,78,cs)
);
}
);
};
layerId = "722FC537-28B1-4F35-B842-D78FAAB5B143";
shapes = (
{
closed = 1;
nodes = (
(439,-223,o),
(483,-209,o),
(513,-173,c),
(482,-127,l),
(456,-151,o),
(434,-161,o),
(414,-161,cs),
(387,-161,o),
(366,-142,o),
(366,-108,cs),
(366,-69,o),
(392,-21,o),
(486,16,cs),
(583,54,o),
(684,141,o),
(684,304,cs),
(684,476,o),
(554,596,o),
(369,596,cs),
(178,596,o),
(41,464,o),
(41,283,cs),
(41,114,o),
(180,-9,o),
(370,-9,cs),
(388,-9,l),
(419,27,l),
(313,-9,o),
(253,-62,o),
(253,-116,cs),
(253,-180,o),
(319,-223,o),
(393,-223,cs)
);
},
{
closed = 1;
nodes = (
(291,78,o),
(234,177,o),
(234,319,cs),
(234,445,o),
(281,519,o),
(357,519,cs),
(440,519,o),
(492,426,o),
(492,277,cs),
(492,143,o),
(456,78,o),
(376,78,cs)
);
}
);
width = 726;
},
{
anchors = (
{
name = center;
pos = (343,294);
},
{
name = top;
pos = (343,587);
},
{
name = topleft;
pos = (17,587);
},
{
name = topright;
pos = (669,587);
}
);
layerId = "A0F5A844-D88E-40D3-8473-9812906C4A28";
shapes = (
{
closed = 1;
nodes = (
(419,-223,o),
(455,-203,o),
(481,-173,c),
(458,-146,l),
(438,-167,o),
(416,-181,o),
(389,-181,cs),
(355,-181,o),
(332,-158,o),
(332,-122,cs),
(332,-74,o),
(371,-20,o),
(452,11,cs),
(555,51,o),
(636,158,o),
(636,298,cs),
(636,474,o),
(519,596,o),
(351,596,cs),
(178,596,o),
(51,466,o),
(51,291,cs),
(51,114,o),
(174,-9,o),
(349,-9,cs),
(378,-9,l),
(412,19,l),
(318,-17,o),
(262,-71,o),
(262,-132,cs),
(262,-183,o),
(306,-223,o),
(375,-223,cs)
);
},
{
closed = 1;
nodes = (
(240,45,o),
(155,155,o),
(155,310,cs),
(155,456,o),
(225,546,o),
(339,546,cs),
(456,546,o),
(535,435,o),
(535,274,cs),
(535,134,o),
(466,45,o),
(358,45,cs)
);
}
);
width = 686;
}
);
metricLeft = O;
metricWidth = O;
unicode = 490;
},
{
glyphname = OE;
kernLeft = O;
kernRight = E;
layers = (
{
anchors = (
{
name = bottom;
pos = (533,0);
},
{
name = top;
pos = (533,587);
}
);
background = {
anchors = (
{
name = bottom;
pos = (534,0);
},
{
name = top;
pos = (534,587);
}
);
shapes = (
{
closed = 1;
nodes = (
(420,-9,o),
(456,0,o),
(519,0,cs),
(709,0,ls),
(760,0,o),
(845,-6,o),
(877,-7,c),
(925,166,l),
(861,178,l),
(804,75,l),
(784,71,o),
(787,71,o),
(733,71,cs),
(722,71,ls),
(675,71,o),
(649,72,o),
(621,77,c),
(618,97,o),
(617,135,o),
(617,217,cs),
(617,390,ls),
(617,468,o),
(618,499,o),
(621,518,c),
(629,521,o),
(653,522,o),
(688,522,cs),
(723,522,ls),
(740,522,o),
(751,521,o),
(774,517,c),
(814,425,l),
(880,434,l),
(849,593,l),
(816,593,o),
(714,587,o),
(664,587,cs),
(530,587,ls),
(478,587,o),
(436,592,o),
(406,592,cs),
(135,592,o),
(43,431,o),
(43,286,cs),
(43,111,o),
(178,-9,o),
(375,-9,cs)
);
},
{
closed = 1;
nodes = (
(297,76,o),
(237,166,o),
(237,309,cs),
(237,436,o),
(302,517,o),
(398,517,cs),
(415,517,o),
(437,513,o),
(445,509,c),
(448,496,o),
(451,417,o),
(451,363,cs),
(451,238,ls),
(451,200,o),
(449,109,o),
(447,84,c),
(425,80,o),
(402,76,o),
(394,76,cs)
);
},
{
closed = 1;
nodes = (
(803,196,l),
(803,404,l),
(739,404,l),
(731,339,l),
(721,341,o),
(696,338,o),
(667,338,cs),
(645,338,ls),
(617,338,o),
(596,341,o),
(591,342,c),
(591,261,l),
(596,262,o),
(617,264,o),
(645,264,cs),
(667,264,ls),
(696,264,o),
(721,262,o),
(731,263,c),
(739,196,l)
);
}
);
};
layerId = "722FC537-28B1-4F35-B842-D78FAAB5B143";
shapes = (
{
closed = 1;
nodes = (
(419,-9,o),
(455,0,o),
(518,0,cs),
(708,0,ls),
(759,0,o),
(844,-4,o),
(876,-7,c),
(924,166,l),
(860,178,l),
(803,75,l),
(783,71,o),
(786,71,o),
(732,71,cs),
(721,71,ls),
(674,71,o),
(648,72,o),
(620,77,c),
(617,97,o),
(616,135,o),
(616,217,cs),
(616,390,ls),
(616,468,o),
(617,499,o),
(620,518,c),
(628,521,o),
(652,522,o),
(687,522,cs),
(722,522,ls),
(739,522,o),
(750,521,o),
(773,517,c),
(813,425,l),
(879,434,l),
(848,593,l),
(815,591,o),
(713,587,o),
(663,587,cs),
(529,587,ls),
(477,587,o),
(435,592,o),
(405,592,cs),
(134,592,o),
(42,431,o),
(42,286,cs),
(42,111,o),
(177,-9,o),
(374,-9,cs)
);
},
{
closed = 1;
nodes = (
(296,76,o),
(236,166,o),
(236,309,cs),
(236,436,o),
(301,517,o),
(397,517,cs),
(414,517,o),
(436,515,o),
(444,512,c),
(447,498,o),
(450,417,o),
(450,363,cs),
(450,238,ls),
(450,200,o),
(448,109,o),
(446,84,c),
(427,78,o),
(408,76,o),
(393,76,cs)
);
},
{
closed = 1;
nodes = (
(802,196,l),
(802,404,l),
(738,404,l),
(730,339,l),
(720,341,o),
(695,338,o),
(666,338,cs),
(644,338,ls),
(616,338,o),
(595,341,o),
(590,342,c),
(590,261,l),
(595,262,o),
(616,264,o),
(644,264,cs),
(666,264,ls),
(695,264,o),
(720,262,o),
(730,263,c),
(738,196,l)
);
}
);
width = 934;
},
{
anchors = (
{
name = bottom;
pos = (523,0);
},
{
name = top;
pos = (523,587);
}
);
layerId = "A0F5A844-D88E-40D3-8473-9812906C4A28";
shapes = (
{
closed = 1;
nodes = (
(440,-9,o),
(489,0,o),
(528,0,cs),
(753,0,ls),
(779,0,o),
(804,0,o),
(848,-5,c),
(887,141,l),
(842,150,l),
(790,55,l),
(779,52,o),
(762,51,o),
(719,51,cs),
(631,51,ls),
(610,51,o),
(591,52,o),
(567,55,c),
(566,67,o),
(565,113,o),
(565,153,cs),
(565,423,ls),
(565,470,o),
(566,526,o),
(567,535,c),
(583,538,o),
(606,539,o),
(628,539,cs),
(734,539,ls),
(749,539,o),
(762,538,o),
(772,536,c),
(806,452,l),
(851,459,l),
(831,591,l),
(787,587,o),
(759,587,o),
(731,587,cs),
(514,587,ls),
(470,587,o),
(431,594,o),
(384,594,cs),
(180,594,o),
(52,464,o),
(52,288,cs),
(52,102,o),
(178,-9,o),
(389,-9,cs)
);
},
{
closed = 1;
nodes = (
(249,45,o),
(157,141,o),
(157,301,cs),
(157,447,o),
(239,542,o),
(379,542,cs),
(415,542,o),
(446,538,o),
(476,529,c),
(479,504,o),
(481,452,o),
(481,391,cs),
(481,203,ls),
(481,121,o),
(480,78,o),
(478,57,c),
(455,50,o),
(425,45,o),
(398,45,cs)
);
},
{
closed = 1;
nodes = (
(778,205,l),
(778,399,l),
(736,399,l),
(724,330,l),
(716,328,o),
(700,327,o),
(678,327,cs),
(610,327,ls),
(592,327,o),
(572,328,o),
(550,329,c),
(550,274,l),
(572,275,o),
(592,277,o),
(610,277,cs),
(678,277,ls),
(700,277,o),
(716,275,o),
(724,273,c),
(736,205,l)
);
}
);
width = 917;
}
);
metricLeft = "=O+1";
metricRight = "=E+1";
note = OE;
unicode = 338;
},
{
glyphname = P;
kernLeft = H;
kernRight = P;
layers = (
{
anchors = (
{
name = bottom;
pos = (188,0);
},
{
name = top;
pos = (312,587);
}
);
background = {
anchors = (
{
name = bottom;
pos = (189,0);
},
{
name = top;
pos = (313,587);
}
);
shapes = (
{
closed = 1;
nodes = (
(358,0,l),
(361,59,l),
(280,75,l),
(278,84,o),
(273,163,o),
(273,229,c),
(272,362,l),
(272,468,o),
(272,506,o),
(273,524,c),
(285,524,ls),
(364,524,o),
(404,486,o),
(404,399,cs),
(404,328,o),
(374,286,o),
(320,286,cs),
(288,286,o),
(266,292,o),
(259,300,c),
(259,218,l),
(278,214,o),
(301,211,o),
(318,211,cs),
(495,211,o),
(582,303,o),
(582,413,cs),
(582,525,o),
(499,587,o),
(315,587,cs),
(35,587,l),
(32,530,l),
(97,517,l),
(102,509,o),
(105,425,o),
(105,362,c),
(104,229,l),
(104,163,o),
(101,84,o),
(96,76,c),
(35,57,l),
(38,0,l)
);
}
);
};
layerId = "722FC537-28B1-4F35-B842-D78FAAB5B143";
shapes = (
{
closed = 1;
nodes = (
(357,0,l),
(360,59,l),
(279,75,l),
(277,84,o),
(272,163,o),
(272,229,c),
(271,362,l),
(271,468,o),
(271,506,o),
(272,524,c),
(284,524,ls),
(363,524,o),
(403,486,o),
(403,399,cs),
(403,328,o),
(373,286,o),
(319,286,cs),
(287,286,o),
(265,292,o),
(258,296,c),
(258,218,l),
(277,214,o),
(300,211,o),
(317,211,cs),
(494,211,o),
(581,303,o),
(581,413,cs),
(581,525,o),
(498,587,o),
(314,587,cs),
(34,587,l),
(31,530,l),
(96,517,l),
(101,509,o),
(104,425,o),
(104,362,c),
(103,229,l),
(103,163,o),
(100,84,o),
(95,76,c),
(34,57,l),
(37,0,l)
);
}
);
width = 611;
},
{
anchors = (
{
name = bottom;
pos = (156,0);
},
{
name = top;
pos = (254,587);
}
);
layerId = "A0F5A844-D88E-40D3-8473-9812906C4A28";
shapes = (
{
closed = 1;
nodes = (
(282,0,l),
(285,40,l),
(202,53,l),
(201,61,o),
(198,91,o),
(198,194,c),
(197,397,l),
(197,466,o),
(198,530,o),
(199,543,c),
(252,543,ls),
(327,543,o),
(382,500,o),
(382,405,cs),
(382,322,o),
(335,284,o),
(257,284,cs),
(234,284,o),
(212,288,o),
(182,297,c),
(182,243,l),
(204,239,o),
(230,235,o),
(260,235,cs),
(377,235,o),
(472,306,o),
(472,418,cs),
(472,527,o),
(395,587,o),
(263,587,cs),
(50,587,l),
(47,549,l),
(109,534,l),
(110,528,o),
(113,496,o),
(113,397,c),
(112,194,l),
(112,91,o),
(110,59,o),
(108,52,c),
(50,38,l),
(53,0,l)
);
}
);
width = 514;
}
);
note = P;
unicode = 80;
},
{
glyphname = Thorn;
kernLeft = H;
kernRight = Thorn;
layers = (
{
background = {
shapes = (
{
closed = 1;
nodes = (
(349,0,l),
(352,59,l),
(271,76,l),
(273,82,o),
(271,105,o),
(271,137,cs),
(271,432,l),
(284,432,ls),
(363,432,o),
(403,394,o),
(403,307,cs),
(403,236,o),
(373,191,o),
(319,191,cs),
(287,191,o),
(265,197,o),
(258,205,c),
(258,128,l),
(277,124,o),
(300,121,o),
(317,121,cs),
(494,121,o),
(581,211,o),
(581,321,cs),
(581,434,o),
(498,495,o),
(314,495,cs),
(226,495,l),
(270,456,l),
(270,479,ls),
(270,491,o),
(271,508,o),
(272,514,c),
(338,530,l),
(334,587,l),
(34,587,l),
(31,530,l),
(96,514,l),
(100,507,o),
(104,437,o),
(104,354,cs),
(104,234,ls),
(104,152,o),
(100,83,o),
(95,76,c),
(33,57,l),
(37,0,l)
);
}
);
};
layerId = "722FC537-28B1-4F35-B842-D78FAAB5B143";
shapes = (
{
closed = 1;
nodes = (
(348,0,l),
(351,59,l),
(270,76,l),
(270,82,o),
(270,105,o),
(270,137,cs),
(270,432,l),
(283,432,ls),
(362,432,o),
(402,394,o),
(402,307,cs),
(402,236,o),
(372,191,o),
(308,191,cs),
(286,191,o),
(264,197,o),
(257,205,c),
(257,128,l),
(276,124,o),
(299,121,o),
(316,121,cs),
(493,121,o),
(580,211,o),
(580,321,cs),
(580,434,o),
(497,495,o),
(313,495,cs),
(225,495,l),
(269,456,l),
(269,479,ls),
(269,491,o),
(270,508,o),
(271,514,c),
(336,530,l),
(333,587,l),
(33,587,l),
(30,530,l),
(95,514,l),
(99,507,o),
(103,437,o),
(103,354,cs),
(103,234,ls),
(103,152,o),
(99,83,o),
(94,76,c),
(32,57,l),
(35,0,l)
);
}
);
width = 612;
},
{
layerId = "A0F5A844-D88E-40D3-8473-9812906C4A28";
shapes = (
{
closed = 1;
nodes = (
(280,0,l),
(282,40,l),
(200,52,l),
(199,62,o),
(197,89,o),
(197,117,cs),
(197,437,l),
(251,437,ls),
(324,437,o),
(381,394,o),
(381,299,cs),
(381,217,o),
(334,175,o),
(256,175,cs),
(233,175,o),
(209,179,o),
(181,188,c),
(181,137,l),
(203,133,o),
(229,129,o),
(258,129,cs),
(376,129,o),
(471,200,o),
(471,312,cs),
(471,421,o),
(394,481,o),
(262,481,cs),
(181,481,l),
(197,451,l),
(197,492,ls),
(197,513,o),
(198,527,o),
(198,534,c),
(259,549,l),
(256,587,l),
(49,587,l),
(46,549,l),
(108,534,l),
(111,526,o),
(112,476,o),
(112,387,cs),
(112,199,ls),
(112,111,o),
(111,61,o),
(109,52,c),
(52,38,l),
(54,0,l)
);
}
);
width = 513;
}
);
note = Thorn;
unicode = 222;
},
{
glyphname = Q;
kernLeft = O;
kernRight = O;
layers = (
{
anchors = (
{
name = top;
pos = (363,587);
}
);
background = {
shapes = (
{
closed = 1;
nodes = (
(386,-3,l),
(498,-3,o),
(685,81,o),
(685,304,cs),
(685,476,o),
(555,596,o),
(370,596,cs),
(179,596,o),
(42,464,o),
(42,283,cs),
(42,114,o),
(181,-6,o),
(371,-6,c)
);
},
{
closed = 1;
nodes = (
(683,-155,o),
(737,-136,o),
(772,-111,c),
(755,-49,l),
(728,-56,o),
(704,-58,o),
(689,-58,cs),
(650,-58,o),
(632,-50,o),
(582,-17,cs),
(544,8,o),
(490,18,o),
(439,18,c),
(249,18,l),
(291,-3,o),
(293,-3,o),
(348,-56,cs),
(395,-102,o),
(475,-155,o),
(619,-155,cs)
);
},
{
closed = 1;
nodes = (
(292,78,o),
(235,177,o),
(235,319,cs),
(235,445,o),
(282,519,o),
(358,519,cs),
(441,519,o),
(493,426,o),
(493,277,cs),
(493,143,o),
(457,78,o),
(377,78,cs)
);
}
);
};
layerId = "722FC537-28B1-4F35-B842-D78FAAB5B143";
shapes = (
{
closed = 1;
nodes = (
(385,-3,l),
(497,-3,o),
(684,81,o),
(684,304,cs),
(684,476,o),
(554,596,o),
(369,596,cs),
(178,596,o),
(41,464,o),
(41,283,cs),
(41,114,o),
(180,-6,o),
(370,-6,c)
);
},
{
closed = 1;
nodes = (
(682,-155,o),
(736,-136,o),
(771,-111,c),
(754,-49,l),
(727,-56,o),
(705,-58,o),
(691,-58,cs),
(659,-58,o),
(638,-50,o),
(579,-17,cs),
(545,2,o),
(489,15,o),
(438,15,c),
(258,15,l),
(290,-3,o),
(302,-11,o),
(347,-56,cs),
(394,-103,o),
(474,-155,o),
(618,-155,cs)
);
},
{
closed = 1;
nodes = (
(291,78,o),
(234,177,o),
(234,319,cs),
(234,445,o),
(281,519,o),
(357,519,cs),
(440,519,o),
(492,426,o),
(492,277,cs),
(492,143,o),
(456,78,o),
(376,78,cs)
);
}
);
width = 726;
},
{
anchors = (
{
name = top;
pos = (343,587);
}
);
layerId = "A0F5A844-D88E-40D3-8473-9812906C4A28";
shapes = (
{
closed = 1;
nodes = (
(359,-6,l),
(506,-6,o),
(636,120,o),
(636,298,cs),
(636,474,o),
(519,596,o),
(351,596,cs),
(178,596,o),
(51,466,o),
(51,291,cs),
(51,114,o),
(174,-8,o),
(349,-8,c)
);
},
{
closed = 1;
nodes = (
(648,-135,o),
(694,-123,o),
(729,-101,c),
(719,-63,l),
(698,-69,o),
(677,-72,o),
(657,-72,cs),
(615,-72,o),
(575,-61,o),
(531,-36,cs),
(486,-12,o),
(445,2,o),
(387,6,c),
(277,6,l),
(319,-5,o),
(390,-58,o),
(432,-83,cs),
(491,-119,o),
(537,-135,o),
(600,-135,cs)
);
},
{
closed = 1;
nodes = (
(240,45,o),
(155,155,o),
(155,310,cs),
(155,456,o),
(225,546,o),
(339,546,cs),
(456,546,o),
(535,435,o),
(535,274,cs),
(535,134,o),
(466,45,o),
(358,45,cs)
);
}
);
width = 686;
}
);
metricLeft = O;
metricWidth = O;
note = Q;
unicode = 81;
},
{
glyphname = R;
kernLeft = H;
kernRight = R;
layers = (
{
anchors = (
{
name = bottom;
pos = (354,0);
},
{
name = top;
pos = (326,587);
}
);
background = {
anchors = (
{
name = bottom;
pos = (355,0);
},
{
name = top;
pos = (327,587);
}
);
shapes = (
{
closed = 1;
nodes = (
(323,0,l),
(327,57,l),
(273,75,l),
(273,111,o),
(271,201,o),
(271,234,cs),
(271,356,ls),
(271,407,o),
(272,514,o),
(273,524,c),
(299,524,ls),
(357,524,o),
(389,492,o),
(389,435,cs),
(389,371,o),
(347,326,o),
(290,326,cs),
(265,326,l),
(265,260,l),
(318,260,ls),
(461,260,o),
(564,331,o),
(564,430,cs),
(564,540,o),
(488,587,o),
(318,587,cs),
(35,587,l),
(32,530,l),
(97,511,l),
(101,505,o),
(105,431,o),
(105,354,cs),
(105,234,ls),
(105,188,o),
(103,90,o),
(102,75,c),
(37,57,l),
(40,0,l)
);
},
{
closed = 1;
nodes = (
(617,-13,o),
(641,-11,o),
(668,-6,c),
(669,47,l),
(619,63,o),
(576,95,o),
(546,137,cs),
(420,307,l),
(287,276,l),
(336,153,ls),
(379,44,o),
(465,-13,o),
(592,-13,cs)
);
}
);
};
layerId = "722FC537-28B1-4F35-B842-D78FAAB5B143";
shapes = (
{
closed = 1;
nodes = (
(323,0,l),
(326,57,l),
(272,75,l),
(272,111,o),
(270,201,o),
(270,234,cs),
(270,356,ls),
(270,407,o),
(271,514,o),
(272,524,c),
(298,524,ls),
(356,524,o),
(388,492,o),
(388,435,cs),
(388,371,o),
(346,326,o),
(289,326,cs),
(244,326,l),
(244,260,l),
(317,260,ls),
(460,260,o),
(563,331,o),
(563,430,cs),
(563,540,o),
(487,587,o),
(317,587,cs),
(34,587,l),
(31,530,l),
(96,511,l),
(100,505,o),
(104,431,o),
(104,354,cs),
(104,234,ls),
(104,188,o),
(102,90,o),
(101,75,c),
(36,57,l),
(39,0,l)
);
},
{
closed = 1;
nodes = (
(616,-13,o),
(640,-11,o),
(667,-6,c),
(668,47,l),
(618,63,o),
(576,96,o),
(545,137,cs),
(419,307,l),
(286,276,l),
(335,153,ls),
(378,44,o),
(464,-13,o),
(591,-13,cs)
);
}
);
width = 668;
},
{
anchors = (
{
name = bottom;
pos = (311,0);
},
{
name = top;
pos = (268,587);
}
);
layerId = "A0F5A844-D88E-40D3-8473-9812906C4A28";
shapes = (
{
closed = 1;
nodes = (
(258,0,l),
(261,38,l),
(202,53,l),
(199,72,o),
(197,112,o),
(197,199,cs),
(197,402,ls),
(197,523,o),
(197,536,o),
(199,543,c),
(257,543,ls),
(332,543,o),
(373,506,o),
(373,435,cs),
(373,362,o),
(324,318,o),
(242,318,cs),
(185,318,l),
(185,273,l),
(249,273,ls),
(374,273,o),
(462,344,o),
(462,443,cs),
(462,537,o),
(394,587,o),
(269,587,cs),
(50,587,l),
(47,549,l),
(109,535,l),
(112,527,o),
(113,478,o),
(113,387,cs),
(113,199,ls),
(113,136,o),
(111,71,o),
(111,53,c),
(50,38,l),
(52,0,l)
);
},
{
closed = 1;
nodes = (
(540,-10,o),
(556,-9,o),
(570,-6,c),
(571,29,l),
(519,39,o),
(484,65,o),
(428,148,cs),
(320.008,307,l),
(245,290,l),
(313,166,ls),
(387,34,o),
(438,-10,o),
(526,-10,cs)
);
}
);
width = 567;
}
);
note = R;
unicode = 82;
},
{
glyphname = S;
kernLeft = S;
kernRight = S;
layers = (
{
anchors = (
{
name = bottom;
pos = (279,0);
},
{
name = top;
pos = (279,587);
}
);
background = {
anchors = (
{
name = bottom;
pos = (280,0);
},
{
name = top;
pos = (280,587);
}
);
shapes = (
{
closed = 1;
nodes = (
(411,-9,o),
(519,69,o),
(519,177,cs),
(519,374,o),
(228,331,o),
(228,456,cs),
(228,502,o),
(267,525,o),
(311,525,cs),
(327,525,o),
(349,524,o),
(375,513,c),
(410,406,l),
(486,410,l),
(471,569,l),
(433,586,o),
(363,599,o),
(321,599,cs),
(159,599,o),
(54,522,o),
(54,408,cs),
(54,197,o),
(340,258,o),
(340,122,cs),
(340,88,o),
(314,66,o),
(258,66,cs),
(237,66,o),
(195,72,o),
(168,90,c),
(131,202,l),
(53,198,l),
(57,39,l),
(111,9,o),
(190,-9,o),
(246,-9,cs)
);
}
);
};
layerId = "722FC537-28B1-4F35-B842-D78FAAB5B143";
shapes = (
{
closed = 1;
nodes = (
(410,-9,o),
(518,69,o),
(518,177,cs),
(518,374,o),
(227,331,o),
(227,454,cs),
(227,502,o),
(266,525,o),
(310,525,cs),
(334,525,o),
(355,521,o),
(374,513,c),
(409,406,l),
(485,410,l),
(470,569,l),
(432,586,o),
(362,599,o),
(320,599,cs),
(158,599,o),
(53,522,o),
(53,408,cs),
(53,197,o),
(339,258,o),
(339,125,cs),
(339,88,o),
(312,66,o),
(257,66,cs),
(226,66,o),
(188,76,o),
(167,90,c),
(130,202,l),
(52,198,l),
(56,39,l),
(110,9,o),
(189,-9,o),
(245,-9,cs)
);
}
);
width = 542;
},
{
anchors = (
{
name = bottom;
pos = (243,0);
},
{
name = top;
pos = (243,587);
}
);
layerId = "A0F5A844-D88E-40D3-8473-9812906C4A28";
shapes = (
{
closed = 1;
nodes = (
(351,-9,o),
(441,61,o),
(441,157,cs),
(441,338,o),
(146,315,o),
(146,459,cs),
(146,513,o),
(190,549,o),
(258,549,cs),
(293,549,o),
(318,543,o),
(340,529,c),
(368,445,l),
(411,449,l),
(403,574,l),
(369,589,o),
(321,597,o),
(269,597,cs),
(144,597,o),
(56,530,o),
(56,433,cs),
(56,243,o),
(349,271,o),
(349,130,cs),
(349,75,o),
(306,41,o),
(240,41,cs),
(196,41,o),
(157,53,o),
(125,74,c),
(97,163,l),
(54,159,l),
(59,30,l),
(98,7,o),
(167,-9,o),
(225,-9,cs)
);
}
);
width = 479;
}
);
note = S;
unicode = 83;
},
{
glyphname = Germandbls;
kernLeft = Germandbls;
kernRight = S;
layers = (
{
background = {
shapes = (
{
closed = 1;
nodes = (
(328,0,l),
(331,57,l),
(270,76,l),
(267,84,o),
(263,149,o),
(262,234,c),
(259,358,l),
(258,465,o),
(306,524,o),
(395,524,cs),
(448,524,o),
(487,504,o),
(508,465,c),
(607,465,l),
(570,550,o),
(491,599,o),
(383,599,cs),
(206,599,o),
(94,489,o),
(94,322,c),
(95,234,l),
(95,151,o),
(92,82,o),
(88,76,c),
(22,57,l),
(26,0,l)
);
},
{
closed = 1;
nodes = (
(633,-9,o),
(737,60,o),
(737,151,cs),
(737,314,o),
(499,295,o),
(499,377,cs),
(499,416,o),
(534,429,o),
(566,429,cs),
(573,429,o),
(588,428,o),
(598,426,c),
(630,330,l),
(702,334,l),
(690,476,l),
(657,489,o),
(588,497,o),
(557,497,cs),
(448,497,o),
(346,423,o),
(346,326,cs),
(346,156,o),
(581,207,o),
(581,101,cs),
(581,68,o),
(541,61,o),
(507,61,cs),
(493,61,o),
(472,62,o),
(453,74,c),
(421,157,l),
(348,153,l),
(351,21,l),
(394,0,o),
(467,-9,o),
(507,-9,cs)
);
}
);
};
layerId = "722FC537-28B1-4F35-B842-D78FAAB5B143";
shapes = (
{
closed = 1;
nodes = (
(323,0,l),
(326,57,l),
(269,76,l),
(266,84,o),
(262,149,o),
(261,234,c),
(258,358,l),
(257,465,o),
(305,524,o),
(394,524,cs),
(447,524,o),
(486,504,o),
(507,465,c),
(606,465,l),
(569,550,o),
(490,599,o),
(382,599,cs),
(205,599,o),
(93,489,o),
(93,322,c),
(94,234,l),
(94,151,o),
(91,82,o),
(87,76,c),
(22,57,l),
(25,0,l)
);
},
{
closed = 1;
nodes = (
(632,-9,o),
(736,60,o),
(736,151,cs),
(736,314,o),
(498,295,o),
(498,377,cs),
(498,416,o),
(533,430,o),
(565,430,cs),
(572,430,o),
(587,429,o),
(597,427,c),
(629,331,l),
(701,335,l),
(689,476,l),
(656,489,o),
(587,497,o),
(556,497,cs),
(447,497,o),
(345,423,o),
(345,326,cs),
(345,156,o),
(580,207,o),
(580,107,cs),
(580,68,o),
(540,61,o),
(510,61,cs),
(487,61,o),
(466,67,o),
(452,74,c),
(420,157,l),
(347,153,l),
(350,21,l),
(393,0,o),
(466,-9,o),
(506,-9,cs)
);
}
);
width = 764;
},
{
layerId = "A0F5A844-D88E-40D3-8473-9812906C4A28";
shapes = (
{
closed = 1;
nodes = (
(249,0,l),
(252,38,l),
(191,52,l),
(188,60,o),
(186,105,o),
(186,199,c),
(185,378,l),
(185,491,o),
(238,549,o),
(329,549,cs),
(390,549,o),
(436,520,o),
(453,468,c),
(514,468,l),
(483,553,o),
(417,597,o),
(327,597,cs),
(187,597,o),
(100,505,o),
(100,350,c),
(101,199,l),
(101,121,o),
(98,63,o),
(96,52,c),
(35,38,l),
(37,0,l)
);
},
{
closed = 1;
nodes = (
(573,-9,o),
(649,47,o),
(649,134,cs),
(649,289,o),
(396,262,o),
(396,375,cs),
(396,416,o),
(432,446,o),
(496,446,cs),
(518,446,o),
(538,444,o),
(555,437,c),
(579,361,l),
(620,365,l),
(613,474,l),
(583,484,o),
(538,491,o),
(497,491,cs),
(382,491,o),
(311,429,o),
(311,350,cs),
(311,192,o),
(562,227,o),
(562,109,cs),
(562,66,o),
(527,39,o),
(472,39,cs),
(439,39,o),
(403,49,o),
(374,68,c),
(353,154,l),
(308,150,l),
(310,26,l),
(347,6,o),
(407,-9,o),
(463,-9,cs)
);
}
);
width = 689;
}
);
unicode = 7838;
},
{
glyphname = T;
kernLeft = T;
kernRight = T;
layers = (
{
anchors = (
{
name = bottom;
pos = (325,0);
},
{
name = stroke;
pos = (326,303);
},
{
name = top;
pos = (326,587);
}
);
background = {
anchors = (
{
name = bottom;
pos = (326,0);
},
{
name = stroke;
pos = (327,303);
},
{
name = top;
pos = (327,587);
}
);
shapes = (
{
closed = 1;
nodes = (
(584,592,o),
(481,587,o),
(442,587,cs),
(208,587,ls),
(168,587,o),
(66,592,o),
(39,593,c),
(19,404,l),
(92,398,l),
(127,518,l),
(149,520,o),
(161,521,o),
(182,521,cs),
(214,521,ls),
(225,521,o),
(237,520,o),
(240,519,c),
(241,507,o),
(243,406,o),
(243,309,cs),
(243,242,ls),
(243,174,o),
(241,112,o),
(239,76,c),
(150,59,l),
(153,0,l),
(501,0,l),
(504,59,l),
(415,76,l),
(413,112,o),
(411,174,o),
(411,242,cs),
(411,309,ls),
(411,406,o),
(413,507,o),
(414,519,c),
(417,520,o),
(429,521,o),
(440,521,cs),
(471,521,ls),
(493,521,o),
(500,520,o),
(522,518,c),
(561,400,l),
(634,405,l),
(610,593,l)
);
}
);
};
layerId = "722FC537-28B1-4F35-B842-D78FAAB5B143";
shapes = (
{
closed = 1;
nodes = (
(583,592,o),
(480,587,o),
(441,587,cs),
(207,587,ls),
(167,587,o),
(65,592,o),
(38,593,c),
(18,404,l),
(91,398,l),
(126,518,l),
(138,520,o),
(160,521,o),
(181,521,cs),
(213,521,ls),
(223,521,o),
(236,520,o),
(239,519,c),
(240,507,o),
(242,406,o),
(242,309,cs),
(242,242,ls),
(242,174,o),
(240,112,o),
(238,76,c),
(149,59,l),
(152,0,l),
(500,0,l),
(503,59,l),
(414,76,l),
(412,112,o),
(410,174,o),
(410,242,cs),
(410,309,ls),
(410,406,o),
(412,507,o),
(413,519,c),
(416,520,o),
(428,521,o),
(439,521,cs),
(470,521,ls),
(492,521,o),
(509,520,o),
(521,518,c),
(560,400,l),
(633,405,l),
(609,593,l)
);
}
);
width = 653;
},
{
anchors = (
{
name = bottom;
pos = (279,0);
},
{
name = stroke;
pos = (279,303);
},
{
name = top;
pos = (279,587);
}
);
layerId = "A0F5A844-D88E-40D3-8473-9812906C4A28";
shapes = (
{
closed = 1;
nodes = (
(485,589,o),
(452,587,o),
(421,587,cs),
(135,587,ls),
(103,587,o),
(69,589,o),
(38,591,c),
(16,429,l),
(61,423,l),
(102,537,l),
(113,539,o),
(127,540,o),
(138,540,cs),
(177,540,ls),
(191,540,o),
(217,540,o),
(234,539,c),
(235,523,o),
(235,430,o),
(235,358,cs),
(235,223,ls),
(235,138,o),
(233,71,o),
(233,52,c),
(149,40,l),
(151,0,l),
(406,0,l),
(409,40,l),
(324,52,l),
(324,71,o),
(322,138,o),
(322,223,cs),
(322,358,ls),
(322,430,o),
(322,523,o),
(323,539,c),
(341,540,o),
(367,540,o),
(381,540,cs),
(417,540,ls),
(428,540,o),
(443,539,o),
(454,537,c),
(496,424,l),
(540,429,l),
(518,591,l)
);
}
);
width = 557;
}
);
note = T;
unicode = 84;
},
{
glyphname = U;
kernLeft = U;
kernRight = U;
layers = (
{
anchors = (
{
name = bottom;
pos = (403,0);
},
{
name = ogonek;
pos = (454,0);
},
{
name = top;
pos = (402,587);
},
{
name = topright;
pos = (690,587);
}
);
background = {
anchors = (
{
name = bottom;
pos = (404,0);
},
{
name = ogonek;
pos = (455,0);
},
{
name = top;
pos = (403,587);
},
{
name = topright;
pos = (691,587);
}
);
shapes = (
{
closed = 1;
nodes = (
(29,530,l),
(95,512,l),
(99,504,o),
(102,421,o),
(102,354,cs),
(102,262,ls),
(102,88,o),
(200,-9,o),
(380,-9,cs),
(542,-9,o),
(633,102,o),
(633,255,cs),
(633,336,ls),
(633,405,o),
(636,506,o),
(641,512,c),
(707,530,l),
(703,587,l),
(463,587,l),
(460,530,l),
(530,512,l),
(534,506,o),
(537,405,o),
(537,336,cs),
(537,279,ls),
(537,166,o),
(499,103,o),
(404,103,cs),
(309,103,o),
(269,170,o),
(270,282,c),
(270,354,l),
(270,414,o),
(273,483,o),
(276,512,c),
(342,530,l),
(338,587,l),
(33,587,l)
);
}
);
};
layerId = "722FC537-28B1-4F35-B842-D78FAAB5B143";
shapes = (
{
closed = 1;
nodes = (
(29,530,l),
(94,512,l),
(98,504,o),
(101,421,o),
(101,354,cs),
(101,262,ls),
(101,88,o),
(199,-9,o),
(379,-9,cs),
(541,-9,o),
(632,102,o),
(632,255,cs),
(632,336,ls),
(632,405,o),
(635,506,o),
(640,512,c),
(705,530,l),
(702,587,l),
(462,587,l),
(459,530,l),
(529,512,l),
(533,506,o),
(536,405,o),
(536,336,cs),
(536,279,ls),
(536,166,o),
(498,103,o),
(403,103,cs),
(308,103,o),
(268,170,o),
(269,282,c),
(269,354,l),
(269,414,o),
(272,483,o),
(275,512,c),
(340,530,l),
(337,587,l),
(32,587,l)
);
}
);
width = 733;
},
{
anchors = (
{
name = bottom;
pos = (346,0);
},
{
name = ogonek;
pos = (411,0);
},
{
name = top;
pos = (347,587);
},
{
name = topright;
pos = (641,587);
}
);
layerId = "A0F5A844-D88E-40D3-8473-9812906C4A28";
shapes = (
{
closed = 1;
nodes = (
(44,549,l),
(105,534,l),
(106,528,o),
(109,496,o),
(109,387,cs),
(109,221,ls),
(109,75,o),
(195,-9,o),
(341,-9,cs),
(464,-9,o),
(556,67,o),
(556,235,cs),
(556,369,ls),
(556,490,o),
(558,528,o),
(559,534,c),
(620,549,l),
(617,587,l),
(423,587,l),
(420,549,l),
(490,534,l),
(493,521,o),
(496,458,o),
(496,369,cs),
(496,240,ls),
(496,108,o),
(438,57,o),
(351,57,cs),
(259,57,o),
(197,107,o),
(196,233,c),
(196,387,l),
(195,496,o),
(198,525,o),
(199,534,c),
(261,549,l),
(258,587,l),
(46,587,l)
);
}
);
width = 664;
}
);
note = U;
unicode = 85;
},
{
glyphname = Uhorn;
kernLeft = U;
kernRight = Uhorn;
layers = (
{
anchors = (
{
name = bottom;
pos = (403,0);
},
{
name = top;
pos = (402,587);
}
);
background = {
anchors = (
{
name = bottom;
pos = (404,0);
},
{
name = top;
pos = (403,587);
}
);
shapes = (
{
closed = 1;
nodes = (
(535,-9,o),
(633,94,o),
(633,255,cs),
(633,336,ls),
(633,450,o),
(635,517,o),
(638,538,c),
(621,525,l),
(707,535,o),
(761,587,o),
(761,658,cs),
(761,714,o),
(720,735,o),
(631,725,c),
(629,659,ls),
(627,624,o),
(596,587,o),
(574,587,cs),
(463,587,l),
(460,530,l),
(530,512,l),
(534,508,o),
(537,423,o),
(537,336,cs),
(537,279,ls),
(537,160,o),
(494,103,o),
(404,103,cs),
(314,103,o),
(269,164,o),
(270,282,c),
(270,354,l),
(270,430,o),
(274,485,o),
(276,512,c),
(342,530,l),
(338,587,l),
(33,587,l),
(29,530,l),
(95,512,l),
(99,506,o),
(102,432,o),
(102,354,cs),
(102,262,ls),
(102,87,o),
(201,-9,o),
(380,-9,cs)
);
}
);
};
layerId = "722FC537-28B1-4F35-B842-D78FAAB5B143";
shapes = (
{
closed = 1;
nodes = (
(534,-9,o),
(632,94,o),
(632,255,cs),
(632,336,ls),
(632,450,o),
(634,517,o),
(637,538,c),
(620,525,l),
(706,535,o),
(760,587,o),
(760,658,cs),
(760,714,o),
(719,735,o),
(630,725,c),
(628,659,ls),
(626,624,o),
(595,587,o),
(573,587,cs),
(462,587,l),
(459,530,l),
(529,512,l),
(533,508,o),
(536,423,o),
(536,336,cs),
(536,279,ls),
(536,160,o),
(493,103,o),
(403,103,cs),
(313,103,o),
(268,164,o),
(269,282,c),
(269,354,l),
(269,430,o),
(273,485,o),
(275,512,c),
(340,530,l),
(337,587,l),
(32,587,l),
(29,530,l),
(94,512,l),
(98,506,o),
(101,432,o),
(101,354,cs),
(101,262,ls),
(101,87,o),
(200,-9,o),
(379,-9,cs)
);
}
);
width = 733;
},
{
anchors = (
{
name = bottom;
pos = (346,0);
},
{
name = top;
pos = (347,587);
}
);
layerId = "A0F5A844-D88E-40D3-8473-9812906C4A28";
shapes = (
{
closed = 1;
nodes = (
(477,-9,o),
(556,81,o),
(556,235,cs),
(556,369,ls),
(556,455,o),
(557,508,o),
(562,555,c),
(552,538,l),
(638,543,o),
(698,590,o),
(698,653,cs),
(698,700,o),
(664,722,o),
(608,712,c),
(606,661,ls),
(604,602,o),
(587,587,o),
(522,587,cs),
(423,587,l),
(420,549,l),
(490,534,l),
(493,521,o),
(496,458,o),
(496,369,cs),
(496,240,ls),
(496,119,o),
(447,57,o),
(351,57,cs),
(250,57,o),
(197,117,o),
(196,233,c),
(196,387,l),
(195,492,o),
(198,524,o),
(199,534,c),
(260,549,l),
(258,587,l),
(46,587,l),
(44,549,l),
(105,534,l),
(106,528,o),
(109,493,o),
(109,387,cs),
(109,221,ls),
(109,76,o),
(195,-9,o),
(341,-9,cs)
);
}
);
width = 664;
}
);
metricLeft = U;
metricWidth = U;
note = Uhorn;
unicode = 431;
},
{
glyphname = Uogonek;
kernLeft = U;
kernRight = U;
layers = (
{
anchors = (
{
name = top;
pos = (402,587);
},
{
name = topright;
pos = (702,587);
}
);
background = {
anchors = (
{
name = top;
pos = (403,587);
},
{
name = topright;
pos = (703,587);
}
);
shapes = (
{
closed = 1;
nodes = (
(463,587,l),
(460,530,l),
(530,512,l),
(534,508,o),
(537,423,o),
(537,336,cs),
(537,279,ls),
(537,160,o),
(494,103,o),
(404,103,cs),
(314,103,o),
(269,164,o),
(270,282,c),
(270,354,l),
(270,419,o),
(274,483,o),
(276,512,c),
(342,530,l),
(338,587,l),
(33,587,l),
(29,530,l),
(95,512,l),
(99,506,o),
(102,432,o),
(102,354,cs),
(102,262,ls),
(102,87,o),
(201,-9,o),
(380,-9,cs),
(411,-9,l),
(438,27,l),
(335,-2,o),
(268,-58,o),
(268,-116,cs),
(268,-176,o),
(329,-223,o),
(407,-223,cs),
(456,-223,o),
(497,-207,o),
(528,-173,c),
(496,-127,l),
(472,-150,o),
(450,-161,o),
(429,-161,cs),
(400,-161,o),
(380,-139,o),
(380,-108,cs),
(380,-60,o),
(416,-22,o),
(488,9,cs),
(582,49,o),
(633,136,o),
(633,255,cs),
(633,336,ls),
(633,422,o),
(636,508,o),
(641,512,c),
(707,530,l),
(703,587,l)
);
}
);
};
layerId = "722FC537-28B1-4F35-B842-D78FAAB5B143";
shapes = (
{
closed = 1;
nodes = (
(462,587,l),
(459,530,l),
(529,512,l),
(533,508,o),
(536,423,o),
(536,336,cs),
(536,279,ls),
(536,160,o),
(493,103,o),
(403,103,cs),
(313,103,o),
(268,164,o),
(269,282,c),
(269,354,l),
(269,419,o),
(273,483,o),
(275,512,c),
(340,530,l),
(337,587,l),
(32,587,l),
(29,530,l),
(94,512,l),
(98,506,o),
(101,432,o),
(101,354,cs),
(101,262,ls),
(101,87,o),
(200,-9,o),
(379,-9,cs),
(410,-9,l),
(437,27,l),
(334,-2,o),
(267,-58,o),
(267,-116,cs),
(267,-176,o),
(328,-223,o),
(406,-223,cs),
(455,-223,o),
(496,-207,o),
(527,-173,c),
(495,-127,l),
(471,-150,o),
(449,-161,o),
(428,-161,cs),
(399,-161,o),
(379,-139,o),
(379,-108,cs),
(379,-60,o),
(415,-22,o),
(487,9,cs),
(581,49,o),
(632,136,o),
(632,255,cs),
(632,336,ls),
(632,422,o),
(635,508,o),
(640,512,c),
(705,530,l),
(702,587,l)
);
}
);
width = 733;
},
{
anchors = (
{
name = top;
pos = (347,587);
},
{
name = topright;
pos = (618,587);
}
);
layerId = "A0F5A844-D88E-40D3-8473-9812906C4A28";
shapes = (
{
closed = 1;
nodes = (
(423,587,l),
(420,549,l),
(490,534,l),
(493,521,o),
(496,453,o),
(496,369,cs),
(496,240,ls),
(496,119,o),
(447,57,o),
(351,57,cs),
(250,57,o),
(197,117,o),
(196,233,c),
(196,387,l),
(195,495,o),
(198,525,o),
(199,534,c),
(261,549,l),
(258,587,l),
(46,587,l),
(44,549,l),
(105,534,l),
(106,528,o),
(109,493,o),
(109,387,cs),
(109,221,ls),
(109,76,o),
(195,-9,o),
(341,-9,cs),
(370,-9,l),
(399,18,l),
(305,-19,o),
(254,-72,o),
(254,-132,cs),
(254,-185,o),
(301,-223,o),
(368,-223,cs),
(408,-223,o),
(445,-205,o),
(473,-173,c),
(451,-146,l),
(427,-170,o),
(405,-181,o),
(382,-181,cs),
(347,-181,o),
(324,-158,o),
(324,-122,cs),
(324,-71,o),
(368,-19,o),
(435,9,cs),
(513,41,o),
(556,122,o),
(556,235,cs),
(556,369,ls),
(556,460,o),
(558,528,o),
(559,534,c),
(621,549,l),
(618,587,l)
);
}
);
width = 664;
}
);
metricLeft = U;
metricWidth = U;
note = Uogonek;
unicode = 370;
},
{
glyphname = V;
kernLeft = V;
kernRight = V;
layers = (
{
anchors = (
{
name = bottom;
pos = (313,0);
},
{
name = top;
pos = (313,587);
}
);
background = {
anchors = (
{
name = bottom;
pos = (314,0);
},
{
name = top;
pos = (314,587);
}
);
shapes = (
{
closed = 1;
nodes = (
(348,-3,l),
(593,511,l),
(647,532,l),
(643,587,l),
(423,587,l),
(420,530,l),
(490,511,l),
(345,154,l),
(396,154,l),
(235,511,l),
(298,530,l),
(294,587,l),
(-3,587,l),
(-6,532,l),
(47,511,l),
(287,-3,l)
);
}
);
};
layerId = "722FC537-28B1-4F35-B842-D78FAAB5B143";
shapes = (
{
closed = 1;
nodes = (
(347,-3,l),
(592,511,l),
(645,532,l),
(640,587,l),
(422,587,l),
(419,530,l),
(489,511,l),
(344,154,l),
(395,154,l),
(234,511,l),
(297,530,l),
(294,587,l),
(-4,587,l),
(-7,532,l),
(46,511,l),
(286,-3,l)
);
}
);
width = 637;
},
{
anchors = (
{
name = bottom;
pos = (288,0);
},
{
name = top;
pos = (288,587);
}
);
layerId = "A0F5A844-D88E-40D3-8473-9812906C4A28";
shapes = (
{
closed = 1;
nodes = (
(312,-3,l),
(534,535,l),
(584,549,l),
(582,587,l),
(398,587,l),
(395,549,l),
(465,535,l),
(304,99,l),
(324,99,l),
(152,535,l),
(213,549,l),
(211,587,l),
(4,587,l),
(1,549,l),
(52,535,l),
(270,-3,l)
);
}
);
width = 585;
}
);
note = V;
unicode = 86;
},
{
glyphname = W;
kernLeft = V;
kernRight = V;
layers = (
{
anchors = (
{
name = bottom;
pos = (513,0);
},
{
name = top;
pos = (513,587);
}
);
background = {
anchors = (
{
name = bottom;
pos = (514,0);
},
{
name = top;
pos = (514,587);
}
);
shapes = (
{
closed = 1;
nodes = (
(454,456,l),
(332,154,l),
(397,154,l),
(242,511,l),
(289,530,l),
(287,587,l),
(2,587,l),
(-1,530,l),
(50,511,l),
(286,-3,l),
(346,-3,l),
(507,362,l)
);
},
{
closed = 1;
nodes = (
(723,-3,l),
(957,511,l),
(1007,530,l),
(1003,587,l),
(789,587,l),
(785,530,l),
(852,511,l),
(714,154,l),
(767,154,l),
(609,511,l),
(674,530,l),
(671,587,l),
(374,587,l),
(371,530,l),
(422,511,l),
(663,-3,l)
);
}
);
};
layerId = "722FC537-28B1-4F35-B842-D78FAAB5B143";
shapes = (
{
closed = 1;
nodes = (
(461,476,l),
(331,154,l),
(396,154,l),
(241,511,l),
(290,530,l),
(287,587,l),
(-1,587,l),
(-4,530,l),
(49,511,l),
(285,-3,l),
(345,-3,l),
(514,382,l)
);
},
{
closed = 1;
nodes = (
(722,-3,l),
(956,511,l),
(1009,530,l),
(1006,587,l),
(787,587,l),
(784,530,l),
(851,511,l),
(713,154,l),
(766,154,l),
(608,511,l),
(673,530,l),
(670,587,l),
(375,587,l),
(372,530,l),
(421,511,l),
(662,-3,l)
);
}
);
width = 1007;
},
{
anchors = (
{
name = bottom;
pos = (472,0);
},
{
name = top;
pos = (472,587);
}
);
layerId = "A0F5A844-D88E-40D3-8473-9812906C4A28";
shapes = (
{
closed = 1;
nodes = (
(458,520,l),
(299,99,l),
(320,99,l),
(156,536,l),
(207,549,l),
(204,587,l),
(9,587,l),
(7,549,l),
(57,535,l),
(266,-3,l),
(309,-3,l),
(487,440,l)
);
},
{
closed = 1;
nodes = (
(670,-3,l),
(885,535,l),
(936,549,l),
(933,587,l),
(749,587,l),
(746,549,l),
(817,535,l),
(659,99,l),
(679,99,l),
(517,536,l),
(578,549,l),
(575,587,l),
(372,587,l),
(370,549,l),
(420,535,l),
(627,-3,l)
);
}
);
width = 941;
}
);
note = W;
unicode = 87;
},
{
glyphname = X;
kernLeft = X;
kernRight = X;
layers = (
{
anchors = (
{
name = bottom;
pos = (310,0);
},
{
name = top;
pos = (310,587);
}
);
background = {
anchors = (
{
name = bottom;
pos = (311,0);
},
{
name = top;
pos = (311,587);
}
);
shapes = (
{
closed = 1;
nodes = (
(631,57,l),
(577,75,l),
(276,511,l),
(320,530,l),
(316,587,l),
(36,587,l),
(32,530,l),
(84,511,l),
(382,75,l),
(316,57,l),
(320,0,l),
(627,0,l)
);
},
{
closed = 1;
nodes = (
(80,75,l),
(30,57,l),
(33,0,l),
(248,0,l),
(252,57,l),
(191,75,l),
(533,511,l),
(583,530,l),
(579,587,l),
(386,587,l),
(383,530,l),
(421,511,l)
);
}
);
};
layerId = "722FC537-28B1-4F35-B842-D78FAAB5B143";
shapes = (
{
closed = 1;
nodes = (
(627,57,l),
(576,75,l),
(392,341,l),
(348,405,l),
(275,511,l),
(316,530,l),
(313,587,l),
(35,587,l),
(32,530,l),
(83,511,l),
(239,282,l),
(287,217,l),
(381,75,l),
(319,57,l),
(322,0,l),
(624,0,l)
);
},
{
closed = 1;
nodes = (
(348,405,l),
(239,282,l),
(79,75,l),
(28,57,l),
(31,0,l),
(252,0,l),
(255,57,l),
(190,75,l),
(287,217,l),
(392,341,l),
(532,511,l),
(583,530,l),
(580,587,l),
(382,587,l),
(379,530,l),
(420,511,l)
);
}
);
width = 628;
},
{
anchors = (
{
name = bottom;
pos = (288,0);
},
{
name = top;
pos = (288,587);
}
);
color = 3;
layerId = "A0F5A844-D88E-40D3-8473-9812906C4A28";
shapes = (
{
closed = 1;
nodes = (
(579,38,l),
(528,53,l),
(332,325,l),
(302,367,l),
(182,535,l),
(243,549,l),
(241,587,l),
(24,587,l),
(21,549,l),
(72,535,l),
(245,295,l),
(277,253,l),
(419,53,l),
(358,38,l),
(360,0,l),
(576,0,l)
);
},
{
closed = 1;
nodes = (
(302,367,l),
(245,295,l),
(66,53,l),
(15,38,l),
(17,0,l),
(203,0,l),
(205,38,l),
(135,53,l),
(277,253,l),
(332,325,l),
(491,535,l),
(542,549,l),
(540,587,l),
(354,587,l),
(352,549,l),
(422,535,l)
);
}
);
width = 582;
}
);
note = X;
unicode = 88;
},
{
glyphname = Y;
kernLeft = Y;
kernRight = Y;
layers = (
{
anchors = (
{
name = bottom;
pos = (311,0);
},
{
name = top;
pos = (311,587);
},
{
name = topleft;
pos = (28,587);
}
);
background = {
anchors = (
{
name = bottom;
pos = (312,0);
},
{
name = top;
pos = (312,587);
},
{
name = topleft;
pos = (29,587);
}
);
shapes = (
{
closed = 1;
nodes = (
(606,530,l),
(602,587,l),
(394,587,l),
(391,530,l),
(461,511,l),
(345,305,l),
(374,305,l),
(259,511,l),
(324,530,l),
(321,587,l),
(22,587,l),
(18,530,l),
(68,511,l),
(269,160,l),
(229,281,l),
(229,178,ls),
(229,163,o),
(228,84,o),
(224,76,c),
(154,58,l),
(158,0,l),
(467,0,l),
(470,58,l),
(400,76,l),
(395,84,o),
(394,163,o),
(394,178,cs),
(394,281,l),
(338,160,l),
(556,511,l)
);
}
);
};
layerId = "722FC537-28B1-4F35-B842-D78FAAB5B143";
shapes = (
{
closed = 1;
nodes = (
(606,530,l),
(603,587,l),
(393,587,l),
(390,530,l),
(460,511,l),
(344,305,l),
(373,305,l),
(258,511,l),
(323,530,l),
(320,587,l),
(19,587,l),
(16,530,l),
(67,511,l),
(268,160,l),
(228,281,l),
(228,178,ls),
(228,163,o),
(227,84,o),
(223,76,c),
(153,58,l),
(156,0,l),
(466,0,l),
(469,58,l),
(399,76,l),
(394,84,o),
(393,163,o),
(393,178,cs),
(393,281,l),
(337,160,l),
(555,511,l)
);
}
);
width = 622;
},
{
anchors = (
{
name = bottom;
pos = (270,0);
},
{
name = top;
pos = (270,587);
},
{
name = topleft;
pos = (21,587);
}
);
layerId = "A0F5A844-D88E-40D3-8473-9812906C4A28";
shapes = (
{
closed = 1;
nodes = (
(542,549,l),
(540,587,l),
(358,587,l),
(355,549,l),
(425,535,l),
(284,299,l),
(298,299,l),
(151,535,l),
(212,549,l),
(209,587,l),
(2,587,l),
(0,549,l),
(50,535,l),
(248,218,l),
(228,286,l),
(228,191,ls),
(228,91,o),
(225,59,o),
(223,52,c),
(153,39,l),
(156,0,l),
(384,0,l),
(386,39,l),
(316,52,l),
(315,59,o),
(312,91,o),
(312,191,cs),
(312,286,l),
(287,218,l),
(492,535,l)
);
}
);
width = 541;
}
);
note = Y;
unicode = 89;
},
{
glyphname = Z;
kernLeft = Z;
kernRight = Z;
layers = (
{
anchors = (
{
name = bottom;
pos = (281,0);
},
{
name = top;
pos = (281,587);
}
);
background = {
anchors = (
{
name = bottom;
pos = (282,0);
},
{
name = top;
pos = (282,587);
}
);
shapes = (
{
closed = 1;
nodes = (
(556,182,l),
(483,192,l),
(442,76,l),
(420,72,o),
(409,71,o),
(391,71,cs),
(222,71,l),
(222,26,l),
(522,526,l),
(522,589,l),
(495,588,o),
(467,587,o),
(441,587,cs),
(148,587,ls),
(123,587,o),
(73,587,o),
(40,590,c),
(42,412,l),
(117,412,l),
(139,516,l),
(162,519,o),
(184,522,o),
(232,522,cs),
(366,522,l),
(366,570,l),
(58,59,l),
(58,-4,l),
(85,-1,o),
(115,0,o),
(144,0,cs),
(364,0,ls),
(403,0,o),
(497,-5,o),
(522,-6,c)
);
}
);
};
layerId = "722FC537-28B1-4F35-B842-D78FAAB5B143";
shapes = (
{
closed = 1;
nodes = (
(555,182,l),
(482,192,l),
(441,76,l),
(419,72,o),
(408,71,o),
(370,71,cs),
(221,71,l),
(221,26,l),
(521,526,l),
(521,589,l),
(494,588,o),
(466,587,o),
(440,587,cs),
(147,587,ls),
(122,587,o),
(72,587,o),
(39,590,c),
(41,412,l),
(116,412,l),
(138,516,l),
(161,519,o),
(183,522,o),
(231,522,cs),
(365,522,l),
(365,570,l),
(57,59,l),
(57,-4,l),
(84,-1,o),
(114,0,o),
(143,0,cs),
(363,0,ls),
(402,0,o),
(496,-5,o),
(521,-6,c)
);
}
);
width = 570;
},
{
anchors = (
{
name = bottom;
pos = (267,0);
},
{
name = top;
pos = (267,587);
}
);
layerId = "A0F5A844-D88E-40D3-8473-9812906C4A28";
shapes = (
{
closed = 1;
nodes = (
(509,160,l),
(468,165,l),
(426,54,l),
(414,52,o),
(402,51,o),
(388,51,cs),
(155,51,l),
(155,17,l),
(481,553,l),
(481,589,l),
(456,588,o),
(430,587,o),
(405,587,cs),
(132,587,ls),
(107,587,o),
(78,587,o),
(48,588,c),
(50,434,l),
(92,434,l),
(106,535,l),
(123,538,o),
(142,539,o),
(171,539,cs),
(396,539,l),
(394,572,l),
(66,34,l),
(66,-2,l),
(90,-1,o),
(111,0,o),
(137,0,cs),
(388,0,ls),
(419,0,o),
(453,-2,o),
(485,-4,c)
);
}
);
width = 533;
}
);
note = Z;
unicode = 90;
},
{
glyphname = T_h;
kernLeft = T;
kernRight = n;
layers = (
{
background = {
shapes = (
{
closed = 1;
nodes = (
(2071,81,o),
(2070,127,o),
(2070,169,cs),
(2070,270,ls),
(2070,382,o),
(2008,454,o),
(1916,454,cs),
(1861,454,o),
(1804,425,o),
(1766,376,c),
(1763,377,l),
(1763,451,o),
(1766,518,o),
(1771,596,c),
(1739,593,o),
(1661,587,o),
(1604,587,cs),
(1207,587,ls),
(1168,587,o),
(1064,593,o),
(1039,593,c),
(1019,404,l),
(1092,398,l),
(1127,517,l),
(1149,520,o),
(1157,521,o),
(1178,521,cs),
(1214,521,ls),
(1225,521,o),
(1237,520,o),
(1240,516,c),
(1241,504,o),
(1243,417,o),
(1243,309,cs),
(1243,242,ls),
(1243,174,o),
(1241,113,o),
(1239,76,c),
(1150,59,l),
(1153,0,l),
(1501,0,l),
(1504,59,l),
(1415,76,l),
(1413,113,o),
(1411,174,o),
(1411,242,cs),
(1411,309,ls),
(1411,409,o),
(1413,504,o),
(1414,518,c),
(1424,520,o),
(1438,521,o),
(1457,521,cs),
(1530,521,ls),
(1547,521,o),
(1576,518,o),
(1598,515,c),
(1600,481,o),
(1605,466,o),
(1605,360,cs),
(1605,232,ls),
(1605,195,o),
(1601,101,o),
(1599,70,c),
(1537,52,l),
(1540,0,l),
(1830,0,l),
(1834,52,l),
(1772,70,l),
(1769,81,o),
(1767,129,o),
(1767,163,cs),
(1767,308,l),
(1786,330,o),
(1811,341,o),
(1836,341,cs),
(1879,341,o),
(1909,312,o),
(1909,242,cs),
(1909,173,ls),
(1909,148,o),
(1907,95,o),
(1904,70,c),
(1846,52,l),
(1850,0,l),
(2131,0,l),
(2136,52,l),
(2074,71,l)
);
},
{
closed = 1;
nodes = (
(826,0,l),
(829,52,l),
(771,70,l),
(769,81,o),
(767,128,o),
(767,163,cs),
(767,308,l),
(786,330,o),
(810,341,o),
(836,341,cs),
(879,341,o),
(909,312,o),
(909,242,cs),
(909,173,ls),
(909,148,o),
(907,95,o),
(904,70,c),
(850,52,l),
(853,0,l),
(1133,0,l),
(1136,52,l),
(1074,70,l),
(1071,80,o),
(1070,126,o),
(1070,169,cs),
(1070,270,ls),
(1070,382,o),
(1008,454,o),
(916,454,cs),
(858,454,o),
(804,425,o),
(765,368,c),
(762,369,l),
(768,434,l),
(734,452,l),
(533,401,l),
(533,349,l),
(597,335,l),
(604,295,o),
(605,281,o),
(605,242,c),
(604,167,ls),
(604,134,o),
(600,80,o),
(599,70,c),
(537,52,l),
(540,0,l)
);
}
);
};
layerId = "722FC537-28B1-4F35-B842-D78FAAB5B143";
shapes = (
{
closed = 1;
nodes = (
(1070,80,o),
(1069,127,o),
(1069,169,cs),
(1069,270,ls),
(1069,382,o),
(1007,454,o),
(915,454,cs),
(860,454,o),
(803,425,o),
(765,370,c),
(762,371,l),
(762,451,o),
(765,518,o),
(770,596,c),
(738,593,o),
(660,587,o),
(603,587,cs),
(206,587,ls),
(167,587,o),
(63,593,o),
(38,593,c),
(18,404,l),
(91,398,l),
(126,517,l),
(148,520,o),
(156,521,o),
(177,521,cs),
(213,521,ls),
(224,521,o),
(236,520,o),
(239,516,c),
(240,504,o),
(242,417,o),
(242,309,cs),
(242,242,ls),
(242,174,o),
(240,113,o),
(238,76,c),
(149,59,l),
(152,0,l),
(500,0,l),
(503,59,l),
(414,76,l),
(412,113,o),
(410,174,o),
(410,242,cs),
(410,309,ls),
(410,409,o),
(412,504,o),
(413,518,c),
(423,520,o),
(437,521,o),
(456,521,cs),
(529,521,ls),
(546,521,o),
(575,518,o),
(597,515,c),
(599,481,o),
(604,466,o),
(604,360,cs),
(604,232,ls),
(604,195,o),
(600,101,o),
(598,70,c),
(536,52,l),
(539,0,l),
(825,0,l),
(828,52,l),
(770,70,l),
(767,81,o),
(766,129,o),
(766,163,cs),
(766,308,l),
(785,330,o),
(810,341,o),
(835,341,cs),
(878,341,o),
(908,312,o),
(908,242,cs),
(908,173,ls),
(908,148,o),
(906,95,o),
(903,70,c),
(849,52,l),
(852,0,l),
(1132,0,l),
(1135,52,l),
(1073,70,l)
);
}
);
width = 1141;
},
{
layerId = "A0F5A844-D88E-40D3-8473-9812906C4A28";
shapes = (
{
closed = 1;
nodes = (
(906,66,o),
(904,107,o),
(904,155,cs),
(904,263,ls),
(904,382,o),
(834,438,o),
(760,438,cs),
(708,438,o),
(665,417,o),
(618,366,c),
(615,367,l),
(617,469,o),
(617,524,o),
(618,593,c),
(583,590,o),
(552,587,o),
(518,587,cs),
(137,587,ls),
(103,587,o),
(74,588,o),
(38,591,c),
(16,429,l),
(61,423,l),
(102,537,l),
(114,539,o),
(128,540,o),
(141,540,cs),
(177,540,ls),
(191,540,o),
(217,540,o),
(234,538,c),
(235,521,o),
(235,422,o),
(235,358,cs),
(235,223,ls),
(235,138,o),
(233,69,o),
(233,52,c),
(149,40,l),
(151,0,l),
(407,0,l),
(409,40,l),
(324,52,l),
(324,69,o),
(322,138,o),
(322,223,cs),
(322,358,ls),
(322,437,o),
(322,524,o),
(323,538,c),
(341,540,o),
(368,540,o),
(381,540,cs),
(486,540,ls),
(508,540,o),
(526,538,o),
(537,536,c),
(538,493,o),
(540,430,o),
(540,363,cs),
(540,238,ls),
(540,127,o),
(538,72,o),
(535,51,c),
(473,36,l),
(476,0,l),
(681,0,l),
(683,36,l),
(621,51,l),
(619,61,o),
(617,105,o),
(617,165,cs),
(617,315,l),
(644,354,o),
(683,377,o),
(727,377,cs),
(778,377,o),
(827,341,o),
(827,256,cs),
(827,148,ls),
(827,93,o),
(825,66,o),
(824,51,c),
(766,36,l),
(768,0,l),
(969,0,l),
(971,36,l),
(909,51,l)
);
}
);
width = 994;
}
);
metricLeft = T;
metricRight = n;
note = T_h;
},
{
glyphname = a;
kernLeft = a;
kernRight = a;
layers = (
{
anchors = (
{
name = bottom;
pos = (260,0);
},
{
name = ogonek;
pos = (473,0);
},
{
name = top;
pos = (260,446);
}
);
background = {
anchors = (
{
name = bottom;
pos = (261,0);
},
{
name = ogonek;
pos = (474,0);
},
{
name = top;
pos = (261,446);
}
);
shapes = (
{
closed = 1;
nodes = (
(227,-8,o),
(276,24,o),
(315,75,c),
(290,86,l),
(312,36,ls),
(325,6,o),
(345,-8,o),
(376,-8,cs),
(399,-8,o),
(422,-1,o),
(448,10,cs),
(524,44,l),
(524,94,l),
(457,106,l),
(450,119,o),
(448,133,o),
(448,178,c),
(451,299,l),
(452,395,o),
(371,454,o),
(240,454,c),
(187,448,o),
(39,382,o),
(39,323,cs),
(39,276,o),
(92,254,o),
(169,269,c),
(176,343,ls),
(178,363,o),
(184,371,o),
(199,371,cs),
(241,371,o),
(285,330,o),
(285,291,cs),
(285,266,l),
(125,223,ls),
(64,206,o),
(34,173,o),
(34,121,cs),
(34,70,o),
(90,-8,o),
(189,-8,cs)
);
},
{
closed = 1;
nodes = (
(227,101,o),
(200,130,o),
(200,159,cs),
(200,183,o),
(213,198,o),
(247,202,cs),
(287,204,l),
(287,111,l),
(279,106,o),
(265,101,o),
(255,101,cs)
);
}
);
};
layerId = "722FC537-28B1-4F35-B842-D78FAAB5B143";
shapes = (
{
closed = 1;
nodes = (
(226,-8,o),
(274,26,o),
(314,80,c),
(289,86,l),
(311,36,ls),
(324,6,o),
(344,-8,o),
(375,-8,cs),
(398,-8,o),
(421,-2,o),
(447,10,cs),
(523,44,l),
(523,94,l),
(456,106,l),
(449,119,o),
(447,133,o),
(447,178,c),
(450,299,l),
(451,395,o),
(370,454,o),
(239,454,c),
(186,448,o),
(38,382,o),
(38,323,cs),
(38,276,o),
(91,254,o),
(168,269,c),
(175,343,ls),
(177,363,o),
(183,371,o),
(198,371,cs),
(240,371,o),
(284,330,o),
(284,291,cs),
(284,266,l),
(124,223,ls),
(63,207,o),
(33,173,o),
(33,121,cs),
(33,70,o),
(89,-8,o),
(188,-8,cs)
);
},
{
closed = 1;
nodes = (
(226,101,o),
(199,130,o),
(199,159,cs),
(199,183,o),
(212,200,o),
(246,202,cs),
(286,204,l),
(286,111,l),
(277,104,o),
(264,101,o),
(254,101,cs)
);
}
);
width = 523;
},
{
anchors = (
{
name = bottom;
pos = (245,0);
},
{
name = ogonek;
pos = (425,0);
},
{
name = top;
pos = (231,430);
}
);
layerId = "A0F5A844-D88E-40D3-8473-9812906C4A28";
shapes = (
{
closed = 1;
nodes = (
(238,-8,o),
(278,16,o),
(322,66,c),
(307,66,l),
(318,27,ls),
(324,4,o),
(338,-8,o),
(358,-8,cs),
(369,-8,o),
(385,-3,o),
(404,4,cs),
(453,22,l),
(453,53,l),
(389,65,l),
(385,77,o),
(383,104,o),
(383,129,c),
(385,297,l),
(384,381,o),
(319,438,o),
(221,438,c),
(150,428,o),
(61,374,o),
(61,330,cs),
(61,298,o),
(99,282,o),
(147,293,c),
(149,335,ls),
(151,376,o),
(160,387,o),
(194,387,cs),
(255,387,o),
(305,347,o),
(305,297,cs),
(305,246,l),
(153,195,ls),
(86,173,o),
(59,146,o),
(59,101,cs),
(59,47,o),
(116,-8,o),
(196,-8,cs)
);
},
{
closed = 1;
nodes = (
(183,51,o),
(148,83,o),
(148,117,cs),
(148,144,o),
(161,161,o),
(193,169,cs),
(305,199,l),
(305,94,l),
(280,65,o),
(254,51,o),
(223,51,cs)
);
}
);
width = 474;
}
);
note = a;
unicode = 97;
},
{
glyphname = aogonek;
kernLeft = a;
kernRight = a;
layers = (
{
anchors = (
{
name = top;
pos = (260,446);
}
);
background = {
shapes = (
{
closed = 1;
nodes = (
(227,-8,o),
(275,26,o),
(315,80,c),
(290,86,l),
(312,36,ls),
(325,6,o),
(345,-8,o),
(376,-8,cs),
(399,-8,o),
(422,-2,o),
(448,10,cs),
(524,44,l),
(524,94,l),
(457,106,l),
(450,119,o),
(448,133,o),
(448,178,c),
(451,299,l),
(452,395,o),
(371,454,o),
(240,454,c),
(187,448,o),
(39,382,o),
(39,323,cs),
(39,276,o),
(92,254,o),
(169,269,c),
(176,343,ls),
(178,363,o),
(184,371,o),
(199,371,cs),
(241,371,o),
(285,330,o),
(285,291,cs),
(285,266,l),
(125,223,ls),
(64,207,o),
(34,173,o),
(34,121,cs),
(34,70,o),
(90,-8,o),
(189,-8,cs)
);
},
{
closed = 1;
nodes = (
(227,101,o),
(200,130,o),
(200,159,cs),
(200,183,o),
(213,200,o),
(247,202,cs),
(287,204,l),
(287,111,l),
(278,104,o),
(265,101,o),
(255,101,cs)
);
}
);
};
layerId = "722FC537-28B1-4F35-B842-D78FAAB5B143";
shapes = (
{
closed = 1;
nodes = (
(467,-223,o),
(507,-206,o),
(538,-173,c),
(507,-127,l),
(481,-151,o),
(459,-161,o),
(439,-161,cs),
(412,-161,o),
(391,-142,o),
(391,-108,cs),
(391,-71,o),
(413,-37,o),
(523,44,c),
(523,94,l),
(456,106,l),
(448,123,o),
(446,140,o),
(447,178,cs),
(450,299,l),
(451,395,o),
(370,454,o),
(239,454,c),
(186,448,o),
(38,382,o),
(38,323,cs),
(38,276,o),
(91,254,o),
(168,269,c),
(175,343,ls),
(177,365,o),
(184,371,o),
(198,371,cs),
(240,371,o),
(284,330,o),
(284,291,cs),
(284,266,l),
(124,223,ls),
(65,207,o),
(33,174,o),
(33,121,cs),
(33,70,o),
(89,-8,o),
(188,-8,cs),
(226,-8,o),
(274,26,o),
(314,80,c),
(289,86,l),
(311,36,ls),
(331,-9,o),
(365,-11,o),
(415,-4,c),
(398,5,l),
(315,-31,o),
(278,-73,o),
(278,-116,cs),
(278,-180,o),
(344,-223,o),
(417,-223,cs)
);
},
{
closed = 1;
nodes = (
(225,101,o),
(199,131,o),
(199,159,cs),
(199,183,o),
(212,200,o),
(246,202,cs),
(286,204,l),
(286,111,l),
(279,108,o),
(266,101,o),
(254,101,cs)
);
}
);
width = 523;
},
{
anchors = (
{
name = top;
pos = (231,430);
}
);
layerId = "A0F5A844-D88E-40D3-8473-9812906C4A28";
shapes = (
{
closed = 1;
nodes = (
(417,-223,o),
(453,-203,o),
(479,-173,c),
(457,-146,l),
(436,-167,o),
(414,-181,o),
(388,-181,cs),
(353,-181,o),
(330,-158,o),
(330,-122,cs),
(330,-79,o),
(360,-37,o),
(453,22,c),
(453,52,l),
(389,64,l),
(387,70,o),
(382,96,o),
(383,129,cs),
(385,297,l),
(384,381,o),
(319,438,o),
(221,438,c),
(146,427,o),
(61,372,o),
(61,330,cs),
(61,296,o),
(100,282,o),
(147,293,c),
(149,335,ls),
(151,376,o),
(160,387,o),
(194,387,cs),
(255,387,o),
(305,349,o),
(305,298,cs),
(305,246,l),
(153,195,ls),
(84,172,o),
(59,144,o),
(59,101,cs),
(59,47,o),
(116,-8,o),
(196,-8,cs),
(238,-8,o),
(278,16,o),
(322,66,c),
(307,66,l),
(318,27,ls),
(325,0,o),
(350,-16,o),
(400,4,c),
(417,19,l),
(322,-17,o),
(260,-71,o),
(260,-132,cs),
(260,-183,o),
(303,-223,o),
(374,-223,cs)
);
},
{
closed = 1;
nodes = (
(185,51,o),
(148,81,o),
(148,117,cs),
(148,144,o),
(161,160,o),
(193,169,cs),
(305,199,l),
(305,94,l),
(278,63,o),
(251,51,o),
(223,51,cs)
);
}
);
width = 474;
}
);
metricLeft = a;
metricWidth = a;
note = aogonek;
unicode = 261;
},
{
glyphname = ae;
kernLeft = a;
kernRight = e;
layers = (
{
anchors = (
{
name = bottom;
pos = (376,0);
},
{
name = top;
pos = (376,446);
}
);
background = {
shapes = (
{
closed = 1;
nodes = (
(246,-8,o),
(306,16,o),
(370,86,c),
(337,141,l),
(314,114,o),
(298,101,o),
(267,101,cs),
(236,101,o),
(201,121,o),
(201,150,cs),
(201,171,o),
(215,185,o),
(256,191,cs),
(720,249,l),
(720,369,o),
(654,454,o),
(541,454,cs),
(472,454,o),
(414,420,o),
(374,366,c),
(440,366,l),
(404,425,o),
(338,454,o),
(243,454,c),
(193,448,o),
(45,382,o),
(45,323,cs),
(45,279,o),
(94,253,o),
(176,269,c),
(182,343,ls),
(184,366,o),
(193,371,o),
(205,371,cs),
(253,371,o),
(294,329,o),
(294,265,cs),
(294,221,ls),
(294,95,o),
(397,-8,o),
(526,-8,cs),
(617,-8,o),
(695,39,o),
(728,126,c),
(694,158,l),
(663,122,o),
(627,106,o),
(585,106,cs),
(505,106,o),
(458,170,o),
(458,250,cs),
(458,265,ls),
(458,362,o),
(484,389,o),
(520,389,cs),
(558,389,o),
(579,359,o),
(579,296,cs),
(579,255,l),
(604,292,l),
(191,241,ls),
(77,226,o),
(35,185,o),
(35,121,cs),
(35,76,o),
(93,-8,o),
(218,-8,cs)
);
}
);
};
layerId = "722FC537-28B1-4F35-B842-D78FAAB5B143";
shapes = (
{
closed = 1;
nodes = (
(245,-8,o),
(305,18,o),
(369,90,c),
(336,141,l),
(313,114,o),
(297,101,o),
(266,101,cs),
(235,101,o),
(200,121,o),
(200,150,cs),
(200,171,o),
(214,186,o),
(255,191,cs),
(719,249,l),
(719,369,o),
(653,454,o),
(540,454,cs),
(471,454,o),
(415,420,o),
(377,366,c),
(439,366,l),
(403,425,o),
(337,454,o),
(242,454,c),
(192,448,o),
(44,382,o),
(44,323,cs),
(44,279,o),
(93,253,o),
(175,269,c),
(181,343,ls),
(183,366,o),
(192,371,o),
(204,371,cs),
(252,371,o),
(293,329,o),
(293,265,cs),
(293,221,ls),
(293,95,o),
(396,-8,o),
(525,-8,cs),
(616,-8,o),
(694,39,o),
(727,126,c),
(693,158,l),
(662,122,o),
(626,106,o),
(584,106,cs),
(504,106,o),
(457,170,o),
(457,250,cs),
(457,273,ls),
(457,362,o),
(483,389,o),
(522,389,cs),
(557,389,o),
(578,359,o),
(578,296,cs),
(578,255,l),
(603,292,l),
(190,241,ls),
(76,227,o),
(34,185,o),
(34,121,cs),
(34,76,o),
(92,-8,o),
(217,-8,cs)
);
}
);
width = 751;
},
{
anchors = (
{
name = bottom;
pos = (348,0);
},
{
name = top;
pos = (348,430);
}
);
layerId = "A0F5A844-D88E-40D3-8473-9812906C4A28";
shapes = (
{
closed = 1;
nodes = (
(260,-8,o),
(295,13,o),
(362,88,c),
(333,117,l),
(295,70,o),
(266,51,o),
(230,51,cs),
(187,51,o),
(149,80,o),
(149,117,cs),
(149,146,o),
(167,161,o),
(198,167,cs),
(661,255,l),
(661,365,o),
(599,438,o),
(504,438,cs),
(439,438,o),
(386,403,o),
(356,349,c),
(375,349,l),
(355,409,o),
(292,438,o),
(224,438,c),
(150,427,o),
(65,372,o),
(65,330,cs),
(65,296,o),
(106,283,o),
(150,293,c),
(152,335,ls),
(154,373,o),
(161,387,o),
(197,387,cs),
(252,387,o),
(308,351,o),
(308,282,cs),
(308,207,ls),
(308,76,o),
(387,-8,o),
(499,-8,cs),
(568,-8,o),
(625,26,o),
(662,95,c),
(637,119,l),
(601,73,o),
(567,59,o),
(525,59,cs),
(443,59,o),
(388,118,o),
(388,227,cs),
(388,259,ls),
(388,340,o),
(433,396,o),
(494,396,cs),
(548,396,o),
(581,351,o),
(581,279,cs),
(581,255,l),
(594,283,l),
(186,206,ls),
(99,189,o),
(60,155,o),
(60,101,cs),
(60,41,o),
(128,-8,o),
(202,-8,cs)
);
}
);
width = 698;
}
);
metricLeft = "=a+1";
metricRight = "=e+1";
note = ae;
unicode = 230;
},
{
glyphname = b;
kernLeft = b;
kernRight = o;
layers = (
{
anchors = (
{
name = bottom;
pos = (288,0);
},
{
name = top;
pos = (288,660);
}
);
background = {
anchors = (
{
name = bottom;
pos = (289,0);
},
{
name = top;
pos = (289,660);
}
);
shapes = (
{
closed = 1;
nodes = (
(135,3,o),
(194,-8,o),
(262,-8,cs),
(449,-8,o),
(550,115,o),
(550,249,cs),
(550,377,o),
(459,454,o),
(360,454,cs),
(309,454,o),
(254,417,o),
(229,382,c),
(226,383,l),
(230,536,o),
(233,597,o),
(239,680,c),
(206,700,l),
(-13,645,l),
(-11,594,l),
(63,584,l),
(65,551,o),
(68,503,o),
(68,360,c),
(68,271,l),
(68,189,o),
(67,94,o),
(63,30,c)
);
},
{
closed = 1;
nodes = (
(270,86,o),
(245,94,o),
(229,106,c),
(229,319,l),
(243,330,o),
(264,340,o),
(288,340,cs),
(332,340,o),
(377,306,o),
(377,213,cs),
(378,115,o),
(339,86,o),
(289,86,cs)
);
}
);
};
layerId = "722FC537-28B1-4F35-B842-D78FAAB5B143";
shapes = (
{
closed = 1;
nodes = (
(134,3,o),
(193,-9,o),
(261,-9,cs),
(448,-9,o),
(549,115,o),
(549,249,cs),
(549,377,o),
(458,454,o),
(359,454,cs),
(308,454,o),
(253,415,o),
(228,377,c),
(225,378,l),
(229,534,o),
(232,597,o),
(238,680,c),
(205,700,l),
(-14,645,l),
(-12,594,l),
(62,584,l),
(64,551,o),
(67,503,o),
(67,360,c),
(67,271,l),
(67,189,o),
(66,94,o),
(62,30,c)
);
},
{
closed = 1;
nodes = (
(269,83,o),
(244,92,o),
(228,104,c),
(228,319,l),
(242,330,o),
(263,340,o),
(287,340,cs),
(331,340,o),
(375,306,o),
(376,213,cs),
(377,113,o),
(338,83,o),
(288,83,cs)
);
}
);
width = 580;
},
{
anchors = (
{
name = bottom;
pos = (264,0);
},
{
name = top;
pos = (264,660);
}
);
layerId = "A0F5A844-D88E-40D3-8473-9812906C4A28";
shapes = (
{
closed = 1;
nodes = (
(123,6,o),
(182,-8,o),
(239,-8,cs),
(374,-8,o),
(486,90,o),
(486,233,cs),
(486,363,o),
(400,438,o),
(301,438,cs),
(243,438,o),
(191,407,o),
(159,362,c),
(156,363,l),
(158,525,o),
(159,596,o),
(162,680,c),
(143,694,l),
(2,653,l),
(4,621,l),
(78,612,l),
(79,587,o),
(81,454,o),
(81,363,c),
(81,191,l),
(81,134,o),
(81,96,o),
(79,27,c)
);
},
{
closed = 1;
nodes = (
(217,43,o),
(184,55,o),
(157,74,c),
(157,317,l),
(185,354,o),
(225,372,o),
(265,372,cs),
(340,372,o),
(400,322,o),
(398,215,cs),
(397,105,o),
(339,43,o),
(261,43,cs)
);
}
);
width = 526;
}
);
note = b;
unicode = 98;
},
{
glyphname = c;
kernLeft = o;
kernRight = c;
layers = (
{
anchors = (
{
name = bottom;
pos = (270,0);
},
{
name = top;
pos = (270,446);
}
);
background = {
anchors = (
{
name = bottom;
pos = (271,0);
},
{
name = top;
pos = (271,446);
}
);
shapes = (
{
closed = 1;
nodes = (
(348,-8,o),
(428,39,o),
(466,130,c),
(432,162,l),
(395,120,o),
(358,108,o),
(329,108,cs),
(259,108,o),
(206,157,o),
(206,255,cs),
(206,346,o),
(256,394,o),
(303,385,c),
(242,397,l),
(329,325,ls),
(355,303,o),
(375,295,o),
(404,295,cs),
(434,295,o),
(465,314,o),
(465,353,cs),
(465,414,o),
(384,454,o),
(296,454,cs),
(139,454,o),
(32,336,o),
(32,210,cs),
(32,88,o),
(135,-8,o),
(269,-8,cs)
);
}
);
};
layerId = "722FC537-28B1-4F35-B842-D78FAAB5B143";
shapes = (
{
closed = 1;
nodes = (
(347,-8,o),
(427,39,o),
(465,130,c),
(431,162,l),
(394,120,o),
(357,108,o),
(328,108,cs),
(258,108,o),
(205,157,o),
(205,255,cs),
(205,346,o),
(255,394,o),
(302,385,c),
(241,397,l),
(328,325,ls),
(354,303,o),
(374,295,o),
(403,295,cs),
(433,295,o),
(464,314,o),
(464,353,cs),
(464,414,o),
(383,454,o),
(295,454,cs),
(138,454,o),
(31,336,o),
(31,210,cs),
(31,88,o),
(134,-8,o),
(268,-8,cs)
);
}
);
width = 481;
},
{
anchors = (
{
name = bottom;
pos = (247,0);
},
{
name = top;
pos = (247,430);
}
);
layerId = "A0F5A844-D88E-40D3-8473-9812906C4A28";
shapes = (
{
closed = 1;
nodes = (
(321,-8,o),
(379,26,o),
(417,95,c),
(390,118,l),
(357,76,o),
(323,59,o),
(272,59,cs),
(191,59,o),
(130,118,o),
(130,225,cs),
(130,353,o),
(212,411,o),
(292,394,c),
(256,404,l),
(307,353,ls),
(330,329,o),
(342,323,o),
(364,323,cs),
(388,323,o),
(402,338,o),
(402,360,cs),
(402,400,o),
(354,438,o),
(267,438,cs),
(138,438,o),
(41,337,o),
(41,207,cs),
(41,72,o),
(134,-8,o),
(247,-8,cs)
);
}
);
width = 425;
}
);
note = c;
unicode = 99;
},
{
glyphname = d;
kernLeft = o;
kernRight = l;
layers = (
{
anchors = (
{
name = bottom;
pos = (308,0);
},
{
name = center;
pos = (288,223);
},
{
name = stroke;
pos = (367,517);
},
{
name = top;
pos = (288,660);
},
{
name = topright;
pos = (540,688);
}
);
background = {
anchors = (
{
name = bottom;
pos = (309,0);
},
{
name = center;
pos = (289,223);
},
{
name = stroke;
pos = (368,517);
},
{
name = top;
pos = (289,660);
},
{
name = topright;
pos = (541,688);
}
);
shapes = (
{
closed = 1;
nodes = (
(574,40,l),
(574,90,l),
(506,103,l),
(503,146,o),
(500,171,o),
(500,233,c),
(501,467,ls),
(501,537,o),
(507,597,o),
(511,680,c),
(478,700,l),
(261,645,l),
(263,595,l),
(335,587,l),
(337,554,o),
(339,503,o),
(339,449,c),
(329,449,o),
(308,452,o),
(291,452,cs),
(161,452,o),
(32,359,o),
(32,208,cs),
(32,75,o),
(127,-11,o),
(228,-11,cs),
(270,-11,o),
(314,9,o),
(343,66,c),
(346,64,l),
(345,2,l),
(380,-14,l)
);
},
{
closed = 1;
nodes = (
(244,105,o),
(203,155,o),
(203,250,cs),
(203,333,o),
(242,383,o),
(293,383,cs),
(311,383,o),
(327,379,o),
(341,368,c),
(341,138,l),
(331,115,o),
(301,105,o),
(291,105,cs)
);
}
);
};
layerId = "722FC537-28B1-4F35-B842-D78FAAB5B143";
shapes = (
{
closed = 1;
nodes = (
(573,40,l),
(573,90,l),
(505,103,l),
(502,146,o),
(499,171,o),
(499,233,c),
(500,467,ls),
(500,537,o),
(506,597,o),
(510,680,c),
(477,700,l),
(260,645,l),
(262,595,l),
(334,587,l),
(336,554,o),
(338,502,o),
(338,445,c),
(326,449,o),
(305,452,o),
(287,452,cs),
(160,452,o),
(31,359,o),
(31,208,cs),
(31,75,o),
(126,-11,o),
(227,-11,cs),
(269,-11,o),
(312,10,o),
(342,71,c),
(345,69,l),
(344,2,l),
(379,-14,l)
);
},
{
closed = 1;
nodes = (
(243,105,o),
(202,155,o),
(202,250,cs),
(202,333,o),
(241,383,o),
(292,383,cs),
(310,383,o),
(326,379,o),
(340,368,c),
(340,138,l),
(330,115,o),
(300,105,o),
(290,105,cs)
);
}
);
width = 577;
},
{
anchors = (
{
name = bottom;
pos = (284,0);
},
{
name = center;
pos = (271,215);
},
{
name = stroke;
pos = (348,519);
},
{
name = top;
pos = (271,660);
},
{
name = topright;
pos = (485,688);
}
);
layerId = "A0F5A844-D88E-40D3-8473-9812906C4A28";
shapes = (
{
closed = 1;
nodes = (
(514,21,l),
(514,54,l),
(450,70,l),
(448,90,o),
(444,141,o),
(444,209,c),
(445,439,ls),
(445,523,o),
(446,597,o),
(449,680,c),
(431,694,l),
(284,653,l),
(286,620,l),
(364,606,l),
(366,582,o),
(368,457,o),
(368,409,c),
(341,429,o),
(299,438,o),
(262,438,cs),
(146,438,o),
(40,342,o),
(40,200,cs),
(40,78,o),
(124,-8,o),
(238,-8,cs),
(285,-8,o),
(326,12,o),
(366,68,c),
(369,67,l),
(368,2,l),
(383,-11,l)
);
},
{
closed = 1;
nodes = (
(188,59,o),
(128,120,o),
(128,226,cs),
(128,325,o),
(178,393,o),
(262,393,cs),
(301,393,o),
(343,376,o),
(368,331,c),
(368,116,l),
(333,73,o),
(301,59,o),
(263,59,cs)
);
}
);
width = 539;
}
);
note = d;
unicode = 100;
},
{
glyphname = eth;
kernLeft = eth;
kernRight = eth;
layers = (
{
background = {
shapes = (
{
closed = 1;
nodes = (
(424,435,l),
(392,443,o),
(348,452,o),
(314,452,cs),
(141,452,o),
(32,368,o),
(32,222,cs),
(32,95,o),
(136,-8,o),
(279,-8,cs),
(416,-8,o),
(510,92,o),
(510,276,cs),
(510,465,o),
(386,651,o),
(212,688,c),
(33,688,l),
(31,637,l),
(258,582,o),
(346,454,o),
(346,223,cs),
(346,112,o),
(329,68,o),
(298,68,cs),
(258,68,o),
(205,113,o),
(205,240,cs),
(205,327,o),
(246,380,o),
(313,380,cs),
(338,380,o),
(371,375,o),
(396,367,c)
);
},
{
closed = 1;
nodes = (
(469,633,l),
(440,698,l),
(57,528,l),
(86,463,l)
);
}
);
};
layerId = "722FC537-28B1-4F35-B842-D78FAAB5B143";
shapes = (
{
closed = 1;
nodes = (
(423,435,l),
(391,443,o),
(347,452,o),
(313,452,cs),
(140,452,o),
(31,368,o),
(31,222,cs),
(31,95,o),
(135,-8,o),
(278,-8,cs),
(415,-8,o),
(509,92,o),
(509,276,cs),
(509,465,o),
(385,651,o),
(211,688,c),
(32,688,l),
(30,637,l),
(257,582,o),
(345,454,o),
(345,223,cs),
(345,112,o),
(328,68,o),
(297,68,cs),
(257,68,o),
(204,113,o),
(204,240,cs),
(204,327,o),
(245,380,o),
(312,380,cs),
(337,380,o),
(370,375,o),
(395,367,c)
);
},
{
closed = 1;
nodes = (
(468,633,l),
(439,698,l),
(56,528,l),
(85,463,l)
);
}
);
width = 542;
},
{
color = 3;
layerId = "A0F5A844-D88E-40D3-8473-9812906C4A28";
shapes = (
{
closed = 1;
nodes = (
(389,417,l),
(348,433,o),
(308,438,o),
(276,438,cs),
(145,438,o),
(41,354,o),
(41,209,cs),
(41,68,o),
(137,-8,o),
(250,-8,cs),
(374,-8,o),
(458,90,o),
(458,271,cs),
(458,454,o),
(337,632,o),
(163,688,c),
(62,688,l),
(60,656,l),
(265,591,o),
(372,440,o),
(372,236,cs),
(372,94,o),
(334,40,o),
(263,40,cs),
(185,40,o),
(131,111,o),
(131,220,cs),
(131,333,o),
(183,392,o),
(275,392,cs),
(309,392,o),
(345,387,o),
(380,367,c)
);
},
{
closed = 1;
nodes = (
(406,658,l),
(386,698,l),
(72,544,l),
(91,504,l)
);
}
);
width = 500;
}
);
note = eth;
unicode = 240;
},
{
glyphname = e;
kernLeft = o;
kernRight = e;
layers = (
{
anchors = (
{
name = bottom;
pos = (263,0);
},
{
name = ogonek;
pos = (410,0);
},
{
name = top;
pos = (263,446);
}
);
background = {
anchors = (
{
name = bottom;
pos = (264,0);
},
{
name = ogonek;
pos = (411,0);
},
{
name = top;
pos = (264,446);
}
);
shapes = (
{
closed = 1;
nodes = (
(359,-8,o),
(438,39,o),
(475,126,c),
(441,159,l),
(407,122,o),
(370,106,o),
(325,106,cs),
(242,106,o),
(191,167,o),
(191,250,cs),
(191,276,ls),
(191,353,o),
(220,389,o),
(264,389,cs),
(306,389,o),
(330,353,o),
(330,298,cs),
(330,255,l),
(349,286,l),
(188,286,l),
(188,229,l),
(468,229,l),
(468,257,ls),
(468,374,o),
(393,454,o),
(272,454,cs),
(148,453,o),
(33,354,o),
(33,217,cs),
(33,96,o),
(128,-8,o),
(266,-8,cs)
);
}
);
};
layerId = "722FC537-28B1-4F35-B842-D78FAAB5B143";
shapes = (
{
closed = 1;
nodes = (
(358,-8,o),
(437,39,o),
(474,126,c),
(440,159,l),
(406,122,o),
(369,106,o),
(324,106,cs),
(241,106,o),
(190,167,o),
(190,250,cs),
(190,276,ls),
(190,353,o),
(219,389,o),
(263,389,cs),
(305,389,o),
(329,353,o),
(329,298,cs),
(329,255,l),
(348,286,l),
(177,286,l),
(177,229,l),
(467,229,l),
(467,257,ls),
(467,374,o),
(392,454,o),
(271,454,cs),
(147,453,o),
(32,354,o),
(32,217,cs),
(32,96,o),
(127,-8,o),
(265,-8,cs)
);
}
);
width = 497;
},
{
anchors = (
{
name = bottom;
pos = (240,0);
},
{
name = ogonek;
pos = (363,0);
},
{
name = top;
pos = (240,430);
}
);
layerId = "A0F5A844-D88E-40D3-8473-9812906C4A28";
shapes = (
{
closed = 1;
nodes = (
(319,-8,o),
(377,26,o),
(415,95,c),
(390,118,l),
(355,76,o),
(320,59,o),
(273,59,cs),
(188,59,o),
(128,123,o),
(128,233,cs),
(128,245,ls),
(128,346,o),
(183,396,o),
(240,396,cs),
(300,396,o),
(337,353,o),
(337,276,cs),
(337,255,l),
(348,268,l),
(107,268,l),
(107,224,l),
(414,224,l),
(414,242,ls),
(414,366,o),
(352,437,o),
(248,438,cs),
(140,439,o),
(42,349,o),
(42,207,cs),
(42,74,o),
(132,-8,o),
(248,-8,cs)
);
}
);
width = 450;
}
);
note = e;
unicode = 101;
},
{
glyphname = eogonek;
kernLeft = o;
kernRight = e;
layers = (
{
anchors = (
{
name = top;
pos = (263,446);
}
);
background = {
anchors = (
{
name = top;
pos = (264,446);
}
);
shapes = (
{
closed = 1;
nodes = (
(418,-151,o),
(396,-161,o),
(377,-161,cs),
(350,-161,o),
(328,-142,o),
(328,-105,cs),
(328,-60,o),
(355,-24,o),
(419,47,cs),
(443,74,o),
(465,101,o),
(475,126,c),
(441,159,l),
(407,122,o),
(370,106,o),
(325,106,cs),
(242,106,o),
(191,167,o),
(191,250,cs),
(191,276,ls),
(191,353,o),
(220,389,o),
(264,389,cs),
(306,389,o),
(330,353,o),
(330,298,cs),
(330,255,l),
(349,286,l),
(188,286,l),
(188,229,l),
(468,229,l),
(468,257,ls),
(468,374,o),
(393,454,o),
(272,454,cs),
(148,453,o),
(33,354,o),
(33,217,cs),
(33,96,o),
(128,-8,o),
(266,-8,cs),
(280,-8,o),
(294,-10,o),
(338,4,c),
(335,13,l),
(241,-32,o),
(216,-76,o),
(216,-116,cs),
(216,-180,o),
(282,-223,o),
(355,-223,cs),
(404,-223,o),
(445,-206,o),
(476,-173,c),
(444,-127,l)
);
}
);
};
layerId = "722FC537-28B1-4F35-B842-D78FAAB5B143";
shapes = (
{
closed = 1;
nodes = (
(417,-151,o),
(395,-161,o),
(376,-161,cs),
(349,-161,o),
(327,-142,o),
(327,-105,cs),
(327,-60,o),
(354,-24,o),
(418,47,cs),
(442,74,o),
(464,101,o),
(474,126,c),
(440,159,l),
(406,122,o),
(369,106,o),
(324,106,cs),
(241,106,o),
(190,167,o),
(190,250,cs),
(190,276,ls),
(190,353,o),
(219,389,o),
(263,389,cs),
(305,389,o),
(329,353,o),
(329,298,cs),
(329,255,l),
(348,286,l),
(177,286,l),
(177,229,l),
(467,229,l),
(467,257,ls),
(467,374,o),
(392,454,o),
(271,454,cs),
(147,454,o),
(32,354,o),
(32,217,cs),
(32,96,o),
(127,-8,o),
(265,-8,cs),
(279,-8,o),
(293,-10,o),
(337,4,c),
(334,13,l),
(240,-32,o),
(215,-76,o),
(215,-116,cs),
(215,-180,o),
(281,-223,o),
(354,-223,cs),
(403,-223,o),
(444,-206,o),
(475,-173,c),
(443,-127,l)
);
}
);
width = 497;
},
{
anchors = (
{
name = top;
pos = (240,430);
}
);
layerId = "A0F5A844-D88E-40D3-8473-9812906C4A28";
shapes = (
{
closed = 1;
nodes = (
(373,-167,o),
(351,-181,o),
(326,-181,cs),
(290,-181,o),
(267,-158,o),
(267,-122,cs),
(267,-79,o),
(300,-38,o),
(373,39,cs),
(388,54,o),
(402,73,o),
(415,95,c),
(390,118,l),
(355,76,o),
(320,59,o),
(273,59,cs),
(188,59,o),
(128,123,o),
(128,233,cs),
(128,245,ls),
(128,346,o),
(183,396,o),
(240,396,cs),
(300,396,o),
(337,353,o),
(337,276,cs),
(337,255,l),
(348,268,l),
(107,268,l),
(107,224,l),
(414,224,l),
(414,242,ls),
(414,366,o),
(352,436,o),
(248,438,cs),
(140,439,o),
(42,349,o),
(42,206,cs),
(42,74,o),
(132,-8,o),
(248,-8,cs),
(272,-8,o),
(298,-5,o),
(320,6,c),
(325,19,l),
(243,-30,o),
(198,-79,o),
(198,-132,cs),
(198,-183,o),
(242,-223,o),
(311,-223,cs),
(355,-223,o),
(391,-203,o),
(416,-173,c),
(395,-146,l)
);
}
);
width = 450;
}
);
metricLeft = e;
metricWidth = e;
note = eogonek;
unicode = 281;
},
{
glyphname = schwa;
kernLeft = o;
kernRight = o;
layers = (
{
background = {
shapes = (
{
closed = 1;
nodes = (
(139,454,o),
(63,406,o),
(24,319,c),
(58,287,l),
(93,326,o),
(131,342,o),
(185,342,cs),
(262,342,o),
(313,283,o),
(313,195,cs),
(313,169,ls),
(313,98,o),
(290,55,o),
(248,55,cs),
(201,55,o),
(175,89,o),
(175,148,cs),
(175,191,l),
(155,159,l),
(317,159,l),
(317,217,l),
(31,217,l),
(31,189,ls),
(31,70,o),
(115,-9,o),
(245,-8,cs),
(368,-7,o),
(471,91,o),
(471,229,cs),
(471,355,o),
(373,454,o),
(243,454,cs)
);
}
);
};
layerId = "722FC537-28B1-4F35-B842-D78FAAB5B143";
shapes = (
{
closed = 1;
nodes = (
(138,454,o),
(62,406,o),
(23,319,c),
(57,287,l),
(92,326,o),
(130,342,o),
(184,342,cs),
(261,342,o),
(312,283,o),
(312,195,cs),
(312,169,ls),
(312,98,o),
(289,55,o),
(247,55,cs),
(200,55,o),
(174,89,o),
(174,148,cs),
(174,191,l),
(154,159,l),
(316,159,l),
(316,217,l),
(30,217,l),
(30,189,ls),
(30,70,o),
(114,-9,o),
(244,-8,cs),
(367,-7,o),
(470,91,o),
(470,229,cs),
(470,355,o),
(372,454,o),
(242,454,cs)
);
}
);
width = 502;
},
{
layerId = "A0F5A844-D88E-40D3-8473-9812906C4A28";
shapes = (
{
closed = 1;
nodes = (
(134,438,o),
(71,401,o),
(35,335,c),
(61,311,l),
(94,354,o),
(134,372,o),
(186,372,cs),
(273,372,o),
(327,305,o),
(327,197,cs),
(327,185,ls),
(327,92,o),
(288,35,o),
(223,35,cs),
(159,35,o),
(118,80,o),
(118,154,cs),
(118,175,l),
(106,162,l),
(348,162,l),
(348,206,l),
(37,206,l),
(37,189,ls),
(37,67,o),
(106,-7,o),
(218,-8,cs),
(329,-9,o),
(413,80,o),
(413,224,cs),
(413,351,o),
(332,438,o),
(212,438,cs)
);
}
);
width = 455;
}
);
metricLeft = "=|e";
metricRight = "=|e";
unicode = 601;
},
{
glyphname = f;
kernLeft = f;
kernRight = f;
layers = (
{
background = {
shapes = (
{
closed = 1;
nodes = (
(330,51,l),
(248,70,l),
(242,129,o),
(241,211,o),
(241,283,c),
(240,372,l),
(238,444,l),
(238,513,ls),
(238,599,o),
(254,644,o),
(288,644,c),
(231,651,l),
(296,592,ls),
(319,573,o),
(339,564,o),
(361,564,cs),
(396,564,o),
(416,582,o),
(416,616,cs),
(416,665,o),
(364,698,o),
(288,698,cs),
(169,698,o),
(77,594,o),
(77,458,cs),
(77,372,l),
(78,285,l),
(78,149,o),
(78,142,o),
(76,70,c),
(14,52,l),
(17,0,l),
(327,0,l)
);
},
{
closed = 1;
nodes = (
(342,372,l),
(342,444,l),
(126,444,l),
(77,449,l),
(5,427,l),
(5,372,l)
);
}
);
};
layerId = "722FC537-28B1-4F35-B842-D78FAAB5B143";
shapes = (
{
closed = 1;
nodes = (
(329,51,l),
(247,70,l),
(241,129,o),
(240,211,o),
(240,283,c),
(239,372,l),
(237,444,l),
(237,513,ls),
(237,599,o),
(253,644,o),
(287,644,c),
(230,651,l),
(295,592,ls),
(318,573,o),
(338,564,o),
(360,564,cs),
(395,564,o),
(415,582,o),
(415,616,cs),
(415,665,o),
(363,698,o),
(287,698,cs),
(168,698,o),
(76,594,o),
(76,458,cs),
(76,372,l),
(77,285,l),
(77,149,o),
(77,142,o),
(75,70,c),
(13,52,l),
(16,0,l),
(326,0,l)
);
},
{
closed = 1;
nodes = (
(341,372,l),
(341,444,l),
(125,444,l),
(76,449,l),
(4,427,l),
(4,372,l)
);
}
);
width = 346;
},
{
layerId = "A0F5A844-D88E-40D3-8473-9812906C4A28";
shapes = (
{
closed = 1;
nodes = (
(258,38,l),
(176,51,l),
(175,83,o),
(173,148,o),
(173,206,c),
(172,378,l),
(171,428,l),
(171,520,ls),
(171,612,o),
(199,665,o),
(248,665,c),
(224,671,l),
(270,627,ls),
(286,611,o),
(299,605,o),
(317,605,cs),
(336,605,o),
(350,617,o),
(350,636,cs),
(350,671,o),
(309,698,o),
(255,698,cs),
(159,698,o),
(95,619,o),
(95,492,cs),
(95,378,l),
(96,198,l),
(96,108,o),
(96,77,o),
(94,51,c),
(32,36,l),
(35,0,l),
(256,0,l)
);
},
{
closed = 1;
nodes = (
(282,378,l),
(282,428,l),
(169,428,l),
(95,428,l),
(23,411,l),
(23,378,l)
);
}
);
width = 303;
}
);
note = f;
unicode = 102;
},
{
glyphname = g;
kernLeft = g;
kernRight = g;
layers = (
{
anchors = (
{
name = bottom;
pos = (270,-220);
},
{
name = top;
pos = (264,446);
}
);
background = {
anchors = (
{
name = bottom;
pos = (271,-220);
},
{
name = top;
pos = (265,446);
}
);
shapes = (
{
closed = 1;
nodes = (
(410,-228,o),
(523,-152,o),
(523,-56,cs),
(523,12,o),
(478,60,o),
(378,70,cs),
(203,88,ls),
(191,90,o),
(185,94,o),
(185,107,cs),
(185,118,o),
(193,127,o),
(203,132,c),
(185,147,l),
(103,127,o),
(53,87,o),
(53,40,cs),
(53,-3,o),
(93,-31,o),
(172,-31,c),
(178,-37,l),
(323,-50,ls),
(366,-55,o),
(382,-67,o),
(382,-93,cs),
(382,-132,o),
(332,-162,o),
(268,-162,cs),
(197,-162,o),
(162,-140,o),
(162,-100,cs),
(162,-74,o),
(179,-44,o),
(203,-24,c),
(156,-20,l),
(73,-34,o),
(13,-76,o),
(13,-120,cs),
(13,-188,o),
(101,-228,o),
(254,-228,cs)
);
},
{
closed = 1;
nodes = (
(387,115,o),
(474,182,o),
(474,280,cs),
(474,378,o),
(383,457,o),
(264,457,cs),
(138,457,o),
(42,386,o),
(42,286,cs),
(42,182,o),
(125,115,o),
(256,115,cs)
);
},
{
closed = 1;
nodes = (
(233,184,o),
(210,226,o),
(210,287,cs),
(210,347,o),
(231,388,o),
(263,388,cs),
(296,388,o),
(318,345,o),
(318,281,cs),
(318,221,o),
(297,184,o),
(266,184,cs)
);
},
{
closed = 1;
nodes = (
(525,443,l),
(343,421,l),
(361,369,l),
(525,352,l)
);
}
);
};
layerId = "722FC537-28B1-4F35-B842-D78FAAB5B143";
shapes = (
{
closed = 1;
nodes = (
(409,-228,o),
(522,-152,o),
(522,-56,cs),
(522,12,o),
(477,61,o),
(377,71,cs),
(202,88,ls),
(190,89,o),
(184,94,o),
(184,107,cs),
(184,118,o),
(192,127,o),
(202,132,c),
(184,147,l),
(102,127,o),
(52,87,o),
(52,40,cs),
(52,-3,o),
(92,-31,o),
(171,-31,c),
(177,-36,l),
(322,-50,ls),
(365,-54,o),
(381,-67,o),
(381,-93,cs),
(381,-132,o),
(331,-162,o),
(267,-162,cs),
(196,-162,o),
(161,-140,o),
(161,-100,cs),
(161,-74,o),
(178,-44,o),
(202,-24,c),
(157,-23,l),
(74,-34,o),
(12,-76,o),
(12,-120,cs),
(12,-188,o),
(100,-228,o),
(253,-228,cs)
);
},
{
closed = 1;
nodes = (
(386,115,o),
(473,182,o),
(473,280,cs),
(473,378,o),
(382,457,o),
(263,457,cs),
(137,457,o),
(41,386,o),
(41,286,cs),
(41,182,o),
(124,115,o),
(255,115,cs)
);
},
{
closed = 1;
nodes = (
(232,184,o),
(209,226,o),
(209,287,cs),
(209,347,o),
(230,388,o),
(262,388,cs),
(295,388,o),
(317,345,o),
(317,281,cs),
(317,221,o),
(296,184,o),
(265,184,cs)
);
},
{
closed = 1;
nodes = (
(524,443,l),
(362,421,l),
(380,369,l),
(524,352,l)
);
}
);
width = 539;
},
{
anchors = (
{
name = bottom;
pos = (244,-220);
},
{
name = top;
pos = (241,430);
}
);
layerId = "A0F5A844-D88E-40D3-8473-9812906C4A28";
shapes = (
{
closed = 1;
nodes = (
(360,-228,o),
(459,-157,o),
(459,-65,cs),
(459,4,o),
(410,41,o),
(318,50,cs),
(189,63,ls),
(158,66,o),
(141,80,o),
(141,99,cs),
(141,112,o),
(152,125,o),
(178,143,c),
(165,163,l),
(103,136,o),
(67,100,o),
(67,64,cs),
(67,27,o),
(106,-3,o),
(155,-3,c),
(170,-7,l),
(277,-16,ls),
(352,-22,o),
(382,-42,o),
(382,-87,cs),
(382,-146,o),
(323,-187,o),
(237,-187,cs),
(162,-187,o),
(116,-156,o),
(116,-103,cs),
(116,-65,o),
(141,-30,o),
(185,-4,c),
(147,4,l),
(67,-36,o),
(33,-73,o),
(33,-118,cs),
(33,-185,o),
(110,-228,o),
(233,-228,cs)
);
},
{
closed = 1;
nodes = (
(340,124,o),
(418,192,o),
(418,281,cs),
(418,371,o),
(342,437,o),
(240,437,cs),
(137,437,o),
(59,366,o),
(59,272,cs),
(59,186,o),
(134,124,o),
(241,124,cs)
);
},
{
closed = 1;
nodes = (
(186,164,o),
(146,212,o),
(146,283,cs),
(146,351,o),
(184,398,o),
(239,398,cs),
(296,398,o),
(335,349,o),
(335,274,cs),
(335,207,o),
(300,164,o),
(246,164,cs)
);
},
{
closed = 1;
nodes = (
(478,429,l),
(320,413,l),
(359,373,l),
(478,365,l)
);
}
);
width = 495;
}
);
note = g;
unicode = 103;
},
{
glyphname = h;
kernLeft = l;
kernRight = n;
layers = (
{
anchors = (
{
name = bottom;
pos = (310,0);
},
{
name = stroke;
pos = (207,517);
},
{
name = top;
pos = (159,660);
}
);
background = {
anchors = (
{
name = bottom;
pos = (1111,0);
},
{
name = stroke;
pos = (1008,517);
},
{
name = top;
pos = (960,660);
}
);
shapes = (
{
closed = 1;
nodes = (
(1103,0,l),
(1106,52,l),
(1044,70,l),
(1042,80,o),
(1040,121,o),
(1040,163,cs),
(1040,308,l),
(1059,330,o),
(1083,341,o),
(1109,341,cs),
(1152,341,o),
(1182,312,o),
(1182,242,cs),
(1182,173,ls),
(1182,148,o),
(1180,95,o),
(1177,70,c),
(1119,52,l),
(1122,0,l),
(1404,0,l),
(1409,52,l),
(1347,70,l),
(1344,79,o),
(1343,126,o),
(1343,169,cs),
(1343,270,ls),
(1343,382,o),
(1281,454,o),
(1189,454,cs),
(1131,454,o),
(1077,425,o),
(1039,376,c),
(1036,377,l),
(1039,545,o),
(1042,600,o),
(1048,680,c),
(1015,700,l),
(796,645,l),
(798,594,l),
(872,584,l),
(876,527,o),
(878,452,o),
(878,360,cs),
(878,232,ls),
(878,193,o),
(874,99,o),
(872,70,c),
(810,52,l),
(813,0,l)
);
},
{
closed = 1;
nodes = (
(299,0,l),
(302,52,l),
(244,70,l),
(242,81,o),
(240,128,o),
(240,163,cs),
(240,308,l),
(259,330,o),
(283,341,o),
(309,341,cs),
(352,341,o),
(382,312,o),
(382,242,cs),
(382,173,ls),
(382,148,o),
(380,95,o),
(377,70,c),
(323,52,l),
(326,0,l),
(605,0,l),
(609,52,l),
(547,70,l),
(544,80,o),
(543,126,o),
(543,169,cs),
(543,270,ls),
(543,382,o),
(481,454,o),
(389,454,cs),
(331,454,o),
(277,425,o),
(238,368,c),
(235,369,l),
(241,434,l),
(207,452,l),
(6,401,l),
(6,349,l),
(70,335,l),
(77,295,o),
(78,281,o),
(78,242,c),
(77,167,ls),
(76,134,o),
(73,80,o),
(72,70,c),
(10,52,l),
(13,0,l)
);
}
);
};
layerId = "722FC537-28B1-4F35-B842-D78FAAB5B143";
shapes = (
{
closed = 1;
nodes = (
(298,0,l),
(301,52,l),
(243,70,l),
(241,80,o),
(239,121,o),
(239,163,cs),
(239,308,l),
(258,330,o),
(282,341,o),
(308,341,cs),
(351,341,o),
(381,312,o),
(381,242,cs),
(381,173,ls),
(381,148,o),
(379,95,o),
(376,70,c),
(322,52,l),
(325,0,l),
(605,0,l),
(608,52,l),
(546,70,l),
(543,79,o),
(542,126,o),
(542,169,cs),
(542,270,ls),
(542,382,o),
(480,454,o),
(388,454,cs),
(330,454,o),
(276,425,o),
(238,369,c),
(235,370,l),
(238,545,o),
(241,600,o),
(247,680,c),
(214,700,l),
(-5,645,l),
(-3,594,l),
(71,584,l),
(75,527,o),
(77,452,o),
(77,360,cs),
(77,232,ls),
(77,193,o),
(73,99,o),
(71,70,c),
(9,52,l),
(12,0,l)
);
}
);
width = 614;
},
{
anchors = (
{
name = bottom;
pos = (278,0);
},
{
name = stroke;
pos = (197,519);
},
{
name = top;
pos = (134,660);
}
);
layerId = "A0F5A844-D88E-40D3-8473-9812906C4A28";
shapes = (
{
closed = 1;
nodes = (
(236,0,l),
(238,36,l),
(177,51,l),
(174,61,o),
(172,104,o),
(172,165,cs),
(172,315,l),
(199,354,o),
(239,377,o),
(282,377,cs),
(334,377,o),
(383,341,o),
(383,256,cs),
(383,148,ls),
(383,93,o),
(381,66,o),
(379,51,c),
(321,36,l),
(324,0,l),
(525,0,l),
(527,36,l),
(465,51,l),
(462,65,o),
(459,107,o),
(459,155,cs),
(459,263,ls),
(459,382,o),
(389,438,o),
(316,438,cs),
(263,438,o),
(220,417,o),
(174,366,c),
(171,367,l),
(172,524,o),
(173,597,o),
(176,680,c),
(157,694,l),
(16,653,l),
(18,621,l),
(92,611,l),
(94,587,o),
(96,453,o),
(96,363,cs),
(96,238,ls),
(96,127,o),
(94,72,o),
(91,51,c),
(29,36,l),
(31,0,l)
);
}
);
width = 550;
}
);
metricRight = n;
note = h;
unicode = 104;
},
{
glyphname = idotless;
kernLeft = n;
kernRight = i;
layers = (
{
anchors = (
{
name = bottom;
pos = (160,0);
},
{
name = ogonek;
pos = (218,0);
},
{
name = top;
pos = (160,446);
}
);
background = {
anchors = (
{
name = bottom;
pos = (161,0);
},
{
name = ogonek;
pos = (219,0);
},
{
name = top;
pos = (161,446);
}
);
shapes = (
{
closed = 1;
nodes = (
(310,0,l),
(313,54,l),
(246,70,l),
(244,81,o),
(242,129,o),
(242,163,cs),
(242,291,ls),
(242,346,o),
(244,389,o),
(248,434,c),
(213,452,l),
(4,401,l),
(4,349,l),
(71,335,l),
(78,295,o),
(79,278,o),
(79,241,c),
(78,167,l),
(77,135,o),
(74,80,o),
(73,70,c),
(6,54,l),
(9,0,l)
);
}
);
};
layerId = "722FC537-28B1-4F35-B842-D78FAAB5B143";
shapes = (
{
closed = 1;
nodes = (
(307,0,l),
(310,54,l),
(245,70,l),
(243,81,o),
(241,129,o),
(241,163,cs),
(241,291,ls),
(241,346,o),
(243,389,o),
(247,434,c),
(212,452,l),
(4,401,l),
(4,349,l),
(70,335,l),
(77,295,o),
(78,278,o),
(78,241,c),
(77,167,l),
(76,135,o),
(73,80,o),
(72,70,c),
(7,54,l),
(10,0,l)
);
}
);
width = 319;
},
{
anchors = (
{
name = bottom;
pos = (134,0);
},
{
name = ogonek;
pos = (192,0);
},
{
name = top;
pos = (134,430);
}
);
layerId = "A0F5A844-D88E-40D3-8473-9812906C4A28";
shapes = (
{
closed = 1;
nodes = (
(243,0,l),
(245,37,l),
(178,51,l),
(175,61,o),
(173,104,o),
(173,165,cs),
(173,291,ls),
(173,344,o),
(175,381,o),
(179,422,c),
(164,436,l),
(22,399,l),
(22,366,l),
(89,352,l),
(93,327,o),
(96,279,o),
(96,224,c),
(96,158,l),
(95,80,o),
(93,58,o),
(92,51,c),
(25,37,l),
(27,0,l)
);
}
);
width = 268;
}
);
note = dotlessi;
unicode = 305;
},
{
glyphname = iogonek;
kernLeft = n;
kernRight = i;
layers = (
{
background = {
shapes = (
{
closed = 1;
nodes = (
(212,-223,o),
(253,-206,o),
(284,-173,c),
(252,-127,l),
(226,-151,o),
(204,-161,o),
(185,-161,cs),
(158,-161,o),
(136,-142,o),
(136,-110,cs),
(136,-85,o),
(148,-3,o),
(310,0,c),
(313,54,l),
(246,70,l),
(244,81,o),
(242,129,o),
(242,163,cs),
(242,291,ls),
(242,346,o),
(244,389,o),
(248,434,c),
(213,452,l),
(4,401,l),
(4,349,l),
(71,335,l),
(78,295,o),
(78,278,o),
(79,241,cs),
(78,167,ls),
(77,135,o),
(74,80,o),
(73,70,c),
(6,54,l),
(9,0,l),
(196,0,l),
(199,13,l),
(73,-16,o),
(24,-66,o),
(24,-116,cs),
(24,-180,o),
(90,-223,o),
(163,-223,cs)
);
},
{
alignment = -1;
pos = (-139,0);
ref = dotaccentcomb.i;
}
);
};
layerId = "722FC537-28B1-4F35-B842-D78FAAB5B143";
shapes = (
{
closed = 1;
nodes = (
(211,-223,o),
(252,-206,o),
(283,-173,c),
(251,-127,l),
(225,-151,o),
(203,-161,o),
(184,-161,cs),
(157,-161,o),
(135,-142,o),
(135,-110,cs),
(135,-85,o),
(147,-3,o),
(307,0,c),
(310,54,l),
(245,70,l),
(243,81,o),
(241,129,o),
(241,163,cs),
(241,291,ls),
(241,346,o),
(243,389,o),
(247,434,c),
(212,452,l),
(4,401,l),
(4,349,l),
(70,335,l),
(77,295,o),
(77,278,o),
(78,241,cs),
(77,167,ls),
(76,135,o),
(73,80,o),
(72,70,c),
(7,54,l),
(10,0,l),
(195,0,l),
(198,13,l),
(72,-16,o),
(23,-66,o),
(23,-116,cs),
(23,-180,o),
(89,-223,o),
(162,-223,cs)
);
},
{
alignment = -1;
pos = (-140,0);
ref = dotaccentcomb.i;
}
);
width = 319;
},
{
layerId = "A0F5A844-D88E-40D3-8473-9812906C4A28";
shapes = (
{
closed = 1;
nodes = (
(185,-223,o),
(220,-203,o),
(246,-173,c),
(225,-146,l),
(203,-167,o),
(181,-181,o),
(155,-181,cs),
(120,-181,o),
(97,-158,o),
(97,-119,cs),
(97,-57,o),
(167,-3,o),
(243,0,c),
(245,37,l),
(178,51,l),
(175,61,o),
(173,104,o),
(173,165,cs),
(173,291,ls),
(173,344,o),
(175,381,o),
(179,422,c),
(164,436,l),
(22,399,l),
(22,366,l),
(89,352,l),
(93,327,o),
(97,279,o),
(96,224,c),
(96,158,ls),
(95,80,o),
(93,58,o),
(92,51,c),
(25,37,l),
(27,0,l),
(189,0,l),
(177,10,l),
(92,-8,o),
(27,-63,o),
(27,-132,cs),
(27,-183,o),
(71,-223,o),
(141,-223,cs)
);
},
{
alignment = -1;
pos = (-166,0);
ref = dotaccentcomb.i;
}
);
width = 269;
}
);
note = iogonek;
unicode = 303;
},
{
glyphname = jdotless;
kernLeft = j;
kernRight = j;
layers = (
{
anchors = (
{
name = top;
pos = (160,446);
}
);
background = {
anchors = (
{
name = top;
pos = (161,446);
}
);
shapes = (
{
closed = 1;
nodes = (
(132,-195,o),
(247,-77,o),
(247,44,c),
(245,275,l),
(245,349,o),
(247,392,o),
(251,434,c),
(215,452,l),
(5,401,l),
(5,349,l),
(72,334,l),
(78,294,o),
(80,274,o),
(80,235,c),
(79,-8,l),
(79,-84,o),
(54,-138,o),
(-9,-178,c),
(19,-229,l)
);
}
);
};
layerId = "722FC537-28B1-4F35-B842-D78FAAB5B143";
shapes = (
{
closed = 1;
nodes = (
(131,-195,o),
(246,-77,o),
(246,44,c),
(244,275,l),
(244,349,o),
(246,392,o),
(250,434,c),
(214,452,l),
(5,401,l),
(5,349,l),
(71,334,l),
(77,294,o),
(79,274,o),
(79,235,c),
(78,-8,l),
(78,-84,o),
(53,-138,o),
(-10,-178,c),
(18,-229,l)
);
}
);
width = 316;
},
{
anchors = (
{
name = top;
pos = (134,430);
}
);
layerId = "A0F5A844-D88E-40D3-8473-9812906C4A28";
shapes = (
{
closed = 1;
nodes = (
(124,-178,o),
(174,-99,o),
(174,-2,c),
(173,291,l),
(173,352,o),
(175,387,o),
(178,422,c),
(163,436,l),
(21,399,l),
(21,366,l),
(88,353,l),
(91,339,o),
(96,301,o),
(96,245,c),
(95,-17,l),
(95,-108,o),
(64,-157,o),
(-6,-197,c),
(13,-231,l)
);
}
);
width = 253;
}
);
note = uni0237;
unicode = 567;
},
{
glyphname = k;
kernLeft = l;
kernRight = k;
layers = (
{
anchors = (
{
name = bottom;
pos = (305,0);
},
{
name = top;
pos = (159,660);
}
);
background = {
shapes = (
{
closed = 1;
nodes = (
(301,0,l),
(304,52,l),
(242,70,l),
(239,85,o),
(240,139,o),
(240,172,c),
(241,385,l),
(241,566,o),
(242,612,o),
(248,680,c),
(215,700,l),
(-4,645,l),
(-2,594,l),
(72,584,l),
(75,528,o),
(77,452,o),
(77,360,cs),
(77,243,ls),
(77,194,o),
(74,107,o),
(71,70,c),
(14,52,l),
(17,0,l)
);
},
{
closed = 1;
nodes = (
(602,51,l),
(570,58,l),
(562,63,o),
(549,81,o),
(519,118,cs),
(370,309,l),
(355,258,l),
(510,381,l),
(576,393,l),
(573,446,l),
(336,446,l),
(333,393,l),
(399,382,l),
(253,241,l),
(228,237,l),
(228,191,l),
(250,191,l),
(343,72,ls),
(361,48,o),
(378,24,o),
(394,0,c),
(599,0,l)
);
}
);
};
layerId = "722FC537-28B1-4F35-B842-D78FAAB5B143";
shapes = (
{
closed = 1;
nodes = (
(301,0,l),
(304,52,l),
(242,70,l),
(239,85,o),
(240,139,o),
(240,172,c),
(241,385,l),
(241,566,o),
(242,612,o),
(248,680,c),
(215,700,l),
(-4,645,l),
(-2,594,l),
(72,584,l),
(75,528,o),
(77,452,o),
(77,360,cs),
(77,243,ls),
(77,194,o),
(74,107,o),
(71,70,c),
(14,52,l),
(17,0,l)
);
},
{
closed = 1;
nodes = (
(610,51,l),
(578,58,l),
(570,63,o),
(556,81,o),
(526,118,cs),
(370,309,l),
(357,258,l),
(513,381,l),
(579,393,l),
(576,446,l),
(339,446,l),
(336,393,l),
(402,382,l),
(253,241,l),
(228,237,l),
(228,191,l),
(250,191,l),
(350,72,ls),
(370,48,o),
(386,24,o),
(402,0,c),
(606,0,l)
);
}
);
width = 602;
},
{
anchors = (
{
name = bottom;
pos = (263,0);
},
{
name = top;
pos = (134,660);
}
);
layerId = "A0F5A844-D88E-40D3-8473-9812906C4A28";
shapes = (
{
closed = 1;
nodes = (
(235,0,l),
(237,36,l),
(175,51,l),
(174,60,o),
(171,92,o),
(171,145,c),
(172,390,l),
(172,511,o),
(173,590,o),
(177,680,c),
(157,694,l),
(16,653,l),
(18,621,l),
(92,611,l),
(93,588,o),
(96,463,o),
(96,363,cs),
(96,218,ls),
(96,131,o),
(93,70,o),
(91,51,c),
(34,36,l),
(36,0,l)
);
},
{
closed = 1;
nodes = (
(487,37,l),
(442,46,l),
(426,60,o),
(401,86,o),
(384,104,cs),
(243,256,l),
(228,220,l),
(407,381,l),
(473,393,l),
(471,430,l),
(270,430,l),
(268,393,l),
(334,381,l),
(195,243,l),
(157,232,l),
(156,208,l),
(184,208,l),
(321,59,ls),
(335,44,o),
(346,32,o),
(370,0,c),
(484,0,l)
);
}
);
width = 489;
}
);
note = k;
unicode = 107;
},
{
glyphname = kgreenlandic;
kernLeft = n;
kernRight = k;
layers = (
{
background = {
shapes = (
{
closed = 1;
nodes = (
(303,0,l),
(306,52,l),
(244,70,l),
(242,81,o),
(240,130,o),
(240,163,cs),
(240,291,ls),
(240,346,o),
(242,389,o),
(246,434,c),
(211,452,l),
(6,401,l),
(6,349,l),
(70,335,l),
(77,295,o),
(78,278,o),
(78,241,c),
(77,167,ls),
(76,135,o),
(73,80,o),
(72,70,c),
(10,52,l),
(13,0,l)
);
},
{
closed = 1;
nodes = (
(606,51,l),
(574,58,l),
(568,61,o),
(554,80,o),
(523,118,cs),
(373,309,l),
(359,258,l),
(513,381,l),
(584,393,l),
(580,446,l),
(344,446,l),
(340,393,l),
(403,382,l),
(256,241,l),
(231,237,l),
(232,191,l),
(254,191,l),
(346,72,ls),
(366,47,o),
(384,20,o),
(398,0,c),
(602,0,l)
);
}
);
};
layerId = "722FC537-28B1-4F35-B842-D78FAAB5B143";
shapes = (
{
closed = 1;
nodes = (
(302,0,l),
(305,52,l),
(243,70,l),
(241,81,o),
(239,130,o),
(239,163,cs),
(239,291,ls),
(239,346,o),
(241,389,o),
(245,434,c),
(210,452,l),
(5,401,l),
(5,349,l),
(69,335,l),
(76,295,o),
(77,278,o),
(77,241,c),
(76,167,ls),
(75,135,o),
(72,80,o),
(71,70,c),
(9,52,l),
(12,0,l)
);
},
{
closed = 1;
nodes = (
(608,51,l),
(576,58,l),
(568,63,o),
(554,81,o),
(524,118,cs),
(368,309,l),
(355,258,l),
(511,381,l),
(577,393,l),
(574,446,l),
(337,446,l),
(334,393,l),
(400,382,l),
(251,241,l),
(226,237,l),
(226,191,l),
(248,191,l),
(348,72,ls),
(368,48,o),
(384,24,o),
(400,0,c),
(604,0,l)
);
}
);
width = 600;
},
{
layerId = "A0F5A844-D88E-40D3-8473-9812906C4A28";
shapes = (
{
closed = 1;
nodes = (
(236,0,l),
(239,36,l),
(177,51,l),
(174,65,o),
(172,104,o),
(172,165,cs),
(172,291,ls),
(172,344,o),
(174,381,o),
(177,422,c),
(163,436,l),
(24,399,l),
(24,366,l),
(88,352,l),
(92,327,o),
(96,279,o),
(96,225,c),
(95,158,l),
(94,80,o),
(92,58,o),
(91,51,c),
(29,36,l),
(31,0,l)
);
},
{
closed = 1;
nodes = (
(487,37,l),
(442,46,l),
(427,60,o),
(401,86,o),
(385,104,cs),
(244,256,l),
(229,220,l),
(408,381,l),
(474,393,l),
(472,430,l),
(271,430,l),
(269,393,l),
(335,381,l),
(196,243,l),
(157,232,l),
(156,208,l),
(185,208,l),
(322,59,ls),
(335,44,o),
(347,32,o),
(371,0,c),
(485,0,l)
);
}
);
width = 489;
}
);
metricLeft = n;
metricRight = k;
note = kgreenlandic;
unicode = 312;
},
{
glyphname = l;
kernLeft = l;
kernRight = l;
layers = (
{
anchors = (
{
name = bottom;
pos = (160,0);
},
{
name = center;
pos = (160,334);
},
{
name = dotacc;
pos = (362,334);
},
{
name = top;
pos = (160,660);
},
{
name = topright;
pos = (283,688);
}
);
background = {
anchors = (
{
name = bottom;
pos = (161,0);
},
{
name = center;
pos = (161,334);
},
{
name = dotacc;
pos = (361,334);
},
{
name = top;
pos = (161,660);
},
{
name = topright;
pos = (284,688);
}
);
shapes = (
{
closed = 1;
nodes = (
(308,0,l),
(312,54,l),
(247,70,l),
(244,86,o),
(243,151,o),
(243,254,c),
(244,391,ls),
(245,537,o),
(243,598,o),
(250,680,c),
(217,700,l),
(-4,645,l),
(-2,594,l),
(72,584,l),
(76,526,o),
(78,447,o),
(78,360,cs),
(78,232,ls),
(78,193,o),
(74,99,o),
(72,70,c),
(7,54,l),
(10,0,l)
);
}
);
};
layerId = "722FC537-28B1-4F35-B842-D78FAAB5B143";
shapes = (
{
closed = 1;
nodes = (
(308,0,l),
(311,54,l),
(246,70,l),
(243,86,o),
(242,151,o),
(242,254,c),
(243,391,ls),
(244,537,o),
(242,598,o),
(249,680,c),
(216,700,l),
(-5,645,l),
(-3,594,l),
(71,584,l),
(75,526,o),
(77,447,o),
(77,360,cs),
(77,232,ls),
(77,193,o),
(73,99,o),
(71,70,c),
(6,54,l),
(9,0,l)
);
}
);
width = 319;
},
{
anchors = (
{
name = bottom;
pos = (135,0);
},
{
name = center;
pos = (135,350);
},
{
name = dotacc;
pos = (279,350);
},
{
name = top;
pos = (135,660);
},
{
name = topright;
pos = (214,688);
}
);
layerId = "A0F5A844-D88E-40D3-8473-9812906C4A28";
shapes = (
{
closed = 1;
nodes = (
(241,0,l),
(243,37,l),
(178,51,l),
(175,69,o),
(173,140,o),
(173,219,c),
(174,380,ls),
(174,523,o),
(176,595,o),
(178,680,c),
(159,694,l),
(16,653,l),
(18,621,l),
(92,611,l),
(94,589,o),
(96,463,o),
(96,363,cs),
(96,238,ls),
(96,127,o),
(94,71,o),
(91,51,c),
(26,37,l),
(28,0,l)
);
}
);
width = 269;
}
);
note = l;
unicode = 108;
},
{
glyphname = m;
kernLeft = n;
kernRight = n;
layers = (
{
anchors = (
{
name = bottom;
pos = (453,0);
},
{
name = top;
pos = (453,446);
}
);
background = {
anchors = (
{
name = bottom;
pos = (454,0);
},
{
name = top;
pos = (454,446);
}
);
shapes = (
{
closed = 1;
nodes = (
(298,0,l),
(301,52,l),
(245,70,l),
(243,81,o),
(241,129,o),
(241,163,cs),
(241,308,l),
(255,327,o),
(283,341,o),
(306,341,cs),
(347,341,o),
(373,319,o),
(373,257,c),
(375,173,l),
(375,148,o),
(373,95,o),
(370,70,c),
(318,52,l),
(322,0,l),
(590,0,l),
(593,52,l),
(540,70,l),
(537,79,o),
(536,127,o),
(536,169,c),
(534,272,l),
(534,396,o),
(466,454,o),
(383,454,cs),
(330,454,o),
(281,428,o),
(239,376,c),
(236,377,l),
(242,434,l),
(208,452,l),
(7,401,l),
(7,349,l),
(71,335,l),
(78,293,o),
(78,277,o),
(79,241,c),
(78,167,ls),
(77,135,o),
(74,80,o),
(73,70,c),
(11,52,l),
(14,0,l)
);
},
{
closed = 1;
nodes = (
(890,0,l),
(894,52,l),
(832,70,l),
(829,79,o),
(828,127,o),
(828,169,c),
(825,269,l),
(825,392,o),
(755,454,o),
(657,454,cs),
(592,454,o),
(537,418,o),
(488,354,c),
(525,315,l),
(538,330,o),
(567,341,o),
(591,341,cs),
(637,341,o),
(664,315,o),
(664,241,c),
(667,173,l),
(667,150,o),
(665,95,o),
(662,70,c),
(612,52,l),
(616,0,l)
);
}
);
};
layerId = "722FC537-28B1-4F35-B842-D78FAAB5B143";
shapes = (
{
closed = 1;
nodes = (
(293,0,l),
(296,52,l),
(244,70,l),
(242,81,o),
(240,129,o),
(240,163,cs),
(240,308,l),
(254,327,o),
(282,341,o),
(305,341,cs),
(346,341,o),
(372,319,o),
(372,257,c),
(374,173,l),
(374,148,o),
(372,95,o),
(369,70,c),
(321,52,l),
(324,0,l),
(586,0,l),
(589,52,l),
(539,70,l),
(536,79,o),
(535,127,o),
(535,169,c),
(533,272,l),
(533,396,o),
(465,454,o),
(382,454,cs),
(329,454,o),
(280,428,o),
(238,371,c),
(235,372,l),
(241,434,l),
(207,452,l),
(6,401,l),
(6,349,l),
(70,335,l),
(77,293,o),
(77,277,o),
(78,241,c),
(77,167,ls),
(76,135,o),
(73,80,o),
(72,70,c),
(10,52,l),
(13,0,l)
);
},
{
closed = 1;
nodes = (
(890,0,l),
(893,52,l),
(831,70,l),
(828,79,o),
(827,127,o),
(827,169,c),
(824,269,l),
(824,392,o),
(754,454,o),
(656,454,cs),
(591,454,o),
(536,418,o),
(487,349,c),
(524,315,l),
(537,330,o),
(566,341,o),
(590,341,cs),
(636,341,o),
(663,315,o),
(663,241,c),
(666,173,l),
(666,150,o),
(664,95,o),
(661,70,c),
(614,52,l),
(617,0,l)
);
}
);
width = 898;
},
{
anchors = (
{
name = bottom;
pos = (414,0);
},
{
name = top;
pos = (414,430);
}
);
layerId = "A0F5A844-D88E-40D3-8473-9812906C4A28";
shapes = (
{
closed = 1;
nodes = (
(234,0,l),
(237,36,l),
(178,51,l),
(175,65,o),
(173,104,o),
(173,165,cs),
(173,315,l),
(201,357,o),
(238,377,o),
(279,377,cs),
(329,377,o),
(375,343,o),
(375,258,c),
(376,148,l),
(376,93,o),
(374,66,o),
(372,51,c),
(317,36,l),
(320,0,l),
(515,0,l),
(518,36,l),
(458,51,l),
(454,65,o),
(452,107,o),
(452,155,c),
(451,261,l),
(451,382,o),
(376,438,o),
(307,438,cs),
(260,438,o),
(215,417,o),
(174,365,c),
(171,366,l),
(176,420,l),
(159,436,l),
(25,399,l),
(25,366,l),
(89,352,l),
(93,327,o),
(98,278,o),
(97,236,c),
(96,158,ls),
(95,86,o),
(93,64,o),
(92,51,c),
(30,36,l),
(32,0,l)
);
},
{
closed = 1;
nodes = (
(795,0,l),
(797,36,l),
(735,51,l),
(732,65,o),
(730,107,o),
(730,155,c),
(730,268,l),
(730,375,o),
(663,438,o),
(580,438,cs),
(521,438,o),
(468,409,o),
(422,345,c),
(441,308,l),
(471,354,o),
(510,377,o),
(556,377,cs),
(602,377,o),
(654,344,o),
(654,257,c),
(654,148,l),
(654,93,o),
(651,66,o),
(650,51,c),
(593,36,l),
(596,0,l)
);
}
);
width = 823;
}
);
note = m;
unicode = 109;
},
{
glyphname = n;
kernLeft = n;
kernRight = n;
layers = (
{
anchors = (
{
name = bottom;
pos = (310,0);
},
{
name = top;
pos = (310,446);
}
);
background = {
anchors = (
{
name = bottom;
pos = (306,0);
},
{
name = top;
pos = (306,446);
}
);
shapes = (
{
closed = 1;
nodes = (
(303,0,l),
(306,52,l),
(244,70,l),
(242,81,o),
(240,128,o),
(240,163,cs),
(240,308,l),
(259,330,o),
(283,341,o),
(309,341,cs),
(352,341,o),
(382,312,o),
(382,242,cs),
(382,173,ls),
(382,148,o),
(380,95,o),
(377,70,c),
(319,52,l),
(322,0,l),
(605,0,l),
(609,52,l),
(547,70,l),
(544,80,o),
(543,126,o),
(543,169,cs),
(543,270,ls),
(543,382,o),
(481,454,o),
(389,454,cs),
(331,454,o),
(277,425,o),
(238,373,c),
(235,374,l),
(241,434,l),
(207,452,l),
(6,401,l),
(6,349,l),
(70,335,l),
(77,295,o),
(78,281,o),
(78,242,c),
(77,167,ls),
(77,134,o),
(73,80,o),
(72,70,c),
(10,52,l),
(13,0,l)
);
}
);
};
layerId = "722FC537-28B1-4F35-B842-D78FAAB5B143";
shapes = (
{
closed = 1;
nodes = (
(298,0,l),
(301,52,l),
(243,70,l),
(241,81,o),
(239,128,o),
(239,163,cs),
(239,308,l),
(258,330,o),
(282,341,o),
(308,341,cs),
(351,341,o),
(381,312,o),
(381,242,cs),
(381,173,ls),
(381,148,o),
(379,95,o),
(376,70,c),
(322,52,l),
(325,0,l),
(605,0,l),
(608,52,l),
(546,70,l),
(543,80,o),
(542,126,o),
(542,169,cs),
(542,270,ls),
(542,382,o),
(480,454,o),
(388,454,cs),
(330,454,o),
(276,425,o),
(237,368,c),
(234,369,l),
(240,434,l),
(206,452,l),
(5,401,l),
(5,349,l),
(69,335,l),
(76,295,o),
(77,281,o),
(77,242,c),
(76,167,ls),
(75,134,o),
(72,80,o),
(71,70,c),
(9,52,l),
(12,0,l)
);
}
);
width = 614;
},
{
anchors = (
{
name = bottom;
pos = (278,0);
},
{
name = top;
pos = (278,430);
}
);
layerId = "A0F5A844-D88E-40D3-8473-9812906C4A28";
shapes = (
{
closed = 1;
nodes = (
(236,0,l),
(239,36,l),
(177,51,l),
(174,65,o),
(172,103,o),
(172,165,cs),
(172,315,l),
(199,354,o),
(238,377,o),
(282,377,cs),
(329,377,o),
(383,345,o),
(383,256,cs),
(383,148,ls),
(383,93,o),
(381,66,o),
(379,51,c),
(321,36,l),
(323,0,l),
(524,0,l),
(527,36,l),
(465,51,l),
(461,64,o),
(459,107,o),
(459,155,cs),
(459,266,ls),
(459,383,o),
(389,438,o),
(316,438,cs),
(263,438,o),
(220,417,o),
(173,366,c),
(170,367,l),
(175,420,l),
(158,436,l),
(24,399,l),
(24,366,l),
(88,352,l),
(92,327,o),
(96,279,o),
(96,235,c),
(95,158,ls),
(94,91,o),
(92,64,o),
(91,51,c),
(29,36,l),
(31,0,l)
);
}
);
width = 550;
}
);
note = n;
unicode = 110;
},
{
glyphname = eng;
kernLeft = n;
kernRight = j;
layers = (
{
background = {
shapes = (
{
closed = 1;
nodes = (
(539,382,o),
(477,454,o),
(387,454,cs),
(335,454,o),
(279,427,o),
(238,373,c),
(235,374,l),
(241,434,l),
(207,452,l),
(6,401,l),
(6,349,l),
(70,334,l),
(77,294,o),
(78,278,o),
(78,241,cs),
(77,167,ls),
(76,135,o),
(73,80,o),
(72,70,c),
(10,52,l),
(13,0,l),
(308,0,l),
(311,52,l),
(244,70,l),
(242,81,o),
(240,129,o),
(240,163,cs),
(240,308,l),
(257,328,o),
(282,341,o),
(307,341,cs),
(348,341,o),
(378,312,o),
(378,242,cs),
(375,-22,l),
(375,-92,o),
(372,-136,o),
(363,-158,c),
(322,-122,ls),
(298,-103,o),
(279,-94,o),
(257,-94,cs),
(222,-94,o),
(201,-112,o),
(201,-146,cs),
(201,-195,o),
(253,-228,o),
(329,-228,cs),
(449,-228,o),
(537,-124,o),
(537,12,c),
(539,270,l)
);
}
);
};
layerId = "722FC537-28B1-4F35-B842-D78FAAB5B143";
shapes = (
{
closed = 1;
nodes = (
(538,382,o),
(476,454,o),
(386,454,cs),
(334,454,o),
(278,427,o),
(237,368,c),
(234,369,l),
(240,434,l),
(206,452,l),
(5,401,l),
(5,349,l),
(69,334,l),
(76,294,o),
(77,278,o),
(77,241,cs),
(76,167,ls),
(75,135,o),
(72,80,o),
(71,70,c),
(9,52,l),
(12,0,l),
(307,0,l),
(310,52,l),
(243,70,l),
(241,81,o),
(239,129,o),
(239,163,cs),
(239,308,l),
(256,328,o),
(281,341,o),
(306,341,cs),
(347,341,o),
(377,312,o),
(377,242,cs),
(374,-22,l),
(374,-92,o),
(371,-136,o),
(362,-158,c),
(321,-122,ls),
(297,-103,o),
(278,-94,o),
(256,-94,cs),
(221,-94,o),
(200,-112,o),
(200,-146,cs),
(200,-195,o),
(252,-228,o),
(328,-228,cs),
(448,-228,o),
(536,-124,o),
(536,12,c),
(538,270,l)
);
}
);
width = 605;
},
{
layerId = "A0F5A844-D88E-40D3-8473-9812906C4A28";
shapes = (
{
closed = 1;
nodes = (
(455,383,o),
(385,438,o),
(314,438,cs),
(262,438,o),
(218,416,o),
(173,366,c),
(170,367,l),
(175,420,l),
(158,436,l),
(24,399,l),
(24,366,l),
(88,352,l),
(92,328,o),
(97,279,o),
(96,235,cs),
(95,158,ls),
(94,91,o),
(92,64,o),
(91,51,c),
(29,36,l),
(31,0,l),
(241,0,l),
(244,36,l),
(177,51,l),
(174,65,o),
(172,104,o),
(172,165,cs),
(172,315,l),
(202,357,o),
(242,377,o),
(280,377,cs),
(325,377,o),
(379,345,o),
(379,256,cs),
(377,-52,l),
(377,-134,o),
(356,-179,o),
(315,-191,c),
(280,-157,ls),
(264,-142,o),
(252,-135,o),
(233,-135,cs),
(214,-135,o),
(200,-147,o),
(200,-166,cs),
(200,-201,o),
(242,-228,o),
(296,-228,cs),
(392,-228,o),
(454,-143,o),
(454,-16,c),
(455,266,l)
);
}
);
width = 535;
}
);
metricLeft = n;
note = eng;
unicode = 331;
},
{
glyphname = o;
kernLeft = o;
kernRight = o;
layers = (
{
anchors = (
{
name = bottom;
pos = (277,0);
},
{
name = center;
pos = (277,223);
},
{
name = ogonek;
pos = (347,0);
},
{
name = top;
pos = (277,446);
},
{
name = topright;
pos = (533,446);
}
);
background = {
anchors = (
{
name = bottom;
pos = (276,0);
},
{
name = center;
pos = (276,223);
},
{
name = ogonek;
pos = (348,0);
},
{
name = top;
pos = (276,446);
},
{
name = topright;
pos = (534,446);
}
);
shapes = (
{
closed = 1;
nodes = (
(413,-8,o),
(521,95,o),
(521,229,cs),
(521,360,o),
(423,454,o),
(285,454,cs),
(157,454,o),
(32,371,o),
(32,216,cs),
(32,85,o),
(135,-8,o),
(280,-8,cs)
);
},
{
closed = 1;
nodes = (
(243,67,o),
(207,149,o),
(207,254,cs),
(207,335,o),
(229,384,o),
(266,384,cs),
(315,384,o),
(348,305,o),
(348,189,cs),
(348,108,o),
(330,67,o),
(291,67,cs)
);
}
);
};
layerId = "722FC537-28B1-4F35-B842-D78FAAB5B143";
shapes = (
{
closed = 1;
nodes = (
(412,-8,o),
(520,95,o),
(520,229,cs),
(520,360,o),
(422,454,o),
(284,454,cs),
(156,454,o),
(31,371,o),
(31,216,cs),
(31,85,o),
(134,-8,o),
(279,-8,cs)
);
},
{
closed = 1;
nodes = (
(242,67,o),
(206,149,o),
(206,254,cs),
(206,335,o),
(228,384,o),
(265,384,cs),
(314,384,o),
(347,305,o),
(347,189,cs),
(347,108,o),
(329,67,o),
(290,67,cs)
);
}
);
width = 551;
},
{
anchors = (
{
name = bottom;
pos = (254,0);
},
{
name = center;
pos = (254,215);
},
{
name = ogonek;
pos = (325,0);
},
{
name = top;
pos = (254,430);
},
{
name = topright;
pos = (492,430);
}
);
layerId = "A0F5A844-D88E-40D3-8473-9812906C4A28";
shapes = (
{
closed = 1;
nodes = (
(375,-8,o),
(467,92,o),
(467,218,cs),
(467,349,o),
(385,438,o),
(261,438,cs),
(141,438,o),
(41,349,o),
(41,214,cs),
(41,83,o),
(127,-8,o),
(257,-8,cs)
);
},
{
closed = 1;
nodes = (
(188,39,o),
(131,116,o),
(131,229,cs),
(131,328,o),
(178,393,o),
(250,393,cs),
(327,393,o),
(379,315,o),
(379,200,cs),
(379,105,o),
(334,39,o),
(267,39,cs)
);
}
);
width = 508;
}
);
note = o;
unicode = 111;
},
{
glyphname = ohorn;
kernLeft = o;
kernRight = o;
layers = (
{
anchors = (
{
name = bottom;
pos = (277,0);
},
{
name = center;
pos = (277,223);
},
{
name = top;
pos = (277,446);
}
);
background = {
anchors = (
{
name = bottom;
pos = (276,0);
},
{
name = center;
pos = (276,223);
},
{
name = top;
pos = (276,446);
}
);
shapes = (
{
closed = 1;
nodes = (
(549,530,o),
(500,558,o),
(419,547,c),
(412,469,ls),
(410,448,o),
(405,439,o),
(377,439,cs),
(352,439,o),
(337,454,o),
(274,454,cs),
(157,454,o),
(32,371,o),
(32,216,cs),
(32,85,o),
(135,-8,o),
(280,-8,cs),
(413,-8,o),
(521,95,o),
(521,229,cs),
(521,306,o),
(486,373,o),
(430,412,c),
(410,385,l),
(439,386,o),
(549,417,o),
(549,484,cs)
);
},
{
closed = 1;
nodes = (
(243,67,o),
(207,149,o),
(207,254,cs),
(207,335,o),
(229,384,o),
(266,384,cs),
(315,384,o),
(348,305,o),
(348,189,cs),
(348,108,o),
(330,67,o),
(291,67,cs)
);
}
);
};
layerId = "722FC537-28B1-4F35-B842-D78FAAB5B143";
shapes = (
{
closed = 1;
nodes = (
(548,530,o),
(499,558,o),
(418,547,c),
(411,469,ls),
(409,448,o),
(404,439,o),
(376,439,cs),
(351,439,o),
(336,454,o),
(273,454,cs),
(156,454,o),
(31,371,o),
(31,216,cs),
(31,85,o),
(134,-8,o),
(279,-8,cs),
(412,-8,o),
(520,95,o),
(520,229,cs),
(520,306,o),
(485,373,o),
(429,412,c),
(409,385,l),
(438,386,o),
(548,417,o),
(548,484,cs)
);
},
{
closed = 1;
nodes = (
(242,67,o),
(206,149,o),
(206,254,cs),
(206,335,o),
(228,384,o),
(265,384,cs),
(314,384,o),
(347,305,o),
(347,189,cs),
(347,108,o),
(329,67,o),
(290,67,cs)
);
}
);
width = 551;
},
{
anchors = (
{
name = bottom;
pos = (254,0);
},
{
name = center;
pos = (254,215);
},
{
name = top;
pos = (254,430);
}
);
layerId = "A0F5A844-D88E-40D3-8473-9812906C4A28";
shapes = (
{
closed = 1;
nodes = (
(488,516,o),
(448,530,o),
(403,519,c),
(402,476,ls),
(400,438,o),
(389,422,o),
(366,422,cs),
(334,422,o),
(313,438,o),
(252,438,cs),
(141,438,o),
(41,349,o),
(41,214,cs),
(41,83,o),
(127,-8,o),
(257,-8,cs),
(375,-8,o),
(467,92,o),
(467,218,cs),
(467,301,o),
(434,365,o),
(379,402,c),
(364,383,l),
(437,381,o),
(488,427,o),
(488,479,cs)
);
},
{
closed = 1;
nodes = (
(188,39,o),
(131,116,o),
(131,229,cs),
(131,328,o),
(178,393,o),
(250,393,cs),
(327,393,o),
(379,315,o),
(379,200,cs),
(379,105,o),
(334,39,o),
(267,39,cs)
);
}
);
width = 508;
}
);
metricLeft = o;
metricWidth = o;
note = ohorn;
unicode = 417;
},
{
glyphname = oogonek;
kernLeft = o;
kernRight = o;
layers = (
{
anchors = (
{
name = center;
pos = (277,223);
},
{
name = top;
pos = (277,446);
},
{
name = topright;
pos = (533,446);
}
);
background = {
anchors = (
{
name = center;
pos = (276,223);
},
{
name = top;
pos = (276,446);
},
{
name = topright;
pos = (534,446);
}
);
shapes = (
{
closed = 1;
nodes = (
(345,-223,o),
(386,-206,o),
(417,-173,c),
(385,-127,l),
(359,-151,o),
(337,-161,o),
(318,-161,cs),
(291,-161,o),
(269,-142,o),
(269,-108,cs),
(269,-73,o),
(292,-28,o),
(391,18,cs),
(461,51,o),
(521,131,o),
(521,229,cs),
(521,360,o),
(423,454,o),
(285,454,cs),
(157,454,o),
(32,371,o),
(32,216,cs),
(32,85,o),
(135,-8,o),
(280,-8,cs),
(317,-8,l),
(337,25,l),
(217,-12,o),
(157,-62,o),
(157,-116,cs),
(157,-180,o),
(223,-223,o),
(296,-223,cs)
);
},
{
closed = 1;
nodes = (
(243,67,o),
(207,149,o),
(207,254,cs),
(207,335,o),
(229,384,o),
(266,384,cs),
(315,384,o),
(348,305,o),
(348,189,cs),
(348,108,o),
(330,67,o),
(291,67,cs)
);
}
);
};
layerId = "722FC537-28B1-4F35-B842-D78FAAB5B143";
shapes = (
{
closed = 1;
nodes = (
(344,-223,o),
(385,-206,o),
(416,-173,c),
(384,-127,l),
(358,-151,o),
(336,-161,o),
(317,-161,cs),
(290,-161,o),
(268,-142,o),
(268,-108,cs),
(268,-73,o),
(291,-28,o),
(390,18,cs),
(460,51,o),
(520,131,o),
(520,229,cs),
(520,360,o),
(422,454,o),
(284,454,cs),
(156,454,o),
(31,371,o),
(31,216,cs),
(31,85,o),
(134,-8,o),
(279,-8,cs),
(316,-8,l),
(336,25,l),
(216,-12,o),
(156,-62,o),
(156,-116,cs),
(156,-180,o),
(222,-223,o),
(295,-223,cs)
);
},
{
closed = 1;
nodes = (
(242,67,o),
(206,149,o),
(206,254,cs),
(206,335,o),
(228,384,o),
(265,384,cs),
(314,384,o),
(347,305,o),
(347,189,cs),
(347,108,o),
(329,67,o),
(290,67,cs)
);
}
);
width = 551;
},
{
anchors = (
{
name = center;
pos = (254,215);
},
{
name = top;
pos = (254,430);
},
{
name = topright;
pos = (492,430);
}
);
layerId = "A0F5A844-D88E-40D3-8473-9812906C4A28";
shapes = (
{
closed = 1;
nodes = (
(318,-223,o),
(354,-203,o),
(380,-173,c),
(358,-146,l),
(336,-167,o),
(314,-181,o),
(289,-181,cs),
(254,-181,o),
(231,-158,o),
(231,-122,cs),
(231,-78,o),
(260,-37,o),
(359,20,cs),
(417,53,o),
(467,125,o),
(467,218,cs),
(467,349,o),
(385,438,o),
(261,438,cs),
(141,438,o),
(41,349,o),
(41,214,cs),
(41,83,o),
(127,-8,o),
(257,-8,cs),
(284,-8,l),
(318,17,l),
(222,-18,o),
(161,-71,o),
(161,-132,cs),
(161,-183,o),
(205,-223,o),
(274,-223,cs)
);
},
{
closed = 1;
nodes = (
(188,39,o),
(131,116,o),
(131,229,cs),
(131,328,o),
(178,393,o),
(250,393,cs),
(327,393,o),
(379,315,o),
(379,200,cs),
(379,105,o),
(334,39,o),
(267,39,cs)
);
}
);
width = 508;
}
);
metricLeft = o;
metricWidth = o;
unicode = 491;
},
{
glyphname = oe;
kernLeft = o;
kernRight = e;
layers = (
{
anchors = (
{
name = bottom;
pos = (433,0);
},
{
name = top;
pos = (433,446);
}
);
background = {
anchors = (
{
name = bottom;
pos = (434,0);
},
{
name = top;
pos = (434,446);
}
);
shapes = (
{
closed = 1;
nodes = (
(413,-8,o),
(496,98,o),
(496,230,cs),
(496,361,o),
(408,454,o),
(276,454,cs),
(136,454,o),
(33,351,o),
(33,216,cs),
(33,83,o),
(139,-8,o),
(281,-8,cs)
);
},
{
closed = 1;
nodes = (
(243,66,o),
(209,152,o),
(209,256,cs),
(209,352,o),
(239,385,o),
(270,385,cs),
(321,385,o),
(354,304,o),
(354,188,cs),
(354,97,o),
(330,66,o),
(296,66,cs)
);
},
{
closed = 1;
nodes = (
(682,-8,o),
(760,39,o),
(796,126,c),
(763,159,l),
(729,122,o),
(694,106,o),
(648,106,cs),
(563,106,o),
(512,167,o),
(512,253,cs),
(512,273,ls),
(512,357,o),
(541,389,o),
(583,389,cs),
(631,389,o),
(647,347,o),
(647,298,cs),
(647,255,l),
(672,286,l),
(503,286,l),
(501,229,l),
(788,229,l),
(788,257,ls),
(788,366,o),
(721,454,o),
(596,454,cs),
(473,453,o),
(371,350,o),
(371,225,cs),
(371,96,o),
(464,-8,o),
(606,-8,cs)
);
}
);
};
layerId = "722FC537-28B1-4F35-B842-D78FAAB5B143";
shapes = (
{
closed = 1;
nodes = (
(412,-8,o),
(495,98,o),
(495,230,cs),
(495,361,o),
(407,454,o),
(275,454,cs),
(135,454,o),
(32,351,o),
(32,216,cs),
(32,83,o),
(138,-8,o),
(280,-8,cs)
);
},
{
closed = 1;
nodes = (
(242,66,o),
(208,152,o),
(208,256,cs),
(208,352,o),
(238,385,o),
(269,385,cs),
(320,385,o),
(353,304,o),
(353,188,cs),
(353,97,o),
(329,66,o),
(295,66,cs)
);
},
{
closed = 1;
nodes = (
(681,-8,o),
(759,39,o),
(795,126,c),
(762,159,l),
(728,122,o),
(693,106,o),
(647,106,cs),
(562,106,o),
(511,167,o),
(511,253,cs),
(511,277,ls),
(511,355,o),
(540,389,o),
(583,389,cs),
(630,389,o),
(646,347,o),
(646,298,cs),
(646,255,l),
(671,286,l),
(502,286,l),
(500,229,l),
(787,229,l),
(787,257,ls),
(787,366,o),
(720,454,o),
(595,454,cs),
(472,453,o),
(370,350,o),
(370,225,cs),
(370,96,o),
(463,-8,o),
(605,-8,cs)
);
}
);
width = 819;
},
{
anchors = (
{
name = bottom;
pos = (424,0);
},
{
name = top;
pos = (424,430);
}
);
layerId = "A0F5A844-D88E-40D3-8473-9812906C4A28";
shapes = (
{
closed = 1;
nodes = (
(371,-8,o),
(445,93,o),
(445,217,cs),
(445,347,o),
(373,438,o),
(252,438,cs),
(141,438,o),
(42,349,o),
(42,214,cs),
(42,83,o),
(128,-8,o),
(257,-8,cs)
);
},
{
closed = 1;
nodes = (
(197,39,o),
(132,103,o),
(132,226,cs),
(132,332,o),
(179,392,o),
(252,392,cs),
(326,392,o),
(380,317,o),
(380,202,cs),
(380,102,o),
(332,39,o),
(267,39,cs)
);
},
{
closed = 1;
nodes = (
(655,-8,o),
(714,26,o),
(751,95,c),
(726,118,l),
(689,73,o),
(654,59,o),
(610,59,cs),
(528,59,o),
(467,123,o),
(467,228,cs),
(467,251,ls),
(467,336,o),
(514,396,o),
(579,396,cs),
(627,396,o),
(673,364,o),
(673,276,cs),
(673,255,l),
(687,268,l),
(457,268,l),
(456,224,l),
(750,224,l),
(750,241,ls),
(750,370,o),
(683,437,o),
(588,438,cs),
(482,439,o),
(393,350,o),
(393,216,cs),
(393,74,o),
(475,-8,o),
(583,-8,cs)
);
}
);
width = 787;
}
);
metricLeft = "=o+1";
metricRight = "=e+1";
note = oe;
unicode = 339;
},
{
glyphname = p;
kernLeft = n;
kernRight = o;
layers = (
{
anchors = (
{
name = top;
pos = (295,446);
}
);
background = {
anchors = (
{
name = top;
pos = (296,446);
}
);
shapes = (
{
closed = 1;
nodes = (
(320,-220,l),
(324,-168,l),
(242,-150,l),
(239,-139,o),
(237,-94,o),
(237,-54,cs),
(237,1,l),
(259,-5,o),
(277,-7,o),
(293,-7,cs),
(457,-7,o),
(552,117,o),
(552,245,cs),
(552,385,o),
(459,454,o),
(371,454,cs),
(317,454,o),
(263,418,o),
(235,370,c),
(232,372,l),
(240,434,l),
(206,452,l),
(5,401,l),
(5,349,l),
(69,335,l),
(76,295,o),
(77,277,o),
(77,238,cs),
(75,69,ls),
(74,4,o),
(70,-127,o),
(69,-150,c),
(7,-168,l),
(10,-220,l)
);
},
{
closed = 1;
nodes = (
(274,78,o),
(254,84,o),
(237,92,c),
(237,312,l),
(251,328,o),
(274,340,o),
(294,340,cs),
(332,340,o),
(379,316,o),
(379,207,cs),
(380,106,o),
(340,78,o),
(293,78,cs)
);
}
);
};
layerId = "722FC537-28B1-4F35-B842-D78FAAB5B143";
shapes = (
{
closed = 1;
nodes = (
(320,-220,l),
(323,-168,l),
(241,-150,l),
(238,-139,o),
(236,-94,o),
(236,-54,cs),
(236,1,l),
(258,-5,o),
(276,-7,o),
(292,-7,cs),
(456,-7,o),
(551,117,o),
(551,245,cs),
(551,385,o),
(458,454,o),
(370,454,cs),
(316,454,o),
(262,418,o),
(234,365,c),
(231,367,l),
(239,434,l),
(205,452,l),
(4,401,l),
(4,349,l),
(68,335,l),
(75,295,o),
(76,277,o),
(76,238,cs),
(74,69,ls),
(73,4,o),
(69,-127,o),
(68,-150,c),
(6,-168,l),
(9,-220,l)
);
},
{
closed = 1;
nodes = (
(273,78,o),
(253,84,o),
(236,92,c),
(236,312,l),
(250,328,o),
(273,340,o),
(293,340,cs),
(331,340,o),
(378,316,o),
(378,207,cs),
(379,106,o),
(339,78,o),
(292,78,cs)
);
}
);
width = 583;
},
{
anchors = (
{
name = top;
pos = (270,430);
}
);
layerId = "A0F5A844-D88E-40D3-8473-9812906C4A28";
shapes = (
{
closed = 1;
nodes = (
(255,-220,l),
(257,-182,l),
(175,-169,l),
(173,-152,o),
(171,-116,o),
(171,-65,cs),
(171,10,l),
(198,0,o),
(235,-7,o),
(267,-7,cs),
(396,-7,o),
(495,93,o),
(495,226,cs),
(495,349,o),
(415,438,o),
(306,438,cs),
(254,438,o),
(209,413,o),
(172,365,c),
(169,365,l),
(174,420,l),
(157,436,l),
(23,399,l),
(23,366,l),
(87,352,l),
(91,327,o),
(95,281,o),
(95,241,cs),
(93,-6,ls),
(92,-104,o),
(90,-156,o),
(89,-169,c),
(27,-184,l),
(29,-220,l)
);
},
{
closed = 1;
nodes = (
(234,42,o),
(197,53,o),
(171,73,c),
(171,315,l),
(200,352,o),
(236,372,o),
(278,372,cs),
(354,372,o),
(408,302,o),
(407,207,cs),
(405,101,o),
(350,42,o),
(270,42,cs)
);
}
);
width = 537;
}
);
note = p;
unicode = 112;
},
{
glyphname = thorn;
kernLeft = b;
kernRight = o;
layers = (
{
background = {
shapes = (
{
closed = 1;
nodes = (
(315,-220,l),
(318,-168,l),
(236,-149,l),
(234,-137,o),
(232,-93,o),
(232,-60,cs),
(232,1,l),
(253,-5,o),
(263,-7,o),
(286,-7,cs),
(451,-7,o),
(546,117,o),
(546,245,cs),
(546,385,o),
(452,454,o),
(364,454,cs),
(311,454,o),
(256,418,o),
(231,371,c),
(228,372,l),
(233,558,o),
(234,606,o),
(240,680,c),
(209,700,l),
(-12,645,l),
(-10,594,l),
(64,584,l),
(68,527,o),
(68,452,o),
(70,360,c),
(69,58,ls),
(70,-28,o),
(66,-126,o),
(63,-149,c),
(1,-168,l),
(5,-220,l)
);
},
{
closed = 1;
nodes = (
(267,78,o),
(248,84,o),
(232,92,c),
(232,312,l),
(244,328,o),
(268,340,o),
(287,340,cs),
(326,340,o),
(372,316,o),
(373,207,cs),
(373,106,o),
(334,78,o),
(287,78,cs)
);
}
);
};
layerId = "722FC537-28B1-4F35-B842-D78FAAB5B143";
shapes = (
{
closed = 1;
nodes = (
(314,-220,l),
(317,-168,l),
(235,-149,l),
(233,-137,o),
(231,-93,o),
(231,-60,cs),
(231,1,l),
(252,-5,o),
(262,-7,o),
(285,-7,cs),
(450,-7,o),
(545,117,o),
(545,245,cs),
(545,385,o),
(451,454,o),
(363,454,cs),
(310,454,o),
(255,418,o),
(230,366,c),
(227,367,l),
(232,558,o),
(233,606,o),
(239,680,c),
(208,700,l),
(-13,645,l),
(-11,594,l),
(63,584,l),
(67,527,o),
(67,452,o),
(69,360,c),
(68,58,ls),
(69,-28,o),
(65,-126,o),
(62,-149,c),
(0,-168,l),
(4,-220,l)
);
},
{
closed = 1;
nodes = (
(266,78,o),
(247,84,o),
(231,92,c),
(231,312,l),
(243,328,o),
(267,340,o),
(286,340,cs),
(325,340,o),
(371,316,o),
(372,207,cs),
(372,106,o),
(333,78,o),
(286,78,cs)
);
}
);
width = 577;
},
{
layerId = "A0F5A844-D88E-40D3-8473-9812906C4A28";
shapes = (
{
closed = 1;
nodes = (
(244,-220,l),
(246,-182,l),
(164,-169,l),
(162,-152,o),
(160,-117,o),
(160,-55,cs),
(160,10,l),
(187,0,o),
(224,-7,o),
(255,-7,cs),
(385,-7,o),
(482,93,o),
(482,226,cs),
(482,349,o),
(404,438,o),
(294,438,cs),
(241,438,o),
(196,413,o),
(161,366,c),
(158,367,l),
(161,525,o),
(162,597,o),
(165,680,c),
(145,694,l),
(4,653,l),
(6,621,l),
(80,611,l),
(82,587,o),
(84,453,o),
(84,363,c),
(82,14,ls),
(81,-109,o),
(79,-156,o),
(78,-169,c),
(16,-184,l),
(18,-220,l)
);
},
{
closed = 1;
nodes = (
(221,42,o),
(184,53,o),
(160,73,c),
(160,315,l),
(188,352,o),
(223,372,o),
(267,372,cs),
(342,372,o),
(395,302,o),
(394,207,cs),
(394,101,o),
(338,42,o),
(259,42,cs)
);
}
);
width = 524;
}
);
metricRight = p;
note = thorn;
unicode = 254;
},
{
glyphname = q;
kernLeft = o;
kernRight = q;
layers = (
{
anchors = (
{
name = top;
pos = (289,446);
}
);
background = {
anchors = (
{
name = top;
pos = (290,446);
}
);
shapes = (
{
closed = 1;
nodes = (
(562,-220,l),
(567,-168,l),
(505,-150,l),
(503,-140,o),
(501,-91,o),
(500,-14,cs),
(499,270,ls),
(498,330,o),
(501,430,o),
(502,475,c),
(458,475,l),
(405,431,l),
(373,445,o),
(339,452,o),
(294,452,cs),
(156,452,o),
(33,359,o),
(33,208,cs),
(33,75,o),
(130,-11,o),
(229,-11,cs),
(268,-11,o),
(310,7,o),
(341,68,c),
(344,65,l),
(342,-57,ls),
(342,-100,o),
(342,-138,o),
(341,-150,c),
(269,-168,l),
(274,-220,l)
);
},
{
closed = 1;
nodes = (
(248,105,o),
(204,155,o),
(204,250,cs),
(204,332,o),
(238,383,o),
(292,383,cs),
(308,383,o),
(327,377,o),
(340,366,c),
(339,138,l),
(330,115,o),
(298,105,o),
(290,105,cs)
);
}
);
};
layerId = "722FC537-28B1-4F35-B842-D78FAAB5B143";
shapes = (
{
closed = 1;
nodes = (
(563,-220,l),
(566,-168,l),
(504,-150,l),
(502,-140,o),
(500,-91,o),
(499,-14,cs),
(498,270,ls),
(497,330,o),
(500,430,o),
(501,475,c),
(457,475,l),
(404,431,l),
(374,444,o),
(336,452,o),
(293,452,cs),
(155,452,o),
(32,359,o),
(32,208,cs),
(32,75,o),
(129,-11,o),
(228,-11,cs),
(267,-11,o),
(309,7,o),
(340,73,c),
(343,70,l),
(341,-57,ls),
(341,-100,o),
(341,-138,o),
(340,-150,c),
(268,-168,l),
(271,-220,l)
);
},
{
closed = 1;
nodes = (
(247,105,o),
(203,155,o),
(203,250,cs),
(203,332,o),
(237,383,o),
(291,383,cs),
(307,383,o),
(326,377,o),
(339,366,c),
(338,138,l),
(329,115,o),
(297,105,o),
(289,105,cs)
);
}
);
width = 571;
},
{
anchors = (
{
name = top;
pos = (272,430);
}
);
layerId = "A0F5A844-D88E-40D3-8473-9812906C4A28";
shapes = (
{
closed = 1;
nodes = (
(510,-220,l),
(513,-184,l),
(451,-169,l),
(449,-153,o),
(447,-110,o),
(446,-25,cs),
(443,209,ls),
(442,305,o),
(443,371,o),
(446,440,c),
(415,440,l),
(384,410,l),
(351,428,o),
(311,438,o),
(269,438,cs),
(158,438,o),
(42,354,o),
(42,200,cs),
(42,78,o),
(120,-8,o),
(238,-8,cs),
(284,-8,o),
(328,15,o),
(365,66,c),
(368,65,l),
(369,-59,ls),
(369,-125,o),
(367,-144,o),
(366,-169,c),
(294,-184,l),
(297,-220,l)
);
},
{
closed = 1;
nodes = (
(184,59,o),
(129,120,o),
(129,226,cs),
(129,338,o),
(193,393,o),
(264,393,cs),
(300,393,o),
(342,378,o),
(367,342,c),
(366,116,l),
(331,73,o),
(302,59,o),
(262,59,cs)
);
}
);
width = 524;
}
);
note = q;
unicode = 113;
},
{
glyphname = r;
kernLeft = n;
kernRight = r;
layers = (
{
anchors = (
{
name = bottom;
pos = (161,0);
},
{
name = top;
pos = (211,446);
}
);
background = {
anchors = (
{
name = bottom;
pos = (162,0);
},
{
name = top;
pos = (212,446);
}
);
shapes = (
{
closed = 1;
nodes = (
(331,0,l),
(335,54,l),
(248,71,l),
(247,77,o),
(245,128,o),
(244,215,cs),
(243,288,l),
(254,307,o),
(269,327,o),
(289,341,c),
(253,342,l),
(289,305,o),
(313,296,o),
(350,296,cs),
(393,296,o),
(432,328,o),
(432,377,cs),
(432,428,o),
(395,450,o),
(354,450,cs),
(310,450,o),
(274,428,o),
(237,358,c),
(234,359,l),
(238,433,l),
(204,452,l),
(7,401,l),
(7,349,l),
(71,335,l),
(78,293,o),
(79,277,o),
(79,241,c),
(78,167,ls),
(77,136,o),
(74,80,o),
(73,70,c),
(11,52,l),
(14,0,l)
);
}
);
};
layerId = "722FC537-28B1-4F35-B842-D78FAAB5B143";
shapes = (
{
closed = 1;
nodes = (
(331,0,l),
(334,54,l),
(247,71,l),
(246,77,o),
(244,128,o),
(243,215,cs),
(242,287,l),
(253,307,o),
(268,327,o),
(288,341,c),
(252,342,l),
(288,305,o),
(312,296,o),
(349,296,cs),
(392,296,o),
(431,328,o),
(431,377,cs),
(431,428,o),
(394,450,o),
(355,450,cs),
(309,450,o),
(272,428,o),
(236,353,c),
(233,354,l),
(237,433,l),
(203,452,l),
(6,401,l),
(6,349,l),
(70,335,l),
(77,293,o),
(78,277,o),
(78,241,c),
(77,167,ls),
(76,136,o),
(73,80,o),
(72,70,c),
(10,52,l),
(13,0,l)
);
}
);
width = 444;
},
{
anchors = (
{
name = bottom;
pos = (136,0);
},
{
name = top;
pos = (171,430);
}
);
layerId = "A0F5A844-D88E-40D3-8473-9812906C4A28";
shapes = (
{
closed = 1;
nodes = (
(264,0,l),
(266,38,l),
(179,51,l),
(177,74,o),
(174,134,o),
(173,185,cs),
(172,278,l),
(191,320,o),
(214,349,o),
(239,365,c),
(221,371,l),
(241,352,o),
(263,341,o),
(287,341,cs),
(320,341,o),
(345,358,o),
(345,390,cs),
(345,420,o),
(322,436,o),
(291,436,cs),
(255,436,o),
(212,414,o),
(172,337,c),
(169,338,l),
(173,422,l),
(159,436,l),
(25,399,l),
(25,366,l),
(89,352,l),
(93,327,o),
(97,280,o),
(97,236,c),
(96,158,ls),
(96,93,o),
(94,61,o),
(92,51,c),
(30,36,l),
(33,0,l)
);
}
);
width = 364;
}
);
note = r;
unicode = 114;
},
{
glyphname = s;
kernLeft = s;
kernRight = s;
layers = (
{
anchors = (
{
name = bottom;
pos = (214,0);
},
{
name = top;
pos = (215,446);
}
);
background = {
anchors = (
{
name = bottom;
pos = (215,0);
},
{
name = top;
pos = (216,446);
}
);
shapes = (
{
closed = 1;
nodes = (
(329,-8,o),
(416,51,o),
(416,143,cs),
(416,206,o),
(381,246,o),
(293,279,cs),
(215,307,o),
(192,323,o),
(192,347,cs),
(192,376,o),
(216,391,o),
(251,391,cs),
(266,391,o),
(288,387,o),
(302,378,c),
(323,306,l),
(398,306,l),
(385,430,l),
(355,443,o),
(304,454,o),
(257,454,cs),
(128,454,o),
(39,392,o),
(39,303,cs),
(39,236,o),
(73,194,o),
(172,159,cs),
(243,133,o),
(259,121,o),
(259,95,cs),
(259,72,o),
(242,59,o),
(205,59,cs),
(180,59,o),
(153,66,o),
(126,80,c),
(105,152,l),
(30,152,l),
(35,28,l),
(75,7,o),
(137,-8,o),
(197,-8,cs)
);
}
);
};
layerId = "722FC537-28B1-4F35-B842-D78FAAB5B143";
shapes = (
{
closed = 1;
nodes = (
(328,-8,o),
(415,51,o),
(415,143,cs),
(415,206,o),
(380,246,o),
(292,279,cs),
(214,308,o),
(191,323,o),
(191,350,cs),
(191,376,o),
(215,391,o),
(250,391,cs),
(265,391,o),
(287,387,o),
(301,378,c),
(322,306,l),
(397,306,l),
(384,430,l),
(354,443,o),
(303,454,o),
(256,454,cs),
(127,454,o),
(38,392,o),
(38,303,cs),
(38,236,o),
(72,194,o),
(171,159,cs),
(242,134,o),
(258,121,o),
(258,94,cs),
(258,72,o),
(241,59,o),
(204,59,cs),
(179,59,o),
(152,66,o),
(125,80,c),
(104,152,l),
(29,152,l),
(34,28,l),
(74,7,o),
(136,-8,o),
(196,-8,cs)
);
}
);
width = 434;
},
{
anchors = (
{
name = bottom;
pos = (202,0);
},
{
name = top;
pos = (206,430);
}
);
layerId = "A0F5A844-D88E-40D3-8473-9812906C4A28";
shapes = (
{
closed = 1;
nodes = (
(292,-8,o),
(362,43,o),
(362,115,cs),
(362,170,o),
(332,204,o),
(244,244,cs),
(166,280,o),
(140,298,o),
(140,338,cs),
(140,372,o),
(170,397,o),
(217,397,cs),
(238,397,o),
(257,392,o),
(271,384,c),
(295,316,l),
(342,316,l),
(331,420,l),
(305,431,o),
(263,438,o),
(226,438,cs),
(126,438,o),
(57,387,o),
(57,316,cs),
(57,256,o),
(91,224,o),
(186,183,cs),
(259,152,o),
(279,130,o),
(279,95,cs),
(279,58,o),
(248,34,o),
(203,34,cs),
(172,34,o),
(146,42,o),
(123,58,c),
(103,130,l),
(54,130,l),
(59,23,l),
(93,4,o),
(147,-8,o),
(196,-8,cs)
);
}
);
width = 402;
}
);
note = s;
unicode = 115;
},
{
glyphname = germandbls;
kernLeft = f;
kernRight = german;
layers = (
{
background = {
shapes = (
{
closed = 1;
nodes = (
(577,-8,o),
(654,51,o),
(654,149,cs),
(654,307,o),
(449,290,o),
(449,372,cs),
(449,426,o),
(536,475,o),
(537,549,cs),
(539,642,o),
(455,698,o),
(335,698,cs),
(176,698,o),
(76,600,o),
(76,462,cs),
(76,372,l),
(78,213,ls),
(79,170,o),
(76,99,o),
(73,70,c),
(21,52,l),
(24,0,l),
(294,0,l),
(297,52,l),
(245,70,l),
(245,70,o),
(243,103,o),
(242,257,cs),
(240,525,l),
(240,597,o),
(272,633,o),
(319,633,cs),
(373,633,o),
(398,599,o),
(398,532,cs),
(398,429,o),
(306,397,o),
(306,320,cs),
(306,174,o),
(507,201,o),
(507,101,cs),
(507,77,o),
(490,59,o),
(461,59,cs),
(444,59,o),
(417,61,o),
(393,78,c),
(378,150,l),
(309,150,l),
(315,28,l),
(354,8,o),
(404,-8,o),
(456,-8,cs)
);
},
{
closed = 1;
nodes = (
(145,372,l),
(145,444,l),
(76,449,l),
(0,427,l),
(0,372,l)
);
}
);
};
layerId = "722FC537-28B1-4F35-B842-D78FAAB5B143";
shapes = (
{
closed = 1;
nodes = (
(576,-8,o),
(653,51,o),
(653,149,cs),
(653,307,o),
(448,290,o),
(448,372,cs),
(448,426,o),
(535,475,o),
(536,549,cs),
(538,642,o),
(454,698,o),
(334,698,cs),
(175,698,o),
(75,600,o),
(75,465,cs),
(75,372,l),
(77,213,ls),
(78,170,o),
(75,99,o),
(72,70,c),
(20,52,l),
(23,0,l),
(289,0,l),
(292,52,l),
(244,70,l),
(244,70,o),
(242,103,o),
(241,257,cs),
(239,525,l),
(239,597,o),
(271,633,o),
(321,633,cs),
(372,633,o),
(397,599,o),
(397,532,cs),
(397,429,o),
(305,397,o),
(305,320,cs),
(305,172,o),
(506,201,o),
(506,104,cs),
(506,77,o),
(489,59,o),
(460,59,cs),
(443,59,o),
(416,61,o),
(392,78,c),
(377,150,l),
(308,150,l),
(314,28,l),
(353,8,o),
(403,-8,o),
(455,-8,cs)
);
},
{
closed = 1;
nodes = (
(144,372,l),
(144,444,l),
(75,449,l),
(-1,427,l),
(-1,372,l)
);
}
);
width = 666;
},
{
layerId = "A0F5A844-D88E-40D3-8473-9812906C4A28";
shapes = (
{
closed = 1;
nodes = (
(491,-8,o),
(553,45,o),
(553,119,cs),
(553,255,o),
(342,248,o),
(342,363,cs),
(342,435,o),
(438,494,o),
(437,577,cs),
(437,650,o),
(384,698,o),
(290,698,cs),
(170,698,o),
(94,611,o),
(94,484,cs),
(94,378,l),
(96,189,ls),
(97,115,o),
(94,75,o),
(93,51,c),
(41,37,l),
(43,0,l),
(227,0,l),
(230,37,l),
(178,51,l),
(175,81,o),
(172,138,o),
(172,196,cs),
(170,514,l),
(170,599,o),
(211,655,o),
(279,655,cs),
(334,655,o),
(365,619,o),
(365,563,cs),
(365,459,o),
(271,416,o),
(271,331,cs),
(271,194,o),
(478,203,o),
(478,98,cs),
(478,57,o),
(448,34,o),
(410,34,cs),
(384,34,o),
(360,41,o),
(336,56,c),
(318,128,l),
(271,128,l),
(273,23,l),
(310,3,o),
(358,-8,o),
(401,-8,cs)
);
},
{
closed = 1;
nodes = (
(134,378,l),
(134,428,l),
(94,429,l),
(22,411,l),
(22,378,l)
);
}
);
width = 570;
}
);
note = germandbls;
unicode = 223;
},
{
glyphname = t;
kernLeft = t;
kernRight = t;
layers = (
{
anchors = (
{
name = bottom;
pos = (203,0);
},
{
name = stroke;
pos = (146,270);
},
{
name = top;
pos = (186,563);
},
{
name = topright;
pos = (270,688);
}
);
background = {
anchors = (
{
name = bottom;
pos = (204,0);
},
{
name = stroke;
pos = (147,270);
},
{
name = top;
pos = (187,563);
},
{
name = topright;
pos = (271,688);
}
);
shapes = (
{
closed = 1;
nodes = (
(361,129,l),
(343,114,o),
(319,106,o),
(299,106,cs),
(256,106,o),
(229,122,o),
(229,169,c),
(231,400,l),
(233,559,l),
(198,559,l),
(-3,408,l),
(-3,372,l),
(67,372,l),
(64,159,l),
(64,45,o),
(134,-11,o),
(234,-11,cs),
(310,-11,o),
(373,31,o),
(391,98,c)
);
},
{
closed = 1;
nodes = (
(365,372,l),
(365,444,l),
(183,444,l),
(183,372,l)
);
}
);
};
layerId = "722FC537-28B1-4F35-B842-D78FAAB5B143";
shapes = (
{
closed = 1;
nodes = (
(360,129,l),
(342,114,o),
(318,106,o),
(298,106,cs),
(255,106,o),
(228,122,o),
(228,169,c),
(230,401,l),
(232,559,l),
(197,559,l),
(-4,409,l),
(-4,373,l),
(66,373,l),
(63,159,l),
(63,45,o),
(133,-11,o),
(233,-11,cs),
(309,-11,o),
(372,31,o),
(390,98,c)
);
},
{
closed = 1;
nodes = (
(364,373,l),
(364,445,l),
(182,445,l),
(182,373,l)
);
}
);
width = 388;
},
{
anchors = (
{
name = bottom;
pos = (194,0);
},
{
name = stroke;
pos = (124,270);
},
{
name = top;
pos = (165,499);
},
{
name = topright;
pos = (221,688);
}
);
layerId = "A0F5A844-D88E-40D3-8473-9812906C4A28";
shapes = (
{
closed = 1;
nodes = (
(327,87,l),
(306,67,o),
(279,54,o),
(249,54,cs),
(194,54,o),
(163,87,o),
(163,156,c),
(164,402,l),
(166,517,l),
(147,517,l),
(18,400,l),
(18,379,l),
(88,379,l),
(85,140,l),
(85,41,o),
(143,-8,o),
(224,-8,cs),
(272,-8,o),
(319,18,o),
(345,62,c)
);
},
{
closed = 1;
nodes = (
(315,379,l),
(315,429,l),
(128,429,l),
(128,379,l)
);
}
);
width = 339;
}
);
note = t;
unicode = 116;
},
{
glyphname = u;
kernLeft = u;
kernRight = u;
layers = (
{
anchors = (
{
name = bottom;
pos = (302,0);
},
{
name = ogonek;
pos = (449,0);
},
{
name = top;
pos = (302,446);
},
{
name = topright;
pos = (502,446);
}
);
background = {
anchors = (
{
name = bottom;
pos = (303,0);
},
{
name = ogonek;
pos = (450,0);
},
{
name = top;
pos = (303,446);
},
{
name = topright;
pos = (503,446);
}
);
shapes = (
{
closed = 1;
nodes = (
(533,164,o),
(533,187,o),
(533,193,cs),
(533,279,ls),
(533,367,o),
(533,416,o),
(537,433,c),
(502,452,l),
(300,401,l),
(300,349,l),
(368,335,l),
(372,293,o),
(372,279,o),
(372,219,cs),
(372,143,l),
(356,117,o),
(331,105,o),
(309,105,cs),
(260,105,o),
(233,135,o),
(233,197,c),
(235,265,l),
(235,326,o),
(237,395,o),
(240,434,c),
(205,452,l),
(-1,401,l),
(-1,349,l),
(67,335,l),
(70,319,o),
(70,297,o),
(70,264,cs),
(70,179,ls),
(70,53,o),
(135,-11,o),
(237,-11,cs),
(285,-11,o),
(336,11,o),
(374,75,c),
(377,74,l),
(376,2,l),
(411,-14,l),
(605,40,l),
(605,90,l),
(537,103,l)
);
}
);
};
layerId = "722FC537-28B1-4F35-B842-D78FAAB5B143";
shapes = (
{
closed = 1;
nodes = (
(532,164,o),
(532,187,o),
(532,193,cs),
(532,279,ls),
(532,367,o),
(532,416,o),
(536,433,c),
(501,452,l),
(299,401,l),
(299,349,l),
(367,335,l),
(371,293,o),
(371,279,o),
(371,219,cs),
(371,143,l),
(355,117,o),
(330,105,o),
(308,105,cs),
(259,105,o),
(232,135,o),
(232,197,c),
(233,265,l),
(233,326,o),
(236,395,o),
(239,434,c),
(204,452,l),
(-2,401,l),
(-2,349,l),
(66,335,l),
(69,319,o),
(69,297,o),
(69,264,cs),
(69,179,ls),
(69,53,o),
(134,-11,o),
(236,-11,cs),
(284,-11,o),
(335,11,o),
(373,80,c),
(376,79,l),
(375,2,l),
(410,-14,l),
(604,40,l),
(604,90,l),
(536,103,l)
);
}
);
width = 609;
},
{
anchors = (
{
name = bottom;
pos = (271,0);
},
{
name = ogonek;
pos = (424,0);
},
{
name = top;
pos = (271,430);
},
{
name = topright;
pos = (431,430);
}
);
color = 3;
layerId = "A0F5A844-D88E-40D3-8473-9812906C4A28";
shapes = (
{
closed = 1;
nodes = (
(452,92,o),
(448,135,o),
(448,209,cs),
(448,280,ls),
(448,334,o),
(448,366,o),
(450,422,c),
(435,436,l),
(294,399,l),
(294,366,l),
(367,352,l),
(370,323,o),
(372,277,o),
(372,234,cs),
(372,118,l),
(344,73,o),
(304,56,o),
(268,56,cs),
(208,56,o),
(165,88,o),
(165,171,c),
(166,281,l),
(166,332,o),
(167,379,o),
(170,420,c),
(152,436,l),
(16,399,l),
(16,366,l),
(84,352,l),
(87,316,o),
(89,281,o),
(89,244,cs),
(89,158,ls),
(89,47,o),
(156,-8,o),
(246,-8,cs),
(293,-8,o),
(332,11,o),
(371,66,c),
(374,65,l),
(373,2,l),
(388,-11,l),
(518,21,l),
(518,54,l),
(455,70,l)
);
}
);
width = 543;
}
);
note = u;
unicode = 117;
},
{
glyphname = uhorn;
kernLeft = u;
kernRight = u;
layers = (
{
anchors = (
{
name = bottom;
pos = (302,0);
},
{
name = ogonek;
pos = (449,0);
},
{
name = top;
pos = (302,446);
}
);
background = {
anchors = (
{
name = bottom;
pos = (1103,0);
},
{
name = ogonek;
pos = (1250,0);
},
{
name = top;
pos = (1103,446);
}
);
shapes = (
{
closed = 1;
nodes = (
(1405,40,l),
(1405,90,l),
(1337,103,l),
(1333,164,o),
(1333,187,o),
(1333,193,cs),
(1333,439,l),
(1293,382,l),
(1378,401,o),
(1440,447,o),
(1440,490,cs),
(1440,537,o),
(1391,565,o),
(1310,553,c),
(1304,486,ls),
(1302,463,o),
(1279,442,o),
(1241,433,cs),
(1100,401,l),
(1100,349,l),
(1168,335,l),
(1172,293,o),
(1172,279,o),
(1172,219,cs),
(1172,143,l),
(1156,117,o),
(1131,105,o),
(1109,105,cs),
(1060,105,o),
(1031,135,o),
(1033,197,cs),
(1035,265,ls),
(1037,326,o),
(1037,395,o),
(1040,434,c),
(1005,452,l),
(799,401,l),
(799,349,l),
(867,335,l),
(870,319,o),
(870,297,o),
(870,264,cs),
(870,179,ls),
(870,53,o),
(935,-11,o),
(1037,-11,cs),
(1085,-11,o),
(1136,11,o),
(1174,75,c),
(1177,74,l),
(1176,2,l),
(1211,-14,l)
);
},
{
closed = 1;
nodes = (
(533,164,o),
(533,187,o),
(533,193,cs),
(533,279,ls),
(533,367,o),
(533,416,o),
(537,433,c),
(502,452,l),
(300,401,l),
(300,349,l),
(368,335,l),
(372,293,o),
(372,279,o),
(372,219,cs),
(372,143,l),
(356,117,o),
(331,105,o),
(309,105,cs),
(260,105,o),
(233,135,o),
(233,197,c),
(234,265,l),
(234,326,o),
(237,395,o),
(240,434,c),
(205,452,l),
(-1,401,l),
(-1,349,l),
(67,335,l),
(70,319,o),
(70,297,o),
(70,264,cs),
(70,179,ls),
(70,53,o),
(135,-11,o),
(237,-11,cs),
(285,-11,o),
(336,11,o),
(374,80,c),
(377,79,l),
(376,2,l),
(411,-14,l),
(605,40,l),
(605,90,l),
(537,103,l)
);
}
);
};
layerId = "722FC537-28B1-4F35-B842-D78FAAB5B143";
shapes = (
{
closed = 1;
nodes = (
(604,40,l),
(604,90,l),
(536,103,l),
(532,164,o),
(532,187,o),
(532,193,cs),
(532,439,l),
(492,382,l),
(587,407,o),
(639,447,o),
(639,498,cs),
(639,539,o),
(590,565,o),
(509,553,c),
(503,488,ls),
(501,463,o),
(478,447,o),
(440,437,cs),
(299,401,l),
(299,349,l),
(367,335,l),
(371,293,o),
(371,279,o),
(371,219,cs),
(371,143,l),
(355,117,o),
(330,105,o),
(308,105,cs),
(259,105,o),
(232,135,o),
(232,197,c),
(233,265,l),
(233,326,o),
(236,395,o),
(239,434,c),
(204,452,l),
(-2,401,l),
(-2,349,l),
(66,335,l),
(69,319,o),
(69,297,o),
(69,264,cs),
(69,179,ls),
(69,53,o),
(134,-11,o),
(236,-11,cs),
(284,-11,o),
(335,11,o),
(373,80,c),
(376,79,l),
(375,2,l),
(410,-14,l)
);
}
);
width = 609;
},
{
anchors = (
{
name = bottom;
pos = (271,0);
},
{
name = ogonek;
pos = (423,0);
},
{
name = top;
pos = (271,430);
}
);
color = 3;
layerId = "A0F5A844-D88E-40D3-8473-9812906C4A28";
shapes = (
{
closed = 1;
nodes = (
(518,21,l),
(518,54,l),
(455,70,l),
(452,92,o),
(448,135,o),
(448,209,cs),
(448,417,l),
(406,391,l),
(499,399,o),
(555,433,o),
(555,487,cs),
(555,523,o),
(514,537,o),
(470,528,c),
(469,495,ls),
(468,453,o),
(452,439,o),
(409,428,cs),
(294,399,l),
(294,366,l),
(367,352,l),
(370,323,o),
(372,277,o),
(372,234,cs),
(372,118,l),
(344,73,o),
(304,56,o),
(268,56,cs),
(208,56,o),
(165,88,o),
(165,171,cs),
(166,281,ls),
(166,332,o),
(167,379,o),
(170,420,c),
(152,436,l),
(16,399,l),
(16,366,l),
(84,352,l),
(87,316,o),
(89,281,o),
(89,244,cs),
(89,158,ls),
(89,47,o),
(156,-8,o),
(246,-8,cs),
(293,-8,o),
(332,11,o),
(371,66,c),
(374,65,l),
(373,2,l),
(388,-11,l)
);
}
);
width = 543;
}
);
metricLeft = u;
metricWidth = u;
note = uhorn;
unicode = 432;
},
{
glyphname = uogonek;
kernLeft = u;
kernRight = u;
layers = (
{
anchors = (
{
name = top;
pos = (302,446);
},
{
name = topright;
pos = (502,446);
}
);
background = {
anchors = (
{
name = top;
pos = (1003,446);
},
{
name = topright;
pos = (1203,446);
}
);
shapes = (
{
closed = 1;
nodes = (
(1250,-223,o),
(1290,-206,o),
(1321,-173,c),
(1290,-127,l),
(1264,-151,o),
(1242,-161,o),
(1222,-161,cs),
(1195,-161,o),
(1174,-142,o),
(1174,-113,cs),
(1174,-72,o),
(1212,-23,o),
(1305,40,c),
(1305,90,l),
(1237,103,l),
(1233,164,o),
(1233,187,o),
(1233,193,cs),
(1233,279,ls),
(1233,367,o),
(1233,416,o),
(1237,433,c),
(1202,452,l),
(1000,401,l),
(1000,349,l),
(1068,335,l),
(1072,293,o),
(1072,279,o),
(1072,219,cs),
(1072,143,l),
(1056,117,o),
(1031,105,o),
(1009,105,cs),
(960,105,o),
(931,135,o),
(933,197,cs),
(935,265,ls),
(937,326,o),
(937,395,o),
(940,434,c),
(905,452,l),
(699,401,l),
(699,349,l),
(767,335,l),
(770,319,o),
(770,297,o),
(770,264,cs),
(770,179,ls),
(770,53,o),
(835,-11,o),
(937,-11,cs),
(985,-11,o),
(1036,11,o),
(1074,75,c),
(1077,74,l),
(1076,2,l),
(1111,-14,l),
(1206,13,l),
(1185,13,l),
(1112,-25,o),
(1061,-71,o),
(1061,-116,cs),
(1061,-180,o),
(1127,-223,o),
(1200,-223,cs)
);
},
{
closed = 1;
nodes = (
(533,164,o),
(533,187,o),
(533,193,cs),
(533,279,ls),
(533,367,o),
(533,416,o),
(537,433,c),
(502,452,l),
(300,401,l),
(300,349,l),
(368,335,l),
(372,293,o),
(372,279,o),
(372,219,cs),
(372,143,l),
(356,117,o),
(331,105,o),
(309,105,cs),
(260,105,o),
(233,135,o),
(233,197,c),
(234,265,l),
(234,326,o),
(237,395,o),
(240,434,c),
(205,452,l),
(-1,401,l),
(-1,349,l),
(67,335,l),
(70,319,o),
(70,297,o),
(70,264,cs),
(70,179,ls),
(70,53,o),
(135,-11,o),
(237,-11,cs),
(285,-11,o),
(336,11,o),
(374,80,c),
(377,79,l),
(376,2,l),
(411,-14,l),
(605,40,l),
(605,90,l),
(537,103,l)
);
}
);
};
layerId = "722FC537-28B1-4F35-B842-D78FAAB5B143";
shapes = (
{
closed = 1;
nodes = (
(549,-223,o),
(589,-206,o),
(620,-173,c),
(589,-127,l),
(563,-151,o),
(541,-161,o),
(521,-161,cs),
(494,-161,o),
(473,-142,o),
(473,-113,cs),
(473,-72,o),
(511,-23,o),
(604,40,c),
(604,90,l),
(536,103,l),
(532,164,o),
(532,187,o),
(532,193,cs),
(532,279,ls),
(532,367,o),
(532,416,o),
(536,433,c),
(501,452,l),
(299,401,l),
(299,349,l),
(367,335,l),
(371,293,o),
(371,279,o),
(371,219,cs),
(371,143,l),
(355,117,o),
(330,105,o),
(308,105,cs),
(259,105,o),
(232,135,o),
(232,197,c),
(233,265,l),
(233,326,o),
(236,395,o),
(239,434,c),
(204,452,l),
(-2,401,l),
(-2,349,l),
(66,335,l),
(69,319,o),
(69,297,o),
(69,264,cs),
(69,179,ls),
(69,53,o),
(134,-11,o),
(236,-11,cs),
(284,-11,o),
(335,11,o),
(373,80,c),
(376,79,l),
(375,2,l),
(410,-14,l),
(505,13,l),
(484,13,l),
(411,-25,o),
(360,-71,o),
(360,-116,cs),
(360,-180,o),
(426,-223,o),
(499,-223,cs)
);
}
);
width = 609;
},
{
anchors = (
{
name = top;
pos = (271,430);
},
{
name = topright;
pos = (431,430);
}
);
color = 3;
layerId = "A0F5A844-D88E-40D3-8473-9812906C4A28";
shapes = (
{
closed = 1;
nodes = (
(484,-223,o),
(520,-203,o),
(546,-173,c),
(524,-146,l),
(503,-167,o),
(481,-181,o),
(456,-181,cs),
(420,-181,o),
(397,-158,o),
(397,-122,cs),
(397,-80,o),
(426,-36,o),
(518,21,c),
(518,54,l),
(455,70,l),
(452,92,o),
(448,135,o),
(448,209,cs),
(448,280,ls),
(448,334,o),
(448,366,o),
(450,422,c),
(435,436,l),
(294,399,l),
(294,366,l),
(367,352,l),
(370,323,o),
(372,277,o),
(372,234,cs),
(372,118,l),
(344,73,o),
(304,56,o),
(268,56,cs),
(208,56,o),
(165,88,o),
(165,171,cs),
(166,281,ls),
(166,332,o),
(167,379,o),
(170,420,c),
(152,436,l),
(16,399,l),
(16,366,l),
(84,352,l),
(87,316,o),
(89,281,o),
(89,244,cs),
(89,158,ls),
(89,47,o),
(156,-8,o),
(246,-8,cs),
(293,-8,o),
(332,11,o),
(371,66,c),
(374,65,l),
(373,2,l),
(388,-11,l),
(465,8,l),
(473,19,l),
(385,-17,o),
(327,-71,o),
(327,-132,cs),
(327,-183,o),
(371,-223,o),
(441,-223,cs)
);
}
);
width = 543;
}
);
metricLeft = u;
metricWidth = u;
note = uogonek;
unicode = 371;
},
{
glyphname = v;
kernLeft = v;
kernRight = v;
layers = (
{
anchors = (
{
name = bottom;
pos = (260,0);
},
{
name = top;
pos = (260,446);
}
);
background = {
anchors = (
{
name = bottom;
pos = (261,0);
},
{
name = top;
pos = (261,446);
}
);
shapes = (
{
closed = 1;
nodes = (
(283,-4,l),
(481,376,l),
(528,394,l),
(524,446,l),
(334,446,l),
(330,394,l),
(392,376,l),
(303,170,l),
(332,169,l),
(234,376,l),
(296,394,l),
(293,446,l),
(-2,446,l),
(-5,394,l),
(42,376,l),
(231,-4,l)
);
}
);
};
layerId = "722FC537-28B1-4F35-B842-D78FAAB5B143";
shapes = (
{
closed = 1;
nodes = (
(282,-4,l),
(480,376,l),
(527,394,l),
(524,446,l),
(332,446,l),
(329,394,l),
(391,376,l),
(302,170,l),
(331,169,l),
(233,376,l),
(295,394,l),
(292,446,l),
(-3,446,l),
(-6,394,l),
(41,376,l),
(230,-4,l)
);
}
);
width = 518;
},
{
anchors = (
{
name = bottom;
pos = (237,0);
},
{
name = top;
pos = (237,430);
}
);
layerId = "A0F5A844-D88E-40D3-8473-9812906C4A28";
shapes = (
{
closed = 1;
nodes = (
(250,-4,l),
(431,379,l),
(478,394,l),
(476,430,l),
(310,430,l),
(308,394,l),
(370,379,l),
(244,74,l),
(270,75,l),
(133,379,l),
(195,394,l),
(193,430,l),
(-2,430,l),
(-4,394,l),
(43,379,l),
(220,-4,l)
);
}
);
width = 472;
}
);
note = v;
unicode = 118;
},
{
glyphname = w;
kernLeft = v;
kernRight = v;
layers = (
{
anchors = (
{
name = bottom;
pos = (423,0);
},
{
name = top;
pos = (472,446);
}
);
background = {
anchors = (
{
name = bottom;
pos = (424,0);
},
{
name = top;
pos = (473,446);
}
);
shapes = (
{
closed = 1;
nodes = (
(617,-4,l),
(820,376,l),
(867,394,l),
(864,446,l),
(684,446,l),
(681,394,l),
(733,376,l),
(638,170,l),
(662,169,l),
(570,376,l),
(622,394,l),
(618,446,l),
(339,446,l),
(335,394,l),
(380,376,l),
(565,-4,l)
);
},
{
closed = 1;
nodes = (
(284,-4,l),
(450,302,l),
(408,372,l),
(304,170,l),
(331,169,l),
(235,376,l),
(279,394,l),
(276,446,l),
(0,446,l),
(-4,394,l),
(43,376,l),
(232,-4,l)
);
}
);
};
layerId = "722FC537-28B1-4F35-B842-D78FAAB5B143";
shapes = (
{
closed = 1;
nodes = (
(616,-4,l),
(819,376,l),
(866,394,l),
(863,446,l),
(683,446,l),
(680,394,l),
(732,376,l),
(637,170,l),
(661,169,l),
(569,376,l),
(621,394,l),
(618,446,l),
(337,446,l),
(334,394,l),
(379,376,l),
(564,-4,l)
);
},
{
closed = 1;
nodes = (
(283,-4,l),
(447,303,l),
(405,373,l),
(303,170,l),
(330,169,l),
(234,376,l),
(278,394,l),
(275,446,l),
(-1,446,l),
(-5,394,l),
(42,376,l),
(231,-4,l)
);
}
);
width = 856;
},
{
anchors = (
{
name = bottom;
pos = (375,0);
},
{
name = top;
pos = (393,430);
}
);
layerId = "A0F5A844-D88E-40D3-8473-9812906C4A28";
shapes = (
{
closed = 1;
nodes = (
(535,-4,l),
(706,379,l),
(753,394,l),
(751,430,l),
(596,430,l),
(594,394,l),
(646,379,l),
(527,74,l),
(552,75,l),
(436,379,l),
(488,394,l),
(486,430,l),
(302,430,l),
(300,394,l),
(351,379,l),
(504,-4,l)
);
},
{
closed = 1;
nodes = (
(244,-4,l),
(395,326,l),
(368,388,l),
(236,74,l),
(266,75,l),
(142,379,l),
(193,394,l),
(191,430,l),
(6,430,l),
(4,394,l),
(51,379,l),
(213,-4,l)
);
}
);
width = 753;
}
);
note = w;
unicode = 119;
},
{
glyphname = x;
kernLeft = x;
kernRight = x;
layers = (
{
anchors = (
{
name = bottom;
pos = (283,0);
},
{
name = top;
pos = (283,446);
}
);
background = {
shapes = (
{
closed = 1;
nodes = (
(1249,52,l),
(1202,70,l),
(1059,246,l),
(1020,296,l),
(954,376,l),
(996,394,l),
(993,446,l),
(718,446,l),
(715,394,l),
(762,376,l),
(892,216,l),
(932,167,l),
(1011,70,l),
(964,52,l),
(967,0,l),
(1246,0,l)
);
},
{
closed = 1;
nodes = (
(1020,296,l),
(892,216,l),
(757,70,l),
(710,52,l),
(713,0,l),
(902,0,l),
(905,52,l),
(858,70,l),
(932,167,l),
(1059,246,l),
(1175,376,l),
(1222,394,l),
(1219,446,l),
(1037,446,l),
(1034,394,l),
(1076,376,l)
);
},
{
closed = 1;
nodes = (
(549,52,l),
(502,70,l),
(252,376,l),
(294,394,l),
(291,446,l),
(16,446,l),
(13,394,l),
(60,376,l),
(311,70,l),
(264,52,l),
(267,0,l),
(546,0,l)
);
},
{
closed = 1;
nodes = (
(55,70,l),
(8,52,l),
(11,0,l),
(200,0,l),
(203,52,l),
(156,70,l),
(475,376,l),
(522,394,l),
(519,446,l),
(337,446,l),
(334,394,l),
(376,376,l)
);
}
);
};
color = 3;
layerId = "722FC537-28B1-4F35-B842-D78FAAB5B143";
shapes = (
{
closed = 1;
nodes = (
(549,52,l),
(502,70,l),
(357,246,l),
(318,296,l),
(252,376,l),
(294,394,l),
(291,446,l),
(16,446,l),
(13,394,l),
(60,376,l),
(188,219,l),
(228,170,l),
(311,70,l),
(264,52,l),
(267,0,l),
(546,0,l)
);
},
{
closed = 1;
nodes = (
(318,296,l),
(188,219,l),
(57,70,l),
(10,52,l),
(13,0,l),
(202,0,l),
(205,52,l),
(158,70,l),
(228,170,l),
(357,246,l),
(475,376,l),
(522,394,l),
(519,446,l),
(337,446,l),
(334,394,l),
(376,376,l)
);
}
);
width = 552;
},
{
anchors = (
{
name = bottom;
pos = (242,0);
},
{
name = top;
pos = (242,430);
}
);
color = 3;
layerId = "A0F5A844-D88E-40D3-8473-9812906C4A28";
shapes = (
{
closed = 1;
nodes = (
(465,36,l),
(418,51,l),
(281,233,l),
(255,265,l),
(171,379,l),
(213,394,l),
(210,430,l),
(31,430,l),
(29,394,l),
(76,379,l),
(200,215,l),
(226,184,l),
(325,51,l),
(278,36,l),
(280,0,l),
(463,0,l)
);
},
{
closed = 1;
nodes = (
(255,265,l),
(200,215,l),
(72,51,l),
(25,36,l),
(27,0,l),
(175,0,l),
(177,36,l),
(130,51,l),
(226,184,l),
(281,233,l),
(398,379,l),
(445,394,l),
(442,430,l),
(300,430,l),
(297,394,l),
(339,379,l)
);
}
);
width = 481;
}
);
note = x;
unicode = 120;
},
{
glyphname = y;
kernLeft = v;
kernRight = v;
layers = (
{
anchors = (
{
name = bottom;
pos = (344,0);
},
{
name = top;
pos = (312,446);
}
);
background = {
anchors = (
{
name = bottom;
pos = (345,0);
},
{
name = top;
pos = (313,446);
}
);
shapes = (
{
closed = 1;
nodes = (
(331,169,l),
(234,376,l),
(296,394,l),
(293,446,l),
(-2,446,l),
(-5,394,l),
(42,376,l),
(230,-4,l)
);
},
{
closed = 1;
nodes = (
(334,446,l),
(330,394,l),
(392,376,l),
(301,170,l),
(286,143,l),
(158,-89,l),
(238,-45,l),
(104,-81,ls),
(48,-96,o),
(19,-126,o),
(19,-163,cs),
(19,-198,o),
(50,-228,o),
(103,-228,cs),
(145,-228,o),
(186,-209,o),
(225,-127,cs),
(304,38,l),
(481,376,l),
(528,394,l),
(524,446,l)
);
}
);
};
layerId = "722FC537-28B1-4F35-B842-D78FAAB5B143";
shapes = (
{
closed = 1;
nodes = (
(330,169,l),
(233,376,l),
(295,394,l),
(292,446,l),
(-3,446,l),
(-6,394,l),
(41,376,l),
(229,-4,l)
);
},
{
closed = 1;
nodes = (
(332,446,l),
(329,394,l),
(391,376,l),
(300,170,l),
(285,143,l),
(157,-89,l),
(237,-45,l),
(103,-81,ls),
(47,-96,o),
(18,-126,o),
(18,-163,cs),
(18,-198,o),
(49,-228,o),
(102,-228,cs),
(144,-228,o),
(185,-209,o),
(224,-127,cs),
(303,38,l),
(480,376,l),
(527,394,l),
(524,446,l)
);
}
);
width = 518;
},
{
anchors = (
{
name = bottom;
pos = (310,0);
},
{
name = top;
pos = (251,430);
}
);
layerId = "A0F5A844-D88E-40D3-8473-9812906C4A28";
shapes = (
{
closed = 1;
nodes = (
(269,75,l),
(133,379,l),
(195,394,l),
(193,430,l),
(-1,430,l),
(-4,394,l),
(43,379,l),
(219,-4,l)
);
},
{
closed = 1;
nodes = (
(310,430,l),
(308,394,l),
(370,379,l),
(240,74,l),
(229,56,l),
(118,-158,l),
(164,-108,l),
(71,-136,ls),
(37,-146,o),
(22,-165,o),
(22,-185,cs),
(22,-211,o),
(45,-228,o),
(78,-228,cs),
(120,-228,o),
(151,-206,o),
(181,-144,cs),
(261,22,l),
(431,379,l),
(478,394,l),
(475,430,l)
);
}
);
width = 472;
}
);
metricRight = v;
metricWidth = v;
note = y;
unicode = 121;
},
{
glyphname = z;
kernLeft = z;
kernRight = z;
layers = (
{
anchors = (
{
name = bottom;
pos = (246,0);
},
{
name = top;
pos = (246,446);
}
);
background = {
anchors = (
{
name = bottom;
pos = (244,0);
},
{
name = top;
pos = (244,446);
}
);
shapes = (
{
closed = 1;
nodes = (
(445,391,l),
(445,448,l),
(416,447,o),
(385,446,o),
(356,446,cs),
(144,446,ls),
(116,446,o),
(65,446,o),
(29,448,c),
(32,287,l),
(106,287,l),
(120,374,l),
(141,376,o),
(166,379,o),
(211,379,cs),
(286,379,l),
(285,427,l),
(46,54,l),
(46,-4,l),
(75,-1,o),
(106,0,o),
(135,0,cs),
(344,0,ls),
(373,0,o),
(424,0,o),
(459,-3,c),
(480,164,l),
(404,164,l),
(376,74,l),
(354,72,o),
(332,70,o),
(302,70,cs),
(205,70,l),
(214,19,l)
);
}
);
};
layerId = "722FC537-28B1-4F35-B842-D78FAAB5B143";
shapes = (
{
closed = 1;
nodes = (
(450,391,l),
(450,448,l),
(421,447,o),
(390,446,o),
(361,446,cs),
(143,446,ls),
(115,446,o),
(64,446,o),
(28,448,c),
(31,287,l),
(105,287,l),
(119,374,l),
(140,376,o),
(165,379,o),
(210,379,cs),
(291,379,l),
(290,427,l),
(45,54,l),
(45,-4,l),
(74,-1,o),
(105,0,o),
(134,0,cs),
(349,0,ls),
(378,0,o),
(429,0,o),
(464,-3,c),
(485,164,l),
(409,164,l),
(381,74,l),
(359,72,o),
(337,70,o),
(307,70,cs),
(204,70,l),
(213,19,l)
);
}
);
width = 492;
},
{
anchors = (
{
name = bottom;
pos = (222,0);
},
{
name = top;
pos = (222,430);
}
);
layerId = "A0F5A844-D88E-40D3-8473-9812906C4A28";
shapes = (
{
closed = 1;
nodes = (
(388,400,l),
(388,432,l),
(359,431,o),
(330,430,o),
(302,430,cs),
(134,430,ls),
(108,430,o),
(78,430,o),
(45,431,c),
(46,304,l),
(92,304,l),
(106,381,l),
(124,383,o),
(146,385,o),
(167,385,cs),
(305,385,l),
(307,413,l),
(52,30,l),
(52,-2,l),
(79,-1,o),
(109,0,o),
(136,0,cs),
(301,0,ls),
(328,0,o),
(359,0,o),
(392,-1,c),
(409,133,l),
(362,133,l),
(337,50,l),
(315,47,o),
(294,46,o),
(275,46,cs),
(134,46,l),
(136,17,l)
);
}
);
width = 434;
}
);
note = z;
unicode = 122;
},
{
color = 0;
glyphname = jdotless.alt;
layers = (
{
anchors = (
{
name = bottom;
pos = (159,-220);
},
{
name = top;
pos = (162,446);
}
);
background = {
anchors = (
{
name = bottom;
pos = (160,-220);
},
{
name = top;
pos = (163,446);
}
);
shapes = (
{
closed = 1;
nodes = (
(150,-228,o),
(246,-129,o),
(246,12,c),
(245,275,l),
(245,349,o),
(247,392,o),
(251,434,c),
(214,452,l),
(5,401,l),
(5,349,l),
(72,334,l),
(78,294,o),
(80,274,o),
(80,235,cs),
(79,-22,l),
(79,-151,o),
(59,-174,o),
(34,-174,c),
(91,-181,l),
(27,-122,ls),
(6,-103,o),
(-13,-94,o),
(-39,-94,cs),
(-72,-94,o),
(-94,-111,o),
(-94,-146,cs),
(-94,-195,o),
(-40,-228,o),
(34,-228,cs)
);
}
);
};
layerId = "722FC537-28B1-4F35-B842-D78FAAB5B143";
shapes = (
{
closed = 1;
nodes = (
(149,-228,o),
(245,-129,o),
(245,12,c),
(244,275,l),
(244,349,o),
(246,392,o),
(250,434,c),
(213,452,l),
(4,401,l),
(4,349,l),
(71,334,l),
(77,294,o),
(79,274,o),
(79,235,cs),
(78,-22,l),
(78,-151,o),
(58,-174,o),
(33,-174,c),
(90,-181,l),
(26,-122,ls),
(5,-103,o),
(-14,-94,o),
(-40,-94,cs),
(-73,-94,o),
(-95,-111,o),
(-95,-146,cs),
(-95,-195,o),
(-41,-228,o),
(33,-228,cs)
);
}
);
width = 316;
},
{
anchors = (
{
name = bottom;
pos = (132,-220);
},
{
name = top;
pos = (135,430);
}
);
layerId = "A0F5A844-D88E-40D3-8473-9812906C4A28";
shapes = (
{
closed = 1;
nodes = (
(104,-228,o),
(174,-149,o),
(174,-16,c),
(173,291,l),
(173,352,o),
(175,387,o),
(178,422,c),
(163,436,l),
(21,399,l),
(21,366,l),
(88,353,l),
(91,339,o),
(96,301,o),
(96,245,cs),
(95,-58,l),
(95,-160,o),
(59,-195,o),
(21,-194,c),
(44,-201,l),
(-1,-157,ls),
(-18,-141,o),
(-31,-135,o),
(-49,-135,cs),
(-69,-135,o),
(-81,-147,o),
(-81,-166,cs),
(-81,-200,o),
(-41,-228,o),
(14,-228,cs)
);
}
);
width = 253;
}
);
metricRight = jdotless;
metricWidth = jdotless;
note = j;
},
